# SSTK version 0.7.3
# 7
mtllib 7.mtl
o part9:wheel 5
v -0.2116370052099228 0.048575498163700104 -0.10894899815320969
v -0.17429900169372559 0.048575498163700104 -0.10894899815320969
v -0.2116370052099228 0.04250359907746315 -0.12775500118732452
v -0.17429900169372559 0.048575498163700104 -0.10894899815320969
v -0.17429900169372559 0.04250359907746315 -0.12775500118732452
v -0.2116370052099228 0.04250359907746315 -0.12775500118732452
v -0.2116370052099228 -4.7622998877727696e-9 -0.10894899815320969
v -0.2116370052099228 0.006071929819881916 -0.12775500118732452
v -0.17429900169372559 -6.624940152022418e-9 -0.10894899815320969
v -0.2116370052099228 0.006071929819881916 -0.12775500118732452
v -0.17429900169372559 0.006071929819881916 -0.12775500118732452
v -0.17429900169372559 -6.624940152022418e-9 -0.10894899815320969
v -0.21753500401973724 0.00516870990395546 -0.10894899815320969
v -0.21726800501346588 0.010027900338172913 -0.09402629733085632
v -0.2180439978837967 0.02428779937326908 -0.10894899815320969
v -0.21726800501346588 0.010027900338172913 -0.09402629733085632
v -0.21751299500465393 0.02428779937326908 -0.08907929807901382
v -0.2180439978837967 0.02428779937326908 -0.10894899815320969
v -0.16789300739765167 0.02428779937326908 -0.10894899815320969
v -0.16842299699783325 0.02428779937326908 -0.08907929807901382
v -0.16840100288391113 0.00516872014850378 -0.10894899815320969
v -0.16842299699783325 0.02428779937326908 -0.08907929807901382
v -0.1686529964208603 0.010027900338172913 -0.09402629733085632
v -0.16840100288391113 0.00516872014850378 -0.10894899815320969
v -0.16789300739765167 0.02428779937326908 -0.10894899815320969
v -0.16842299699783325 0.02428779937326908 -0.12881800532341003
v -0.16840200126171112 0.04340679943561554 -0.10894899815320969
v -0.16842299699783325 0.02428779937326908 -0.12881800532341003
v -0.1686529964208603 0.03854760155081749 -0.12387099862098694
v -0.16840200126171112 0.04340679943561554 -0.10894899815320969
v -0.21753500401973724 0.00516870990395546 -0.10894899815320969
v -0.2180439978837967 0.02428779937326908 -0.10894899815320969
v -0.21728399395942688 0.010027900338172913 -0.12387099862098694
v -0.2180439978837967 0.02428779937326908 -0.10894899815320969
v -0.21751299500465393 0.02428779937326908 -0.12881800532341003
v -0.21728399395942688 0.010027900338172913 -0.12387099862098694
v -0.21753500401973724 0.04340679943561554 -0.10894899815320969
v -0.21726800501346588 0.03854760155081749 -0.12387099862098694
v -0.2180439978837967 0.02428779937326908 -0.10894899815320969
v -0.21726800501346588 0.03854760155081749 -0.12387099862098694
v -0.21751299500465393 0.02428779937326908 -0.12881800532341003
v -0.2180439978837967 0.02428779937326908 -0.10894899815320969
v -0.21753500401973724 0.04340679943561554 -0.10894899815320969
v -0.2180439978837967 0.02428779937326908 -0.10894899815320969
v -0.21728399395942688 0.03854760155081749 -0.09402629733085632
v -0.2180439978837967 0.02428779937326908 -0.10894899815320969
v -0.21751299500465393 0.02428779937326908 -0.08907929807901382
v -0.21728399395942688 0.03854760155081749 -0.09402629733085632
v -0.2116370052099228 0.02428779937326908 -0.1340239942073822
v -0.2116370052099228 0.04250359907746315 -0.12775500118732452
v -0.17429900169372559 0.02428779937326908 -0.1340239942073822
v -0.2116370052099228 0.04250359907746315 -0.12775500118732452
v -0.17429900169372559 0.04250359907746315 -0.12775500118732452
v -0.17429900169372559 0.02428779937326908 -0.1340239942073822
v -0.16840200126171112 0.04340679943561554 -0.10894899815320969
v -0.16866900026798248 0.03854760155081749 -0.09402629733085632
v -0.16789300739765167 0.02428779937326908 -0.10894899815320969
v -0.16866900026798248 0.03854760155081749 -0.09402629733085632
v -0.16842299699783325 0.02428779937326908 -0.08907929807901382
v -0.16789300739765167 0.02428779937326908 -0.10894899815320969
v -0.2116370052099228 0.02428779937326908 -0.08387330174446106
v -0.17429900169372559 0.02428779937326908 -0.08387330174446106
v -0.2116370052099228 0.04250359907746315 -0.09014210104942322
v -0.17429900169372559 0.02428779937326908 -0.08387330174446106
v -0.17429900169372559 0.04250359907746315 -0.09014210104942322
v -0.2116370052099228 0.04250359907746315 -0.09014210104942322
v -0.17429900169372559 0.02428779937326908 -0.1340239942073822
v -0.17429900169372559 0.006071929819881916 -0.12775500118732452
v -0.2116370052099228 0.02428779937326908 -0.1340239942073822
v -0.17429900169372559 0.006071929819881916 -0.12775500118732452
v -0.2116370052099228 0.006071929819881916 -0.12775500118732452
v -0.2116370052099228 0.02428779937326908 -0.1340239942073822
v -0.2116370052099228 -4.7622998877727696e-9 -0.10894899815320969
v -0.17429900169372559 -6.624940152022418e-9 -0.10894899815320969
v -0.2116370052099228 0.006071940064430237 -0.09014210104942322
v -0.17429900169372559 -6.624940152022418e-9 -0.10894899815320969
v -0.17429900169372559 0.006071940064430237 -0.09014210104942322
v -0.2116370052099228 0.006071940064430237 -0.09014210104942322
v -0.16840100288391113 0.00516872014850378 -0.10894899815320969
v -0.16866900026798248 0.010027900338172913 -0.12387099862098694
v -0.16789300739765167 0.02428779937326908 -0.10894899815320969
v -0.16866900026798248 0.010027900338172913 -0.12387099862098694
v -0.16842299699783325 0.02428779937326908 -0.12881800532341003
v -0.16789300739765167 0.02428779937326908 -0.10894899815320969
v -0.2116370052099228 0.048575498163700104 -0.10894899815320969
v -0.2116370052099228 0.04250359907746315 -0.09014210104942322
v -0.17429900169372559 0.048575498163700104 -0.10894899815320969
v -0.2116370052099228 0.04250359907746315 -0.09014210104942322
v -0.17429900169372559 0.04250359907746315 -0.09014210104942322
v -0.17429900169372559 0.048575498163700104 -0.10894899815320969
v -0.17429900169372559 -6.624940152022418e-9 -0.10894899815320969
v -0.17429900169372559 0.006071929819881916 -0.12775500118732452
v -0.1705009937286377 0.001614929991774261 -0.10894899815320969
v -0.17429900169372559 0.006071929819881916 -0.12775500118732452
v -0.1705790013074875 0.007394169922918081 -0.12645700573921204
v -0.1705009937286377 0.001614929991774261 -0.10894899815320969
v -0.1705009937286377 0.001614929991774261 -0.10894899815320969
v -0.1705790013074875 0.007394169922918081 -0.12645700573921204
v -0.16840100288391113 0.00516872014850378 -0.10894899815320969
v -0.1705790013074875 0.007394169922918081 -0.12645700573921204
v -0.16866900026798248 0.010027900338172913 -0.12387099862098694
v -0.16840100288391113 0.00516872014850378 -0.10894899815320969
v -0.16840100288391113 0.00516872014850378 -0.10894899815320969
v -0.1686529964208603 0.010027900338172913 -0.09402629733085632
v -0.1705009937286377 0.001614929991774261 -0.10894899815320969
v -0.1686529964208603 0.010027900338172913 -0.09402629733085632
v -0.17057499289512634 0.007394109852612019 -0.09144079685211182
v -0.1705009937286377 0.001614929991774261 -0.10894899815320969
v -0.1705009937286377 0.001614929991774261 -0.10894899815320969
v -0.17057499289512634 0.007394109852612019 -0.09144079685211182
v -0.17429900169372559 -6.624940152022418e-9 -0.10894899815320969
v -0.17057499289512634 0.007394109852612019 -0.09144079685211182
v -0.17429900169372559 0.006071940064430237 -0.09014210104942322
v -0.17429900169372559 -6.624940152022418e-9 -0.10894899815320969
v -0.17429900169372559 0.048575498163700104 -0.10894899815320969
v -0.17429900169372559 0.04250359907746315 -0.09014210104942322
v -0.1705009937286377 0.04696059972047806 -0.10894899815320969
v -0.17429900169372559 0.04250359907746315 -0.09014210104942322
v -0.1705790013074875 0.041181400418281555 -0.09144090116024017
v -0.1705009937286377 0.04696059972047806 -0.10894899815320969
v -0.1705009937286377 0.04696059972047806 -0.10894899815320969
v -0.1705790013074875 0.041181400418281555 -0.09144090116024017
v -0.16840200126171112 0.04340679943561554 -0.10894899815320969
v -0.1705790013074875 0.041181400418281555 -0.09144090116024017
v -0.16866900026798248 0.03854760155081749 -0.09402629733085632
v -0.16840200126171112 0.04340679943561554 -0.10894899815320969
v -0.16840200126171112 0.04340679943561554 -0.10894899815320969
v -0.1686529964208603 0.03854760155081749 -0.12387099862098694
v -0.1705009937286377 0.04696059972047806 -0.10894899815320969
v -0.1686529964208603 0.03854760155081749 -0.12387099862098694
v -0.17057499289512634 0.041181400418281555 -0.12645700573921204
v -0.1705009937286377 0.04696059972047806 -0.10894899815320969
v -0.1705009937286377 0.04696059972047806 -0.10894899815320969
v -0.17057499289512634 0.041181400418281555 -0.12645700573921204
v -0.17429900169372559 0.048575498163700104 -0.10894899815320969
v -0.17057499289512634 0.041181400418281555 -0.12645700573921204
v -0.17429900169372559 0.04250359907746315 -0.12775500118732452
v -0.17429900169372559 0.048575498163700104 -0.10894899815320969
v -0.17429900169372559 0.02428779937326908 -0.1340239942073822
v -0.17429900169372559 0.04250359907746315 -0.12775500118732452
v -0.17050699889659882 0.02428779937326908 -0.1323850005865097
v -0.17429900169372559 0.04250359907746315 -0.12775500118732452
v -0.17057499289512634 0.041181400418281555 -0.12645700573921204
v -0.17050699889659882 0.02428779937326908 -0.1323850005865097
v -0.17050699889659882 0.02428779937326908 -0.1323850005865097
v -0.17057499289512634 0.041181400418281555 -0.12645700573921204
v -0.16842299699783325 0.02428779937326908 -0.12881800532341003
v -0.17057499289512634 0.041181400418281555 -0.12645700573921204
v -0.1686529964208603 0.03854760155081749 -0.12387099862098694
v -0.16842299699783325 0.02428779937326908 -0.12881800532341003
v -0.16842299699783325 0.02428779937326908 -0.12881800532341003
v -0.16866900026798248 0.010027900338172913 -0.12387099862098694
v -0.17050699889659882 0.02428779937326908 -0.1323850005865097
v -0.16866900026798248 0.010027900338172913 -0.12387099862098694
v -0.1705790013074875 0.007394169922918081 -0.12645700573921204
v -0.17050699889659882 0.02428779937326908 -0.1323850005865097
v -0.17050699889659882 0.02428779937326908 -0.1323850005865097
v -0.1705790013074875 0.007394169922918081 -0.12645700573921204
v -0.17429900169372559 0.02428779937326908 -0.1340239942073822
v -0.1705790013074875 0.007394169922918081 -0.12645700573921204
v -0.17429900169372559 0.006071929819881916 -0.12775500118732452
v -0.17429900169372559 0.02428779937326908 -0.1340239942073822
v -0.17429900169372559 0.02428779937326908 -0.08387330174446106
v -0.17429900169372559 0.006071940064430237 -0.09014210104942322
v -0.17050699889659882 0.02428779937326908 -0.08551230281591415
v -0.17429900169372559 0.006071940064430237 -0.09014210104942322
v -0.17057499289512634 0.007394109852612019 -0.09144079685211182
v -0.17050699889659882 0.02428779937326908 -0.08551230281591415
v -0.17050699889659882 0.02428779937326908 -0.08551230281591415
v -0.17057499289512634 0.007394109852612019 -0.09144079685211182
v -0.16842299699783325 0.02428779937326908 -0.08907929807901382
v -0.17057499289512634 0.007394109852612019 -0.09144079685211182
v -0.1686529964208603 0.010027900338172913 -0.09402629733085632
v -0.16842299699783325 0.02428779937326908 -0.08907929807901382
v -0.16842299699783325 0.02428779937326908 -0.08907929807901382
v -0.16866900026798248 0.03854760155081749 -0.09402629733085632
v -0.17050699889659882 0.02428779937326908 -0.08551230281591415
v -0.16866900026798248 0.03854760155081749 -0.09402629733085632
v -0.1705790013074875 0.041181400418281555 -0.09144090116024017
v -0.17050699889659882 0.02428779937326908 -0.08551230281591415
v -0.17050699889659882 0.02428779937326908 -0.08551230281591415
v -0.1705790013074875 0.041181400418281555 -0.09144090116024017
v -0.17429900169372559 0.02428779937326908 -0.08387330174446106
v -0.1705790013074875 0.041181400418281555 -0.09144090116024017
v -0.17429900169372559 0.04250359907746315 -0.09014210104942322
v -0.17429900169372559 0.02428779937326908 -0.08387330174446106
v -0.21753500401973724 0.00516870990395546 -0.10894899815320969
v -0.21728399395942688 0.010027900338172913 -0.12387099862098694
v -0.21543599665164948 0.001614929991774261 -0.10894899815320969
v -0.21728399395942688 0.010027900338172913 -0.12387099862098694
v -0.21536199748516083 0.007394109852612019 -0.12645700573921204
v -0.21543599665164948 0.001614929991774261 -0.10894899815320969
v -0.21543599665164948 0.001614929991774261 -0.10894899815320969
v -0.21536199748516083 0.007394109852612019 -0.12645700573921204
v -0.2116370052099228 -4.7622998877727696e-9 -0.10894899815320969
v -0.21536199748516083 0.007394109852612019 -0.12645700573921204
v -0.2116370052099228 0.006071929819881916 -0.12775500118732452
v -0.2116370052099228 -4.7622998877727696e-9 -0.10894899815320969
v -0.2116370052099228 -4.7622998877727696e-9 -0.10894899815320969
v -0.2116370052099228 0.006071940064430237 -0.09014210104942322
v -0.21543599665164948 0.001614929991774261 -0.10894899815320969
v -0.2116370052099228 0.006071940064430237 -0.09014210104942322
v -0.21535800397396088 0.007394169922918081 -0.09144090116024017
v -0.21543599665164948 0.001614929991774261 -0.10894899815320969
v -0.21543599665164948 0.001614929991774261 -0.10894899815320969
v -0.21535800397396088 0.007394169922918081 -0.09144090116024017
v -0.21753500401973724 0.00516870990395546 -0.10894899815320969
v -0.21535800397396088 0.007394169922918081 -0.09144090116024017
v -0.21726800501346588 0.010027900338172913 -0.09402629733085632
v -0.21753500401973724 0.00516870990395546 -0.10894899815320969
v -0.21753500401973724 0.04340679943561554 -0.10894899815320969
v -0.21728399395942688 0.03854760155081749 -0.09402629733085632
v -0.21543599665164948 0.04696059972047806 -0.10894899815320969
v -0.21728399395942688 0.03854760155081749 -0.09402629733085632
v -0.21536199748516083 0.041181400418281555 -0.09144079685211182
v -0.21543599665164948 0.04696059972047806 -0.10894899815320969
v -0.21543599665164948 0.04696059972047806 -0.10894899815320969
v -0.21536199748516083 0.041181400418281555 -0.09144079685211182
v -0.2116370052099228 0.048575498163700104 -0.10894899815320969
v -0.21536199748516083 0.041181400418281555 -0.09144079685211182
v -0.2116370052099228 0.04250359907746315 -0.09014210104942322
v -0.2116370052099228 0.048575498163700104 -0.10894899815320969
v -0.2116370052099228 0.048575498163700104 -0.10894899815320969
v -0.2116370052099228 0.04250359907746315 -0.12775500118732452
v -0.21543599665164948 0.04696059972047806 -0.10894899815320969
v -0.2116370052099228 0.04250359907746315 -0.12775500118732452
v -0.21535800397396088 0.0411812998354435 -0.12645700573921204
v -0.21543599665164948 0.04696059972047806 -0.10894899815320969
v -0.21543599665164948 0.04696059972047806 -0.10894899815320969
v -0.21535800397396088 0.0411812998354435 -0.12645700573921204
v -0.21753500401973724 0.04340679943561554 -0.10894899815320969
v -0.21535800397396088 0.0411812998354435 -0.12645700573921204
v -0.21726800501346588 0.03854760155081749 -0.12387099862098694
v -0.21753500401973724 0.04340679943561554 -0.10894899815320969
v -0.21751299500465393 0.02428779937326908 -0.12881800532341003
v -0.21726800501346588 0.03854760155081749 -0.12387099862098694
v -0.21542899310588837 0.02428779937326908 -0.1323850005865097
v -0.21726800501346588 0.03854760155081749 -0.12387099862098694
v -0.21535800397396088 0.0411812998354435 -0.12645700573921204
v -0.21542899310588837 0.02428779937326908 -0.1323850005865097
v -0.21542899310588837 0.02428779937326908 -0.1323850005865097
v -0.21535800397396088 0.0411812998354435 -0.12645700573921204
v -0.2116370052099228 0.02428779937326908 -0.1340239942073822
v -0.21535800397396088 0.0411812998354435 -0.12645700573921204
v -0.2116370052099228 0.04250359907746315 -0.12775500118732452
v -0.2116370052099228 0.02428779937326908 -0.1340239942073822
v -0.2116370052099228 0.02428779937326908 -0.1340239942073822
v -0.2116370052099228 0.006071929819881916 -0.12775500118732452
v -0.21542899310588837 0.02428779937326908 -0.1323850005865097
v -0.2116370052099228 0.006071929819881916 -0.12775500118732452
v -0.21536199748516083 0.007394109852612019 -0.12645700573921204
v -0.21542899310588837 0.02428779937326908 -0.1323850005865097
v -0.21542899310588837 0.02428779937326908 -0.1323850005865097
v -0.21536199748516083 0.007394109852612019 -0.12645700573921204
v -0.21751299500465393 0.02428779937326908 -0.12881800532341003
v -0.21536199748516083 0.007394109852612019 -0.12645700573921204
v -0.21728399395942688 0.010027900338172913 -0.12387099862098694
v -0.21751299500465393 0.02428779937326908 -0.12881800532341003
v -0.21751299500465393 0.02428779937326908 -0.08907929807901382
v -0.21726800501346588 0.010027900338172913 -0.09402629733085632
v -0.21542899310588837 0.02428779937326908 -0.08551230281591415
v -0.21726800501346588 0.010027900338172913 -0.09402629733085632
v -0.21535800397396088 0.007394169922918081 -0.09144090116024017
v -0.21542899310588837 0.02428779937326908 -0.08551230281591415
v -0.21542899310588837 0.02428779937326908 -0.08551230281591415
v -0.21535800397396088 0.007394169922918081 -0.09144090116024017
v -0.2116370052099228 0.02428779937326908 -0.08387330174446106
v -0.21535800397396088 0.007394169922918081 -0.09144090116024017
v -0.2116370052099228 0.006071940064430237 -0.09014210104942322
v -0.2116370052099228 0.02428779937326908 -0.08387330174446106
v -0.2116370052099228 0.02428779937326908 -0.08387330174446106
v -0.2116370052099228 0.04250359907746315 -0.09014210104942322
v -0.21542899310588837 0.02428779937326908 -0.08551230281591415
v -0.2116370052099228 0.04250359907746315 -0.09014210104942322
v -0.21536199748516083 0.041181400418281555 -0.09144079685211182
v -0.21542899310588837 0.02428779937326908 -0.08551230281591415
v -0.21542899310588837 0.02428779937326908 -0.08551230281591415
v -0.21536199748516083 0.041181400418281555 -0.09144079685211182
v -0.21751299500465393 0.02428779937326908 -0.08907929807901382
v -0.21536199748516083 0.041181400418281555 -0.09144079685211182
v -0.21728399395942688 0.03854760155081749 -0.09402629733085632
v -0.21751299500465393 0.02428779937326908 -0.08907929807901382
v -0.2116370052099228 0.02428779937326908 -0.08387330174446106
v -0.2116370052099228 0.006071940064430237 -0.09014210104942322
v -0.17429900169372559 0.02428779937326908 -0.08387330174446106
v -0.2116370052099228 0.006071940064430237 -0.09014210104942322
v -0.17429900169372559 0.006071940064430237 -0.09014210104942322
v -0.17429900169372559 0.02428779937326908 -0.08387330174446106
vn 0 1 0
vn 0 0.7138495474383655 -0.7002990958312318
vn 0 -1 0
vn 0 -0.7138495474383655 -0.7002990958312318
vn -0.9505526600120046 -0.310563400386126 0.00012200290699789609
vn -0.9460944839866361 -0.2310910019905441 0.22694090898087785
vn -1 0 0
vn -0.9503723841316366 -0.00012200338558316565 0.3111146357777516
vn 1 0 0
vn 0.9503723841316366 0.00012200338558316565 0.3111146357777516
vn 0.9505526600120046 -0.310563400386126 -0.00012200290699789609
vn 0.9460054897143595 -0.2312747496535934 0.22712464331939508
vn 0.9503723841316366 -0.00012200338558316565 -0.3111146357777516
vn 0.9505526600120046 0.310563400386126 0.00012200290699789609
vn 0.9460054897143595 0.2312747496535934 -0.22712464331939508
vn -0.9460054897143595 -0.2312747496535934 -0.22712464331939508
vn -0.9503723841316366 0.00012200338558316565 -0.3111146357777516
vn -0.9505526600120046 0.310563400386126 -0.00012200290699789609
vn -0.9460944839866361 0.2310910019905441 -0.22694090898087785
vn -0.9460054897143595 0.2312747496535934 0.22712464331939508
vn 0 0 -1
vn 0.9460944839866361 0.2310910019905441 0.22694090898087785
vn 0 0 1
vn 0 0.7138495474383655 0.7002990958312318
vn 0 -0.7138495474383655 0.7002990958312318
vn 0.9460944839866361 -0.2310910019905441 -0.22694090898087785
vn 0.40809730261169613 -0.912938438012694 0
vn 0.4293798492381897 -0.6446642762302244 -0.6324878781611157
vn 0.6438096038062248 -0.7651857245700597 -0.0000310010408171279
vn 0.6461268421197327 -0.5448637287900915 -0.5344563788947978
vn 0.6457932687257801 -0.5450479652178833 0.5346716466022088
vn 0.4291632427059802 -0.6447524199177024 0.63254504038871
vn 0.40809730261169613 0.912938438012694 0
vn 0.4293798492381897 0.6446642762302244 0.6324878781611157
vn 0.6438096038062248 0.7651857245700597 0.0000310010408171279
vn 0.6461268421197327 0.5448637287900915 0.5344563788947978
vn 0.6457932687257801 0.5450479652178833 -0.5346716466022088
vn 0.4291632427059802 0.6447524199177024 -0.63254504038871
vn 0.41203349141450846 0 -0.9111687011485688
vn 0.6451183256128321 -0.00003100088032917371 -0.7640826820426184
vn 0.41203349141450846 0 0.9111687011485688
vn 0.6451183256128321 0.00003100088032917371 0.7640826820426184
vn -0.6438096038062248 -0.7651857245700597 0.0000310010408171279
vn -0.6457932687257801 -0.5450479652178833 -0.5346716466022088
vn -0.40809730261169613 -0.912938438012694 0
vn -0.4291632427059802 -0.6447524199177024 -0.63254504038871
vn -0.4293798492381897 -0.6446642762302244 0.6324878781611157
vn -0.6461268421197327 -0.5448637287900915 0.5344563788947978
vn -0.6438096038062248 0.7651857245700597 -0.0000310010408171279
vn -0.6457932687257801 0.5450479652178833 0.5346716466022088
vn -0.40809730261169613 0.912938438012694 0
vn -0.4291632427059802 0.6447524199177024 0.63254504038871
vn -0.4293798492381897 0.6446642762302244 -0.6324878781611157
vn -0.6461268421197327 0.5448637287900915 -0.5344563788947978
vn -0.6451183256128321 0.00003100088032917371 -0.7640826820426184
vn -0.41203349141450846 0 -0.9111687011485688
vn -0.6451183256128321 -0.00003100088032917371 0.7640826820426184
vn -0.41203349141450846 0 0.9111687011485688
usemtl material_0_2
f 1//1 2//1 3//2
f 4//1 5//2 6//2
f 7//3 8//4 9//3
f 10//4 11//4 12//3
f 13//5 14//6 15//7
f 16//6 17//8 18//7
f 19//9 20//10 21//11
f 22//10 23//12 24//11
f 25//9 26//13 27//14
f 28//13 29//15 30//14
f 31//5 32//7 33//16
f 34//7 35//17 36//16
f 37//18 38//19 39//7
f 40//19 41//17 42//7
f 43//18 44//7 45//20
f 46//7 47//8 48//20
f 49//21 50//2 51//21
f 52//2 53//2 54//21
f 55//14 56//22 57//9
f 58//22 59//10 60//9
f 61//23 62//23 63//24
f 64//23 65//24 66//24
f 67//21 68//4 69//21
f 70//4 71//4 72//21
f 73//3 74//3 75//25
f 76//3 77//25 78//25
f 79//11 80//26 81//9
f 82//26 83//13 84//9
f 85//1 86//24 87//1
f 88//24 89//24 90//1
f 91//27 92//28 93//29
f 94//28 95//30 96//29
f 97//29 98//30 99//11
f 100//30 101//26 102//11
f 103//11 104//12 105//29
f 106//12 107//31 108//29
f 109//29 110//31 111//27
f 112//31 113//32 114//27
f 115//33 116//34 117//35
f 118//34 119//36 120//35
f 121//35 122//36 123//14
f 124//36 125//22 126//14
f 127//14 128//15 129//35
f 130//15 131//37 132//35
f 133//35 134//37 135//33
f 136//37 137//38 138//33
f 139//39 140//38 141//40
f 142//38 143//37 144//40
f 145//40 146//37 147//13
f 148//37 149//15 150//13
f 151//13 152//26 153//40
f 154//26 155//30 156//40
f 157//40 158//30 159//39
f 160//30 161//28 162//39
f 163//41 164//32 165//42
f 166//32 167//31 168//42
f 169//42 170//31 171//10
f 172//31 173//12 174//10
f 175//10 176//22 177//42
f 178//22 179//36 180//42
f 181//42 182//36 183//41
f 184//36 185//34 186//41
f 187//5 188//16 189//43
f 190//16 191//44 192//43
f 193//43 194//44 195//45
f 196//44 197//46 198//45
f 199//45 200//47 201//43
f 202//47 203//48 204//43
f 205//43 206//48 207//5
f 208//48 209//6 210//5
f 211//18 212//20 213//49
f 214//20 215//50 216//49
f 217//49 218//50 219//51
f 220//50 221//52 222//51
f 223//51 224//53 225//49
f 226//53 227//54 228//49
f 229//49 230//54 231//18
f 232//54 233//19 234//18
f 235//17 236//19 237//55
f 238//19 239//54 240//55
f 241//55 242//54 243//56
f 244//54 245//53 246//56
f 247//56 248//46 249//55
f 250//46 251//44 252//55
f 253//55 254//44 255//17
f 256//44 257//16 258//17
f 259//8 260//6 261//57
f 262//6 263//48 264//57
f 265//57 266//48 267//58
f 268//48 269//47 270//58
f 271//58 272//52 273//57
f 274//52 275//50 276//57
f 277//57 278//50 279//8
f 280//50 281//20 282//8
f 283//23 284//25 285//23
f 286//25 287//25 288//23
