# SSTK version 0.7.3
# 8
mtllib 8.mtl
o part25:cabinet door 3
v -1.9984999895095825 2.1684999465942383 0.20999999344348907
v -0.8118389844894409 2.1684999465942383 0.20999999344348907
v -1.9984999895095825 0.03150000050663948 0.20999999344348907
v -0.8118389844894409 2.1684999465942383 0.20999999344348907
v -0.8118389844894409 0.03150000050663948 0.20999999344348907
v -1.9984999895095825 0.03150000050663948 0.20999999344348907
v -0.8118389844894409 2.1684999465942383 0.23000000417232513
v -1.9984999895095825 2.1684999465942383 0.23000000417232513
v -0.8118389844894409 0.03150000050663948 0.23000000417232513
v -1.9984999895095825 2.1684999465942383 0.23000000417232513
v -1.9984999895095825 0.03150000050663948 0.23000000417232513
v -0.8118389844894409 0.03150000050663948 0.23000000417232513
v -1.9984999895095825 0.03150000050663948 0.23000000417232513
v -1.999559998512268 0.03150000050663948 0.2295610010623932
v -1.9984999895095825 0.03043930046260357 0.2295610010623932
v -1.999559998512268 0.03150000050663948 0.2295610010623932
v -1.9993699789047241 0.030633900314569473 0.2293660044670105
v -1.9984999895095825 0.03043930046260357 0.2295610010623932
v -1.9984999895095825 0.03150000050663948 0.20999999344348907
v -1.9984999895095825 0.03043930046260357 0.21043899655342102
v -1.999559998512268 0.03150000050663948 0.21043899655342102
v -1.9984999895095825 0.03043930046260357 0.21043899655342102
v -1.9993699789047241 0.030633900314569473 0.2106339931488037
v -1.999559998512268 0.03150000050663948 0.21043899655342102
v -0.8118389844894409 0.03150000050663948 0.20999999344348907
v -0.8107789754867554 0.03150000050663948 0.21043899655342102
v -0.8118389844894409 0.03043930046260357 0.21043899655342102
v -0.8107789754867554 0.03150000050663948 0.21043899655342102
v -0.8109729886054993 0.030633900314569473 0.2106339931488037
v -0.8118389844894409 0.03043930046260357 0.21043899655342102
v -0.8118389844894409 0.03150000050663948 0.23000000417232513
v -0.8118389844894409 0.03043930046260357 0.2295610010623932
v -0.8107789754867554 0.03150000050663948 0.2295610010623932
v -0.8118389844894409 0.03043930046260357 0.2295610010623932
v -0.8109729886054993 0.030633900314569473 0.2293660044670105
v -0.8107789754867554 0.03150000050663948 0.2295610010623932
v -1.9984999895095825 2.1684999465942383 0.23000000417232513
v -1.9984999895095825 2.169559955596924 0.2295610010623932
v -1.999559998512268 2.1684999465942383 0.2295610010623932
v -1.9984999895095825 2.169559955596924 0.2295610010623932
v -1.9993699789047241 2.16936993598938 0.2293660044670105
v -1.999559998512268 2.1684999465942383 0.2295610010623932
v -1.9984999895095825 2.1684999465942383 0.20999999344348907
v -1.999559998512268 2.1684999465942383 0.21043899655342102
v -1.9984999895095825 2.169559955596924 0.21043899655342102
v -1.999559998512268 2.1684999465942383 0.21043899655342102
v -1.9993699789047241 2.16936993598938 0.2106339931488037
v -1.9984999895095825 2.169559955596924 0.21043899655342102
v -0.8118389844894409 2.1684999465942383 0.20999999344348907
v -0.8118389844894409 2.169559955596924 0.21043899655342102
v -0.8107789754867554 2.1684999465942383 0.21043899655342102
v -0.8118389844894409 2.169559955596924 0.21043899655342102
v -0.8109729886054993 2.16936993598938 0.2106339931488037
v -0.8107789754867554 2.1684999465942383 0.21043899655342102
v -0.8118389844894409 2.1684999465942383 0.23000000417232513
v -0.8107789754867554 2.1684999465942383 0.2295610010623932
v -0.8118389844894409 2.169559955596924 0.2295610010623932
v -0.8107789754867554 2.1684999465942383 0.2295610010623932
v -0.8109729886054993 2.16936993598938 0.2293660044670105
v -0.8118389844894409 2.169559955596924 0.2295610010623932
v -1.9984999895095825 0.03150000050663948 0.23000000417232513
v -1.9984999895095825 2.1684999465942383 0.23000000417232513
v -1.999559998512268 0.03150000050663948 0.2295610010623932
v -1.9984999895095825 2.1684999465942383 0.23000000417232513
v -1.999559998512268 2.1684999465942383 0.2295610010623932
v -1.999559998512268 0.03150000050663948 0.2295610010623932
v -1.9984999895095825 2.1684999465942383 0.20999999344348907
v -1.9984999895095825 0.03150000050663948 0.20999999344348907
v -1.999559998512268 2.1684999465942383 0.21043899655342102
v -1.9984999895095825 0.03150000050663948 0.20999999344348907
v -1.999559998512268 0.03150000050663948 0.21043899655342102
v -1.999559998512268 2.1684999465942383 0.21043899655342102
v -1.9984999895095825 2.169559955596924 0.21043899655342102
v -0.8118389844894409 2.169559955596924 0.21043899655342102
v -1.9984999895095825 2.1684999465942383 0.20999999344348907
v -0.8118389844894409 2.169559955596924 0.21043899655342102
v -0.8118389844894409 2.1684999465942383 0.20999999344348907
v -1.9984999895095825 2.1684999465942383 0.20999999344348907
v -0.8107789754867554 2.1684999465942383 0.21043899655342102
v -0.8107789754867554 0.03150000050663948 0.21043899655342102
v -0.8118389844894409 2.1684999465942383 0.20999999344348907
v -0.8107789754867554 0.03150000050663948 0.21043899655342102
v -0.8118389844894409 0.03150000050663948 0.20999999344348907
v -0.8118389844894409 2.1684999465942383 0.20999999344348907
v -0.8118389844894409 0.03043930046260357 0.21043899655342102
v -1.9984999895095825 0.03043930046260357 0.21043899655342102
v -0.8118389844894409 0.03150000050663948 0.20999999344348907
v -1.9984999895095825 0.03043930046260357 0.21043899655342102
v -1.9984999895095825 0.03150000050663948 0.20999999344348907
v -0.8118389844894409 0.03150000050663948 0.20999999344348907
v -0.8118389844894409 2.1684999465942383 0.23000000417232513
v -0.8118389844894409 0.03150000050663948 0.23000000417232513
v -0.8107789754867554 2.1684999465942383 0.2295610010623932
v -0.8118389844894409 0.03150000050663948 0.23000000417232513
v -0.8107789754867554 0.03150000050663948 0.2295610010623932
v -0.8107789754867554 2.1684999465942383 0.2295610010623932
v -0.8118389844894409 2.169559955596924 0.2295610010623932
v -1.9984999895095825 2.169559955596924 0.2295610010623932
v -0.8118389844894409 2.1684999465942383 0.23000000417232513
v -1.9984999895095825 2.169559955596924 0.2295610010623932
v -1.9984999895095825 2.1684999465942383 0.23000000417232513
v -0.8118389844894409 2.1684999465942383 0.23000000417232513
v -1.9984999895095825 0.03043930046260357 0.2295610010623932
v -0.8118389844894409 0.03043930046260357 0.2295610010623932
v -1.9984999895095825 0.03150000050663948 0.23000000417232513
v -0.8118389844894409 0.03043930046260357 0.2295610010623932
v -0.8118389844894409 0.03150000050663948 0.23000000417232513
v -1.9984999895095825 0.03150000050663948 0.23000000417232513
vn 0 0 -1
vn 0 0 1
vn -0.2401543265991401 -0.2401243305615773 0.9405669594920226
vn -0.6964848095922802 -0.17255740002437 0.6965147907288364
vn -0.1725237160207738 -0.6965039724977824 0.6965039724977824
vn -0.5773702961769479 -0.577340255435451 0.577340255435451
vn -0.2401543265991401 -0.2401243305615773 -0.9405669594920226
vn -0.1725237160207738 -0.6965039724977824 -0.6965039724977824
vn -0.6964848095922802 -0.17255740002437 -0.6965147907288364
vn -0.5773602627285783 -0.5773302815927589 -0.5773602627285783
vn 0.24012605477150675 -0.24012605477150675 -0.940573737481407
vn 0.6965039724977824 -0.1725237160207738 -0.6965039724977824
vn 0.1725237160207738 -0.6965039724977824 -0.6965039724977824
vn 0.577340255435451 -0.577340255435451 -0.5773702961769479
vn 0.24012605477150675 -0.24012605477150675 0.940573737481407
vn 0.17255740002437 -0.6965147907288364 0.6964848095922802
vn 0.696500247024498 -0.17255379390099357 0.696500247024498
vn 0.577340255435451 -0.577340255435451 0.5773702961769479
vn -0.2401543265991401 0.2401243305615773 0.9405669594920226
vn -0.17249448326361863 0.6965380797600083 0.6964771042093613
vn -0.6964885044534312 0.17252732932556789 0.6965185451946055
vn -0.5773299432898849 0.5773909188425089 0.5773299432898849
vn -0.2401543265991401 0.2401243305615773 -0.9405669594920226
vn -0.6964885044534312 0.17252732932556789 -0.6965185451946055
vn -0.17249448326361863 0.6965380797600083 -0.6964771042093613
vn -0.5773299432898849 0.5773909188425089 -0.5773299432898849
vn 0.24012605477150675 0.24012605477150675 -0.940573737481407
vn 0.17252360019900648 0.6965345037513647 -0.6964734685960502
vn 0.6965039724977824 0.1725237160207738 -0.6965039724977824
vn 0.5773092599274966 0.5774012895004798 -0.5773402543432681
vn 0.24012605477150675 0.24012605477150675 0.940573737481407
vn 0.6965039724977824 0.1725237160207738 0.6965039724977824
vn 0.17252360019900648 0.6965345037513647 0.6964734685960502
vn 0.5773299432898849 0.5773909188425089 0.5773299432898849
vt 9.702659606933594 -7.869080066680908
vt 4.964280128479004 -7.86929988861084
vt 9.703060150146484 -16.40220069885254
vt 4.964680194854736 -16.40239906311035
vt 14.526900291442871 -7.868289947509766
vt 9.788000106811523 -7.868569850921631
vt 14.527400016784668 -16.402299880981445
vt 9.788519859313965 -16.402599334716797
vt 9.784299850463867 -16.40250015258789
vt 9.788189888000488 -16.40730094909668
vt 9.784219741821289 -16.406400680541992
vt 9.703470230102539 -16.40690040588379
vt 9.707469940185547 -16.402099609375
vt 9.707579612731934 -16.405899047851562
vt 4.9600300788879395 -16.402599334716797
vt 4.96451997756958 -16.40719985961914
vt 4.960669994354248 -16.406400680541992
vt 14.527799606323242 -16.406999588012695
vt 14.531800270080566 -16.402299880981445
vt 14.531800270080566 -16.4060001373291
vt 9.787590026855469 -7.8638200759887695
vt 9.783539772033691 -7.868730068206787
vt 9.783379554748535 -7.864739894866943
vt 9.706809997558594 -7.8691301345825195
vt 9.70300006866455 -7.864459991455078
vt 9.706899642944336 -7.8654398918151855
vt 4.964139938354492 -7.864830017089844
vt 4.9600300788879395 -7.869140148162842
vt 4.96058988571167 -7.865580081939697
vt 14.531100273132324 -7.868259906768799
vt 14.527199745178223 -7.863530158996582
vt 14.531100273132324 -7.864630222320557
usemtl material_0_2
f 1/1/1 2/2/1 3/3/1
f 4/2/1 5/4/1 6/3/1
f 7/5/2 8/6/2 9/7/2
f 10/6/2 11/8/2 12/7/2
f 13/8/3 14/9/4 15/10/5
f 16/9/4 17/11/6 18/10/5
f 19/3/7 20/12/8 21/13/9
f 22/12/8 23/14/10 24/13/9
f 25/4/11 26/15/12 27/16/13
f 28/15/12 29/17/14 30/16/13
f 31/7/15 32/18/16 33/19/17
f 34/18/16 35/20/18 36/19/17
f 37/6/19 38/21/20 39/22/21
f 40/21/20 41/23/22 42/22/21
f 43/1/23 44/24/24 45/25/25
f 46/24/24 47/26/26 48/25/25
f 49/2/27 50/27/28 51/28/29
f 52/27/28 53/29/30 54/28/29
f 55/5/31 56/30/32 57/31/33
f 58/30/32 59/32/34 60/31/33
f 61/8/3 62/6/19 63/9/4
f 64/6/19 65/22/21 66/9/4
f 67/1/23 68/3/7 69/24/24
f 70/3/7 71/13/9 72/24/24
f 73/25/25 74/27/28 75/1/23
f 76/27/28 77/2/27 78/1/23
f 79/28/29 80/15/12 81/2/27
f 82/15/12 83/4/11 84/2/27
f 85/16/13 86/12/8 87/4/11
f 88/12/8 89/3/7 90/4/11
f 91/5/31 92/7/15 93/30/32
f 94/7/15 95/19/17 96/30/32
f 97/31/33 98/21/20 99/5/31
f 100/21/20 101/6/19 102/5/31
f 103/10/5 104/18/16 105/8/3
f 106/18/16 107/7/15 108/8/3
