solid AssimpScene
 facet normal 0 0 1
  outer loop
  vertex -0.09870149940252304 0.6887580156326294 0.2853040099143982
  vertex -0.09958790242671967 0.694661021232605 0.2853040099143982
  vertex -0.1166749969124794 0.6887580156326294 0.2853040099143982
  endloop
 endfacet

 facet normal 0 0 1
  outer loop
  vertex -0.133762001991272 0.694661021232605 0.2853040099143982
  vertex -0.1346489936113358 0.6887580156326294 0.2853040099143982
  vertex -0.1166749969124794 0.6887580156326294 0.2853040099143982
  endloop
 endfacet

 facet normal 0 0 1
  outer loop
  vertex -0.1222070008516312 0.6706510186195374 0.2853040099143982
  vertex -0.1166749969124794 0.6697270274162292 0.2853040099143982
  vertex -0.1166749969124794 0.6887580156326294 0.2853040099143982
  endloop
 endfacet

 facet normal 0 0 1
  outer loop
  vertex -0.09958790242671967 0.6828550100326538 0.2853040099143982
  vertex -0.09870149940252304 0.6887580156326294 0.2853040099143982
  vertex -0.1166749969124794 0.6887580156326294 0.2853040099143982
  endloop
 endfacet

 facet normal 0 0 1
  outer loop
  vertex -0.1222070008516312 0.7068650126457214 0.2853040099143982
  vertex -0.1166749969124794 0.6887580156326294 0.2853040099143982
  vertex -0.1166749969124794 0.7077890038490295 0.2853040099143982
  endloop
 endfacet

 facet normal 0 0 1
  outer loop
  vertex -0.131194993853569 0.6999750137329102 0.2853040099143982
  vertex -0.133762001991272 0.694661021232605 0.2853040099143982
  vertex -0.1166749969124794 0.6887580156326294 0.2853040099143982
  endloop
 endfacet

 facet normal 0 0 1
  outer loop
  vertex -0.1272089928388596 0.6733390092849731 0.2853040099143982
  vertex -0.1222070008516312 0.6706510186195374 0.2853040099143982
  vertex -0.1166749969124794 0.6887580156326294 0.2853040099143982
  endloop
 endfacet

 facet normal 0 0 1
  outer loop
  vertex -0.1021559983491898 0.6775410175323486 0.2853040099143982
  vertex -0.09958790242671967 0.6828550100326538 0.2853040099143982
  vertex -0.1166749969124794 0.6887580156326294 0.2853040099143982
  endloop
 endfacet

 facet normal 0 0 1
  outer loop
  vertex -0.1061410009860992 0.7041770219802856 0.2853040099143982
  vertex -0.1111439988017082 0.7068650126457214 0.2853040099143982
  vertex -0.1166749969124794 0.6887580156326294 0.2853040099143982
  endloop
 endfacet

 facet normal 0 0 1
  outer loop
  vertex -0.1272089928388596 0.7041770219802856 0.2853040099143982
  vertex -0.131194993853569 0.6999750137329102 0.2853040099143982
  vertex -0.1166749969124794 0.6887580156326294 0.2853040099143982
  endloop
 endfacet

 facet normal 0 0 1
  outer loop
  vertex -0.131194993853569 0.6775410175323486 0.2853040099143982
  vertex -0.1272089928388596 0.6733390092849731 0.2853040099143982
  vertex -0.1166749969124794 0.6887580156326294 0.2853040099143982
  endloop
 endfacet

 facet normal 0 0 1
  outer loop
  vertex -0.1061410009860992 0.6733390092849731 0.2853040099143982
  vertex -0.1021559983491898 0.6775410175323486 0.2853040099143982
  vertex -0.1166749969124794 0.6887580156326294 0.2853040099143982
  endloop
 endfacet

 facet normal 0 0 1
  outer loop
  vertex -0.1021559983491898 0.6999750137329102 0.2853040099143982
  vertex -0.1061410009860992 0.7041770219802856 0.2853040099143982
  vertex -0.1166749969124794 0.6887580156326294 0.2853040099143982
  endloop
 endfacet

 facet normal 0 0 1
  outer loop
  vertex -0.1222070008516312 0.7068650126457214 0.2853040099143982
  vertex -0.1272089928388596 0.7041770219802856 0.2853040099143982
  vertex -0.1166749969124794 0.6887580156326294 0.2853040099143982
  endloop
 endfacet

 facet normal 0 0 1
  outer loop
  vertex -0.133762001991272 0.6828550100326538 0.2853040099143982
  vertex -0.131194993853569 0.6775410175323486 0.2853040099143982
  vertex -0.1166749969124794 0.6887580156326294 0.2853040099143982
  endloop
 endfacet

 facet normal 0 0 1
  outer loop
  vertex -0.1111439988017082 0.6706510186195374 0.2853040099143982
  vertex -0.1061410009860992 0.6733390092849731 0.2853040099143982
  vertex -0.1166749969124794 0.6887580156326294 0.2853040099143982
  endloop
 endfacet

 facet normal 0 0 1
  outer loop
  vertex -0.09958790242671967 0.694661021232605 0.2853040099143982
  vertex -0.1021559983491898 0.6999750137329102 0.2853040099143982
  vertex -0.1166749969124794 0.6887580156326294 0.2853040099143982
  endloop
 endfacet

 facet normal 0.5185146331787109 0.8550688028335571 0
  outer loop
  vertex -0.1052189990878105 0.7053850293159485 0.2716090083122253
  vertex -0.1106519997119904 0.7083039879798889 0.2716090083122253
  vertex -0.1052189990878105 0.7053850293159485 0.2838029861450195
  endloop
 endfacet

 facet normal 0.4227941334247589 0.9062257409095764 0
  outer loop
  vertex -0.1106519997119904 0.7083039879798889 0.2716090083122253
  vertex -0.1106519997119904 0.7083039879798889 0.2838029861450195
  vertex -0.1052189990878105 0.7053850293159485 0.2838029861450195
  endloop
 endfacet

 facet normal 0 0 1
  outer loop
  vertex -0.1346489936113358 0.6887580156326294 0.2853040099143982
  vertex -0.133762001991272 0.6828550100326538 0.2853040099143982
  vertex -0.1166749969124794 0.6887580156326294 0.2853040099143982
  endloop
 endfacet

 facet normal -0.8760272860527039 0.4822614789009094 0
  outer loop
  vertex -0.1324429959058762 0.700838029384613 0.2716090083122253
  vertex -0.1352120041847229 0.6951090097427368 0.2716090083122253
  vertex -0.1324429959058762 0.700838029384613 0.2838029861450195
  endloop
 endfacet

 facet normal -0.9207130074501038 0.3902404010295868 0
  outer loop
  vertex -0.1352120041847229 0.6951090097427368 0.2716090083122253
  vertex -0.1352120041847229 0.6951090097427368 0.2838029861450195
  vertex -0.1324429959058762 0.700838029384613 0.2838029861450195
  endloop
 endfacet

 facet normal -0.5185472965240479 -0.8550490140914917 0
  outer loop
  vertex -0.1281310021877289 0.6721320152282715 0.2716090083122253
  vertex -0.122698001563549 0.6692119836807251 0.2716090083122253
  vertex -0.1281310021877289 0.6721320152282715 0.2838029861450195
  endloop
 endfacet

 facet normal -0.422842264175415 -0.9062033295631409 0
  outer loop
  vertex -0.122698001563549 0.6692119836807251 0.2716090083122253
  vertex -0.122698001563549 0.6692119836807251 0.2838029861450195
  vertex -0.1281310021877289 0.6721320152282715 0.2838029861450195
  endloop
 endfacet

 facet normal 0.8760318756103516 -0.4822531640529633 0
  outer loop
  vertex -0.1009069979190826 0.6766780018806458 0.2716090083122253
  vertex -0.09813830256462097 0.682407021522522 0.2716090083122253
  vertex -0.1009069979190826 0.6766780018806458 0.2838029861450195
  endloop
 endfacet

 facet normal 0.9207205176353455 -0.3902227282524109 0
  outer loop
  vertex -0.09813830256462097 0.682407021522522 0.2716090083122253
  vertex -0.09813830256462097 0.682407021522522 0.2838029861450195
  vertex -0.1009069979190826 0.6766780018806458 0.2838029861450195
  endloop
 endfacet

 facet normal -0.2181625813245773 0.9759124517440796 0
  outer loop
  vertex -0.122698001563549 0.7083039879798889 0.2716090083122253
  vertex -0.122698001563549 0.7083039879798889 0.2838029861450195
  vertex -0.1166749969124794 0.709309995174408 0.2716090083122253
  endloop
 endfacet

 facet normal -0.1090812906622887 0.9940328001976013 0
  outer loop
  vertex -0.122698001563549 0.7083039879798889 0.2838029861450195
  vertex -0.1166749969124794 0.709309995174408 0.2838029861450195
  vertex -0.1166749969124794 0.709309995174408 0.2716090083122253
  endloop
 endfacet

 facet normal -0.6865129470825195 0.727117657661438 0
  outer loop
  vertex -0.1281310021877289 0.7053850293159485 0.2716090083122253
  vertex -0.1324429959058762 0.700838029384613 0.2716090083122253
  vertex -0.1281310021877289 0.7053850293159485 0.2838029861450195
  endloop
 endfacet

 facet normal -0.7591832876205444 0.6508768796920776 0
  outer loop
  vertex -0.1324429959058762 0.700838029384613 0.2716090083122253
  vertex -0.1324429959058762 0.700838029384613 0.2838029861450195
  vertex -0.1281310021877289 0.7053850293159485 0.2838029861450195
  endloop
 endfacet

 facet normal -0.7591832876205444 -0.6508768796920776 0
  outer loop
  vertex -0.1324429959058762 0.6766780018806458 0.2716090083122253
  vertex -0.1281310021877289 0.6721320152282715 0.2716090083122253
  vertex -0.1324429959058762 0.6766780018806458 0.2838029861450195
  endloop
 endfacet

 facet normal -0.6865128874778748 -0.727117657661438 0
  outer loop
  vertex -0.1281310021877289 0.6721320152282715 0.2716090083122253
  vertex -0.1281310021877289 0.6721320152282715 0.2838029861450195
  vertex -0.1324429959058762 0.6766780018806458 0.2838029861450195
  endloop
 endfacet

 facet normal 0.6865013241767883 -0.7271286249160767 0
  outer loop
  vertex -0.1052189990878105 0.6721320152282715 0.2716090083122253
  vertex -0.1009069979190826 0.6766780018806458 0.2716090083122253
  vertex -0.1052189990878105 0.6721320152282715 0.2838029861450195
  endloop
 endfacet

 facet normal 0.7591781616210938 -0.6508828401565552 0
  outer loop
  vertex -0.1009069979190826 0.6766780018806458 0.2716090083122253
  vertex -0.1009069979190826 0.6766780018806458 0.2838029861450195
  vertex -0.1052189990878105 0.6721320152282715 0.2838029861450195
  endloop
 endfacet

 facet normal 0.7591781616210938 0.6508828401565552 0
  outer loop
  vertex -0.1009069979190826 0.700838029384613 0.2716090083122253
  vertex -0.1052189990878105 0.7053850293159485 0.2716090083122253
  vertex -0.1009069979190826 0.700838029384613 0.2838029861450195
  endloop
 endfacet

 facet normal 0.6865013241767883 0.7271286249160767 0
  outer loop
  vertex -0.1052189990878105 0.7053850293159485 0.2716090083122253
  vertex -0.1052189990878105 0.7053850293159485 0.2838029861450195
  vertex -0.1009069979190826 0.700838029384613 0.2838029861450195
  endloop
 endfacet

 facet normal -0.422818511724472 0.9062144160270691 0
  outer loop
  vertex -0.122698001563549 0.7083039879798889 0.2716090083122253
  vertex -0.1281310021877289 0.7053850293159485 0.2716090083122253
  vertex -0.122698001563549 0.7083039879798889 0.2838029861450195
  endloop
 endfacet

 facet normal -0.5185362100601196 0.8550556898117065 0
  outer loop
  vertex -0.1281310021877289 0.7053850293159485 0.2716090083122253
  vertex -0.1281310021877289 0.7053850293159485 0.2838029861450195
  vertex -0.122698001563549 0.7083039879798889 0.2838029861450195
  endloop
 endfacet

 facet normal -0.9207130074501038 -0.3902404010295868 0
  outer loop
  vertex -0.1352120041847229 0.682407021522522 0.2716090083122253
  vertex -0.1324429959058762 0.6766780018806458 0.2716090083122253
  vertex -0.1352120041847229 0.682407021522522 0.2838029861450195
  endloop
 endfacet

 facet normal -0.8760274052619934 -0.482261449098587 0
  outer loop
  vertex -0.1324429959058762 0.6766780018806458 0.2716090083122253
  vertex -0.1324429959058762 0.6766780018806458 0.2838029861450195
  vertex -0.1352120041847229 0.682407021522522 0.2838029861450195
  endloop
 endfacet

 facet normal 0.4228172600269318 -0.9062149524688721 0
  outer loop
  vertex -0.1106519997119904 0.6692119836807251 0.2716090083122253
  vertex -0.1052189990878105 0.6721320152282715 0.2716090083122253
  vertex -0.1106519997119904 0.6692119836807251 0.2838029861450195
  endloop
 endfacet

 facet normal 0.5185253024101257 -0.8550623059272766 0
  outer loop
  vertex -0.1052189990878105 0.6721320152282715 0.2716090083122253
  vertex -0.1052189990878105 0.6721320152282715 0.2838029861450195
  vertex -0.1106519997119904 0.6692119836807251 0.2838029861450195
  endloop
 endfacet

 facet normal 0.9207205176353455 0.3902227282524109 0
  outer loop
  vertex -0.09813830256462097 0.6951090097427368 0.2716090083122253
  vertex -0.1009069979190826 0.700838029384613 0.2716090083122253
  vertex -0.09813830256462097 0.6951090097427368 0.2838029861450195
  endloop
 endfacet

 facet normal 0.8760318756103516 0.4822531640529633 0
  outer loop
  vertex -0.1009069979190826 0.700838029384613 0.2716090083122253
  vertex -0.1009069979190826 0.700838029384613 0.2838029861450195
  vertex -0.09813830256462097 0.6951090097427368 0.2838029861450195
  endloop
 endfacet

 facet normal -0.9950504899024963 -0.09937088936567307 0
  outer loop
  vertex -0.1361660063266754 0.6887580156326294 0.2716090083122253
  vertex -0.1352120041847229 0.682407021522522 0.2716090083122253
  vertex -0.1361660063266754 0.6887580156326294 0.2838029861450195
  endloop
 endfacet

 facet normal -0.9800518751144409 -0.1987417787313461 0
  outer loop
  vertex -0.1352120041847229 0.682407021522522 0.2716090083122253
  vertex -0.1352120041847229 0.682407021522522 0.2838029861450195
  vertex -0.1361660063266754 0.6887580156326294 0.2838029861450195
  endloop
 endfacet

 facet normal 0.109084464609623 -0.9940325021743774 0
  outer loop
  vertex -0.1166749969124794 0.6682069897651672 0.2716090083122253
  vertex -0.1106519997119904 0.6692119836807251 0.2716090083122253
  vertex -0.1166749969124794 0.6682069897651672 0.2838029861450195
  endloop
 endfacet

 facet normal 0.2181689441204071 -0.9759110808372498 0
  outer loop
  vertex -0.1106519997119904 0.6692119836807251 0.2716090083122253
  vertex -0.1106519997119904 0.6692119836807251 0.2838029861450195
  vertex -0.1166749969124794 0.6682069897651672 0.2838029861450195
  endloop
 endfacet

 facet normal 0.9950514435768127 0.09936149418354034 0
  outer loop
  vertex -0.09718470275402069 0.6887580156326294 0.2716090083122253
  vertex -0.09813830256462097 0.6951090097427368 0.2716090083122253
  vertex -0.09718470275402069 0.6887580156326294 0.2838029861450195
  endloop
 endfacet

 facet normal 0.9800556898117065 0.1987229883670807 0
  outer loop
  vertex -0.09813830256462097 0.6951090097427368 0.2716090083122253
  vertex -0.09813830256462097 0.6951090097427368 0.2838029861450195
  vertex -0.09718470275402069 0.6887580156326294 0.2838029861450195
  endloop
 endfacet

 facet normal 0 0 1
  outer loop
  vertex -0.1111439988017082 0.7068650126457214 0.2853040099143982
  vertex -0.1166749969124794 0.7077890038490295 0.2853040099143982
  vertex -0.1166749969124794 0.6887580156326294 0.2853040099143982
  endloop
 endfacet

 facet normal -0.9800518751144409 0.1987417787313461 0
  outer loop
  vertex -0.1352120041847229 0.6951090097427368 0.2716090083122253
  vertex -0.1361660063266754 0.6887580156326294 0.2716090083122253
  vertex -0.1352120041847229 0.6951090097427368 0.2838029861450195
  endloop
 endfacet

 facet normal -0.9950504899024963 0.09937088936567307 0
  outer loop
  vertex -0.1361660063266754 0.6887580156326294 0.2716090083122253
  vertex -0.1361660063266754 0.6887580156326294 0.2838029861450195
  vertex -0.1352120041847229 0.6951090097427368 0.2838029861450195
  endloop
 endfacet

 facet normal -0.218188151717186 -0.9759067893028259 0
  outer loop
  vertex -0.122698001563549 0.6692119836807251 0.2716090083122253
  vertex -0.1166749969124794 0.6682069897651672 0.2716090083122253
  vertex -0.122698001563549 0.6692119836807251 0.2838029861450195
  endloop
 endfacet

 facet normal -0.1090940609574318 -0.9940314292907715 0
  outer loop
  vertex -0.1166749969124794 0.6682069897651672 0.2716090083122253
  vertex -0.1166749969124794 0.6682069897651672 0.2838029861450195
  vertex -0.122698001563549 0.6692119836807251 0.2838029861450195
  endloop
 endfacet

 facet normal 0.9800556898117065 -0.1987229883670807 0
  outer loop
  vertex -0.09813830256462097 0.682407021522522 0.2716090083122253
  vertex -0.09718470275402069 0.6887580156326294 0.2716090083122253
  vertex -0.09813830256462097 0.682407021522522 0.2838029861450195
  endloop
 endfacet

 facet normal 0.9950514435768127 -0.09936149418354034 0
  outer loop
  vertex -0.09718470275402069 0.6887580156326294 0.2716090083122253
  vertex -0.09718470275402069 0.6887580156326294 0.2838029861450195
  vertex -0.09813830256462097 0.682407021522522 0.2838029861450195
  endloop
 endfacet

 facet normal 0 0 1
  outer loop
  vertex -0.1352120041847229 0.6951090097427368 0.2753959894180298
  vertex -0.1375319957733154 0.6959530115127563 0.2753959894180298
  vertex -0.1361660063266754 0.6887580156326294 0.2753959894180298
  endloop
 endfacet

 facet normal 0 0 1
  outer loop
  vertex -0.1375319957733154 0.6959530115127563 0.2753959894180298
  vertex -0.1386120021343231 0.6887580156326294 0.2753959894180298
  vertex -0.1361660063266754 0.6887580156326294 0.2753959894180298
  endloop
 endfacet

 facet normal 0 0 1
  outer loop
  vertex -0.122698001563549 0.6692119836807251 0.2753959894180298
  vertex -0.123430997133255 0.6666769981384277 0.2753959894180298
  vertex -0.1166749969124794 0.6682069897651672 0.2753959894180298
  endloop
 endfacet

 facet normal 0 0 1
  outer loop
  vertex -0.123430997133255 0.6666769981384277 0.2753959894180298
  vertex -0.1166749969124794 0.6655480265617371 0.2753959894180298
  vertex -0.1166749969124794 0.6682069897651672 0.2753959894180298
  endloop
 endfacet

 facet normal 0 0 1
  outer loop
  vertex -0.09813830256462097 0.682407021522522 0.2753959894180298
  vertex -0.09581899642944336 0.6815639734268188 0.2753959894180298
  vertex -0.09718470275402069 0.6887580156326294 0.2753959894180298
  endloop
 endfacet

 facet normal 0 0 1
  outer loop
  vertex -0.09581899642944336 0.6815639734268188 0.2753959894180298
  vertex -0.09473799914121628 0.6887580156326294 0.2753959894180298
  vertex -0.09718470275402069 0.6887580156326294 0.2753959894180298
  endloop
 endfacet

 facet normal 0 0 1
  outer loop
  vertex -0.122698001563549 0.7083039879798889 0.2753959894180298
  vertex -0.1166749969124794 0.709309995174408 0.2753959894180298
  vertex -0.123430997133255 0.7108399868011475 0.2753959894180298
  endloop
 endfacet

 facet normal 0 0 1
  outer loop
  vertex -0.1166749969124794 0.709309995174408 0.2753959894180298
  vertex -0.1166749969124794 0.7119680047035217 0.2753959894180298
  vertex -0.123430997133255 0.7108399868011475 0.2753959894180298
  endloop
 endfacet

 facet normal 0 0 1
  outer loop
  vertex -0.1324429959058762 0.700838029384613 0.2753959894180298
  vertex -0.1344009935855865 0.7024319767951965 0.2753959894180298
  vertex -0.1352120041847229 0.6951090097427368 0.2753959894180298
  endloop
 endfacet

 facet normal 0 0 1
  outer loop
  vertex -0.1344009935855865 0.7024319767951965 0.2753959894180298
  vertex -0.1375319957733154 0.6959530115127563 0.2753959894180298
  vertex -0.1352120041847229 0.6951090097427368 0.2753959894180298
  endloop
 endfacet

 facet normal 0 0 1
  outer loop
  vertex -0.1281310021877289 0.6721320152282715 0.2753959894180298
  vertex -0.1295389980077744 0.6699579954147339 0.2753959894180298
  vertex -0.122698001563549 0.6692119836807251 0.2753959894180298
  endloop
 endfacet

 facet normal 0 0 1
  outer loop
  vertex -0.1295389980077744 0.6699579954147339 0.2753959894180298
  vertex -0.123430997133255 0.6666769981384277 0.2753959894180298
  vertex -0.122698001563549 0.6692119836807251 0.2753959894180298
  endloop
 endfacet

 facet normal 0 0 1
  outer loop
  vertex -0.1009069979190826 0.6766780018806458 0.2753959894180298
  vertex -0.09894990175962448 0.6750850081443787 0.2753959894180298
  vertex -0.09813830256462097 0.682407021522522 0.2753959894180298
  endloop
 endfacet

 facet normal 0 0 1
  outer loop
  vertex -0.09894990175962448 0.6750850081443787 0.2753959894180298
  vertex -0.09581899642944336 0.6815639734268188 0.2753959894180298
  vertex -0.09813830256462097 0.682407021522522 0.2753959894180298
  endloop
 endfacet

 facet normal 0 0 1
  outer loop
  vertex -0.1052189990878105 0.7053850293159485 0.2753959894180298
  vertex -0.103812001645565 0.7075579762458801 0.2753959894180298
  vertex -0.1106519997119904 0.7083039879798889 0.2753959894180298
  endloop
 endfacet

 facet normal 0 0 1
  outer loop
  vertex -0.103812001645565 0.7075579762458801 0.2753959894180298
  vertex -0.1099189966917038 0.7108399868011475 0.2753959894180298
  vertex -0.1106519997119904 0.7083039879798889 0.2753959894180298
  endloop
 endfacet

 facet normal 0 0 1
  outer loop
  vertex -0.1281310021877289 0.7053850293159485 0.2753959894180298
  vertex -0.1295389980077744 0.7075579762458801 0.2753959894180298
  vertex -0.1324429959058762 0.700838029384613 0.2753959894180298
  endloop
 endfacet

 facet normal 0 0 1
  outer loop
  vertex -0.1295389980077744 0.7075579762458801 0.2753959894180298
  vertex -0.1344009935855865 0.7024319767951965 0.2753959894180298
  vertex -0.1324429959058762 0.700838029384613 0.2753959894180298
  endloop
 endfacet

 facet normal 0 0 1
  outer loop
  vertex -0.1324429959058762 0.6766780018806458 0.2753959894180298
  vertex -0.1344009935855865 0.6750850081443787 0.2753959894180298
  vertex -0.1281310021877289 0.6721320152282715 0.2753959894180298
  endloop
 endfacet

 facet normal 0 0 1
  outer loop
  vertex -0.1344009935855865 0.6750850081443787 0.2753959894180298
  vertex -0.1295389980077744 0.6699579954147339 0.2753959894180298
  vertex -0.1281310021877289 0.6721320152282715 0.2753959894180298
  endloop
 endfacet

 facet normal 0 0 1
  outer loop
  vertex -0.1052189990878105 0.6721320152282715 0.2753959894180298
  vertex -0.103812001645565 0.6699579954147339 0.2753959894180298
  vertex -0.1009069979190826 0.6766780018806458 0.2753959894180298
  endloop
 endfacet

 facet normal 0 0 1
  outer loop
  vertex -0.103812001645565 0.6699579954147339 0.2753959894180298
  vertex -0.09894990175962448 0.6750850081443787 0.2753959894180298
  vertex -0.1009069979190826 0.6766780018806458 0.2753959894180298
  endloop
 endfacet

 facet normal 0 0 1
  outer loop
  vertex -0.1009069979190826 0.700838029384613 0.2753959894180298
  vertex -0.09894990175962448 0.7024319767951965 0.2753959894180298
  vertex -0.1052189990878105 0.7053850293159485 0.2753959894180298
  endloop
 endfacet

 facet normal 0 0 1
  outer loop
  vertex -0.09894990175962448 0.7024319767951965 0.2753959894180298
  vertex -0.103812001645565 0.7075579762458801 0.2753959894180298
  vertex -0.1052189990878105 0.7053850293159485 0.2753959894180298
  endloop
 endfacet

 facet normal 0 0 1
  outer loop
  vertex -0.122698001563549 0.7083039879798889 0.2753959894180298
  vertex -0.123430997133255 0.7108399868011475 0.2753959894180298
  vertex -0.1281310021877289 0.7053850293159485 0.2753959894180298
  endloop
 endfacet

 facet normal 0 0 1
  outer loop
  vertex -0.123430997133255 0.7108399868011475 0.2753959894180298
  vertex -0.1295389980077744 0.7075579762458801 0.2753959894180298
  vertex -0.1281310021877289 0.7053850293159485 0.2753959894180298
  endloop
 endfacet

 facet normal 0 0 1
  outer loop
  vertex -0.1352120041847229 0.682407021522522 0.2753959894180298
  vertex -0.1375319957733154 0.6815639734268188 0.2753959894180298
  vertex -0.1324429959058762 0.6766780018806458 0.2753959894180298
  endloop
 endfacet

 facet normal 0 0 1
  outer loop
  vertex -0.1375319957733154 0.6815639734268188 0.2753959894180298
  vertex -0.1344009935855865 0.6750850081443787 0.2753959894180298
  vertex -0.1324429959058762 0.6766780018806458 0.2753959894180298
  endloop
 endfacet

 facet normal 0 0 1
  outer loop
  vertex -0.1106519997119904 0.6692119836807251 0.2753959894180298
  vertex -0.1099189966917038 0.6666769981384277 0.2753959894180298
  vertex -0.1052189990878105 0.6721320152282715 0.2753959894180298
  endloop
 endfacet

 facet normal 0 0 1
  outer loop
  vertex -0.1099189966917038 0.6666769981384277 0.2753959894180298
  vertex -0.103812001645565 0.6699579954147339 0.2753959894180298
  vertex -0.1052189990878105 0.6721320152282715 0.2753959894180298
  endloop
 endfacet

 facet normal 0 0 1
  outer loop
  vertex -0.09813830256462097 0.6951090097427368 0.2753959894180298
  vertex -0.09581899642944336 0.6959530115127563 0.2753959894180298
  vertex -0.1009069979190826 0.700838029384613 0.2753959894180298
  endloop
 endfacet

 facet normal 0 0 1
  outer loop
  vertex -0.09581899642944336 0.6959530115127563 0.2753959894180298
  vertex -0.09894990175962448 0.7024319767951965 0.2753959894180298
  vertex -0.1009069979190826 0.700838029384613 0.2753959894180298
  endloop
 endfacet

 facet normal 0 0 1
  outer loop
  vertex -0.1106519997119904 0.7083039879798889 0.2753959894180298
  vertex -0.1099189966917038 0.7108399868011475 0.2753959894180298
  vertex -0.1166749969124794 0.709309995174408 0.2753959894180298
  endloop
 endfacet

 facet normal 0 0 1
  outer loop
  vertex -0.1099189966917038 0.7108399868011475 0.2753959894180298
  vertex -0.1166749969124794 0.7119680047035217 0.2753959894180298
  vertex -0.1166749969124794 0.709309995174408 0.2753959894180298
  endloop
 endfacet

 facet normal 0 0 1
  outer loop
  vertex -0.1361660063266754 0.6887580156326294 0.2753959894180298
  vertex -0.1386120021343231 0.6887580156326294 0.2753959894180298
  vertex -0.1352120041847229 0.682407021522522 0.2753959894180298
  endloop
 endfacet

 facet normal 0 0 1
  outer loop
  vertex -0.1386120021343231 0.6887580156326294 0.2753959894180298
  vertex -0.1375319957733154 0.6815639734268188 0.2753959894180298
  vertex -0.1352120041847229 0.682407021522522 0.2753959894180298
  endloop
 endfacet

 facet normal 0 0 1
  outer loop
  vertex -0.1166749969124794 0.6682069897651672 0.2753959894180298
  vertex -0.1166749969124794 0.6655480265617371 0.2753959894180298
  vertex -0.1106519997119904 0.6692119836807251 0.2753959894180298
  endloop
 endfacet

 facet normal 0 0 1
  outer loop
  vertex -0.1166749969124794 0.6655480265617371 0.2753959894180298
  vertex -0.1099189966917038 0.6666769981384277 0.2753959894180298
  vertex -0.1106519997119904 0.6692119836807251 0.2753959894180298
  endloop
 endfacet

 facet normal 0 0 1
  outer loop
  vertex -0.09718470275402069 0.6887580156326294 0.2753959894180298
  vertex -0.09473799914121628 0.6887580156326294 0.2753959894180298
  vertex -0.09813830256462097 0.6951090097427368 0.2753959894180298
  endloop
 endfacet

 facet normal 0 0 1
  outer loop
  vertex -0.09473799914121628 0.6887580156326294 0.2753959894180298
  vertex -0.09581899642944336 0.6959530115127563 0.2753959894180298
  vertex -0.09813830256462097 0.6951090097427368 0.2753959894180298
  endloop
 endfacet

 facet normal 0.5185253024101257 0.8550623059272766 0
  outer loop
  vertex -0.1028899997472763 0.708765983581543 0.2738960087299347
  vertex -0.1028899997472763 0.708765983581543 0.2700940072536469
  vertex -0.1094269976019859 0.7122780084609985 0.2738960087299347
  endloop
 endfacet

 facet normal 0.4228172600269318 0.9062149524688721 0
  outer loop
  vertex -0.1028899997472763 0.708765983581543 0.2700940072536469
  vertex -0.1094269976019859 0.7122780084609985 0.2700940072536469
  vertex -0.1094269976019859 0.7122780084609985 0.2738960087299347
  endloop
 endfacet

 facet normal -0.6865128874778748 0.727117657661438 0
  outer loop
  vertex -0.1304610073566437 0.708765983581543 0.2738960087299347
  vertex -0.1304610073566437 0.708765983581543 0.2700940072536469
  vertex -0.1356499940156937 0.7032939791679382 0.2738960087299347
  endloop
 endfacet

 facet normal -0.7591832876205444 0.6508768796920776 0
  outer loop
  vertex -0.1304610073566437 0.708765983581543 0.2700940072536469
  vertex -0.1356499940156937 0.7032939791679382 0.2700940072536469
  vertex -0.1356499940156937 0.7032939791679382 0.2738960087299347
  endloop
 endfacet

 facet normal -0.7591832876205444 -0.6508768796920776 0
  outer loop
  vertex -0.1356499940156937 0.6742219924926758 0.2738960087299347
  vertex -0.1356499940156937 0.6742219924926758 0.2700940072536469
  vertex -0.1304610073566437 0.6687510013580322 0.2738960087299347
  endloop
 endfacet

 facet normal -0.6865129470825195 -0.727117657661438 0
  outer loop
  vertex -0.1356499940156937 0.6742219924926758 0.2700940072536469
  vertex -0.1304610073566437 0.6687510013580322 0.2700940072536469
  vertex -0.1304610073566437 0.6687510013580322 0.2738960087299347
  endloop
 endfacet

 facet normal 0.6865013241767883 -0.7271286249160767 0
  outer loop
  vertex -0.1028899997472763 0.6687510013580322 0.2738960087299347
  vertex -0.1028899997472763 0.6687510013580322 0.2700940072536469
  vertex -0.09770060330629349 0.6742219924926758 0.2738960087299347
  endloop
 endfacet

 facet normal 0.7591781616210938 -0.6508828401565552 0
  outer loop
  vertex -0.1028899997472763 0.6687510013580322 0.2700940072536469
  vertex -0.09770060330629349 0.6742219924926758 0.2700940072536469
  vertex -0.09770060330629349 0.6742219924926758 0.2738960087299347
  endloop
 endfacet

 facet normal 0.7591781616210938 0.6508828401565552 0
  outer loop
  vertex -0.09770060330629349 0.7032939791679382 0.2738960087299347
  vertex -0.09770060330629349 0.7032939791679382 0.2700940072536469
  vertex -0.1028899997472763 0.708765983581543 0.2738960087299347
  endloop
 endfacet

 facet normal 0.6865013241767883 0.7271286249160767 0
  outer loop
  vertex -0.09770060330629349 0.7032939791679382 0.2700940072536469
  vertex -0.1028899997472763 0.708765983581543 0.2700940072536469
  vertex -0.1028899997472763 0.708765983581543 0.2738960087299347
  endloop
 endfacet

 facet normal -0.422818511724472 0.9062144160270691 0
  outer loop
  vertex -0.1239230036735535 0.7122780084609985 0.2738960087299347
  vertex -0.1239230036735535 0.7122780084609985 0.2700940072536469
  vertex -0.1304610073566437 0.708765983581543 0.2738960087299347
  endloop
 endfacet

 facet normal -0.5185362100601196 0.8550556898117065 0
  outer loop
  vertex -0.1239230036735535 0.7122780084609985 0.2700940072536469
  vertex -0.1304610073566437 0.708765983581543 0.2700940072536469
  vertex -0.1304610073566437 0.708765983581543 0.2738960087299347
  endloop
 endfacet

 facet normal -0.9207130074501038 -0.3902404010295868 0
  outer loop
  vertex -0.1389809995889664 0.681115984916687 0.2738960087299347
  vertex -0.1389809995889664 0.681115984916687 0.2700940072536469
  vertex -0.1356499940156937 0.6742219924926758 0.2738960087299347
  endloop
 endfacet

 facet normal -0.8760272860527039 -0.4822614789009094 0
  outer loop
  vertex -0.1389809995889664 0.681115984916687 0.2700940072536469
  vertex -0.1356499940156937 0.6742219924926758 0.2700940072536469
  vertex -0.1356499940156937 0.6742219924926758 0.2738960087299347
  endloop
 endfacet

 facet normal 0.4228172600269318 -0.9062149524688721 0
  outer loop
  vertex -0.1094269976019859 0.6652380228042603 0.2738960087299347
  vertex -0.1094269976019859 0.6652380228042603 0.2700940072536469
  vertex -0.1028899997472763 0.6687510013580322 0.2738960087299347
  endloop
 endfacet

 facet normal 0.5185253024101257 -0.8550623059272766 0
  outer loop
  vertex -0.1094269976019859 0.6652380228042603 0.2700940072536469
  vertex -0.1028899997472763 0.6687510013580322 0.2700940072536469
  vertex -0.1028899997472763 0.6687510013580322 0.2738960087299347
  endloop
 endfacet

 facet normal 0.9207130074501038 0.3902404010295868 0
  outer loop
  vertex -0.09436939656734467 0.696399986743927 0.2738960087299347
  vertex -0.09436939656734467 0.696399986743927 0.2700940072536469
  vertex -0.09770060330629349 0.7032939791679382 0.2738960087299347
  endloop
 endfacet

 facet normal 0.8760272860527039 0.4822614789009094 0
  outer loop
  vertex -0.09436939656734467 0.696399986743927 0.2700940072536469
  vertex -0.09770060330629349 0.7032939791679382 0.2700940072536469
  vertex -0.09770060330629349 0.7032939791679382 0.2738960087299347
  endloop
 endfacet

 facet normal -0.9950504899024963 -0.09937088936567307 0
  outer loop
  vertex -0.1401289999485016 0.6887580156326294 0.2738960087299347
  vertex -0.1401289999485016 0.6887580156326294 0.2700940072536469
  vertex -0.1389809995889664 0.681115984916687 0.2738960087299347
  endloop
 endfacet

 facet normal -0.9800518751144409 -0.1987417787313461 0
  outer loop
  vertex -0.1401289999485016 0.6887580156326294 0.2700940072536469
  vertex -0.1389809995889664 0.681115984916687 0.2700940072536469
  vertex -0.1389809995889664 0.681115984916687 0.2738960087299347
  endloop
 endfacet

 facet normal 0.109084464609623 -0.9940325021743774 0
  outer loop
  vertex -0.1166749969124794 0.664027988910675 0.2738960087299347
  vertex -0.1166749969124794 0.664027988910675 0.2700940072536469
  vertex -0.1094269976019859 0.6652380228042603 0.2738960087299347
  endloop
 endfacet

 facet normal 0.2181689441204071 -0.9759110808372498 0
  outer loop
  vertex -0.1166749969124794 0.664027988910675 0.2700940072536469
  vertex -0.1094269976019859 0.6652380228042603 0.2700940072536469
  vertex -0.1094269976019859 0.6652380228042603 0.2738960087299347
  endloop
 endfacet

 facet normal 0.9950504899024963 0.09937088936567307 0
  outer loop
  vertex -0.09322120249271393 0.6887580156326294 0.2738960087299347
  vertex -0.09322120249271393 0.6887580156326294 0.2700940072536469
  vertex -0.09436939656734467 0.696399986743927 0.2738960087299347
  endloop
 endfacet

 facet normal 0.9800518751144409 0.1987417787313461 0
  outer loop
  vertex -0.09322120249271393 0.6887580156326294 0.2700940072536469
  vertex -0.09436939656734467 0.696399986743927 0.2700940072536469
  vertex -0.09436939656734467 0.696399986743927 0.2738960087299347
  endloop
 endfacet

 facet normal -0.2181625813245773 0.9759124517440796 0
  outer loop
  vertex -0.1239230036735535 0.7122780084609985 0.2738960087299347
  vertex -0.1166749969124794 0.7134889960289001 0.2738960087299347
  vertex -0.1239230036735535 0.7122780084609985 0.2700940072536469
  endloop
 endfacet

 facet normal -0.1090812906622887 0.9940328001976013 0
  outer loop
  vertex -0.1166749969124794 0.7134889960289001 0.2738960087299347
  vertex -0.1166749969124794 0.7134889960289001 0.2700940072536469
  vertex -0.1239230036735535 0.7122780084609985 0.2700940072536469
  endloop
 endfacet

 facet normal -0.9800518751144409 0.1987417787313461 0
  outer loop
  vertex -0.1389809995889664 0.696399986743927 0.2738960087299347
  vertex -0.1389809995889664 0.696399986743927 0.2700940072536469
  vertex -0.1401289999485016 0.6887580156326294 0.2738960087299347
  endloop
 endfacet

 facet normal -0.9950504899024963 0.09937088936567307 0
  outer loop
  vertex -0.1389809995889664 0.696399986743927 0.2700940072536469
  vertex -0.1401289999485016 0.6887580156326294 0.2700940072536469
  vertex -0.1401289999485016 0.6887580156326294 0.2738960087299347
  endloop
 endfacet

 facet normal -0.2181625813245773 -0.9759124517440796 0
  outer loop
  vertex -0.1239230036735535 0.6652380228042603 0.2738960087299347
  vertex -0.1239230036735535 0.6652380228042603 0.2700940072536469
  vertex -0.1166749969124794 0.664027988910675 0.2738960087299347
  endloop
 endfacet

 facet normal -0.1090812906622887 -0.9940328001976013 0
  outer loop
  vertex -0.1239230036735535 0.6652380228042603 0.2700940072536469
  vertex -0.1166749969124794 0.664027988910675 0.2700940072536469
  vertex -0.1166749969124794 0.664027988910675 0.2738960087299347
  endloop
 endfacet

 facet normal 0.9800518751144409 -0.1987417787313461 0
  outer loop
  vertex -0.09436939656734467 0.681115984916687 0.2738960087299347
  vertex -0.09436939656734467 0.681115984916687 0.2700940072536469
  vertex -0.09322120249271393 0.6887580156326294 0.2738960087299347
  endloop
 endfacet

 facet normal 0.9950504899024963 -0.09937088936567307 0
  outer loop
  vertex -0.09436939656734467 0.681115984916687 0.2700940072536469
  vertex -0.09322120249271393 0.6887580156326294 0.2700940072536469
  vertex -0.09322120249271393 0.6887580156326294 0.2738960087299347
  endloop
 endfacet

 facet normal -0.8760274052619934 0.482261449098587 0
  outer loop
  vertex -0.1356499940156937 0.7032939791679382 0.2738960087299347
  vertex -0.1356499940156937 0.7032939791679382 0.2700940072536469
  vertex -0.1389809995889664 0.696399986743927 0.2738960087299347
  endloop
 endfacet

 facet normal -0.9207130074501038 0.3902404010295868 0
  outer loop
  vertex -0.1356499940156937 0.7032939791679382 0.2700940072536469
  vertex -0.1389809995889664 0.696399986743927 0.2700940072536469
  vertex -0.1389809995889664 0.696399986743927 0.2738960087299347
  endloop
 endfacet

 facet normal -0.5185362100601196 -0.8550556898117065 0
  outer loop
  vertex -0.1304610073566437 0.6687510013580322 0.2738960087299347
  vertex -0.1304610073566437 0.6687510013580322 0.2700940072536469
  vertex -0.1239230036735535 0.6652380228042603 0.2738960087299347
  endloop
 endfacet

 facet normal -0.422818511724472 -0.9062144160270691 0
  outer loop
  vertex -0.1304610073566437 0.6687510013580322 0.2700940072536469
  vertex -0.1239230036735535 0.6652380228042603 0.2700940072536469
  vertex -0.1239230036735535 0.6652380228042603 0.2738960087299347
  endloop
 endfacet

 facet normal 0.8760274052619934 -0.482261449098587 0
  outer loop
  vertex -0.09770060330629349 0.6742219924926758 0.2738960087299347
  vertex -0.09770060330629349 0.6742219924926758 0.2700940072536469
  vertex -0.09436939656734467 0.681115984916687 0.2738960087299347
  endloop
 endfacet

 facet normal 0.9207130074501038 -0.3902404010295868 0
  outer loop
  vertex -0.09770060330629349 0.6742219924926758 0.2700940072536469
  vertex -0.09436939656734467 0.681115984916687 0.2700940072536469
  vertex -0.09436939656734467 0.681115984916687 0.2738960087299347
  endloop
 endfacet

 facet normal 0 0 1
  outer loop
  vertex -0.1166749969124794 0.6697270274162292 0.2853040099143982
  vertex -0.1111439988017082 0.6706510186195374 0.2853040099143982
  vertex -0.1166749969124794 0.6887580156326294 0.2853040099143982
  endloop
 endfacet

 facet normal 0.1522762328386307 0.6811891794204712 0.7160957455635071
  outer loop
  vertex -0.1106519997119904 0.7083039879798889 0.2838029861450195
  vertex -0.1166749969124794 0.709309995174408 0.2838029861450195
  vertex -0.1111439988017082 0.7068650126457214 0.2853040099143982
  endloop
 endfacet

 facet normal 0.07613811641931534 0.6938063502311707 0.71612548828125
  outer loop
  vertex -0.1166749969124794 0.709309995174408 0.2838029861450195
  vertex -0.1166749969124794 0.7077890038490295 0.2853040099143982
  vertex -0.1111439988017082 0.7068650126457214 0.2853040099143982
  endloop
 endfacet

 facet normal 0.3621229231357574 0.5971296429634094 0.7157535552978516
  outer loop
  vertex -0.1052189990878105 0.7053850293159485 0.2838029861450195
  vertex -0.1106519997119904 0.7083039879798889 0.2838029861450195
  vertex -0.1061410009860992 0.7041770219802856 0.2853040099143982
  endloop
 endfacet

 facet normal 0.29525026679039 0.63277667760849 0.7158358097076416
  outer loop
  vertex -0.1106519997119904 0.7083039879798889 0.2838029861450195
  vertex -0.1111439988017082 0.7068650126457214 0.2853040099143982
  vertex -0.1061410009860992 0.7041770219802856 0.2853040099143982
  endloop
 endfacet

 facet normal 0.5305644869804382 0.4548762440681458 0.7152544260025024
  outer loop
  vertex -0.1009069979190826 0.700838029384613 0.2838029861450195
  vertex -0.1052189990878105 0.7053850293159485 0.2838029861450195
  vertex -0.1021559983491898 0.6999750137329102 0.2853040099143982
  endloop
 endfacet

 facet normal 0.4797125458717346 0.508085310459137 0.7153497338294983
  outer loop
  vertex -0.1052189990878105 0.7053850293159485 0.2838029861450195
  vertex -0.1061410009860992 0.7041770219802856 0.2853040099143982
  vertex -0.1021559983491898 0.6999750137329102 0.2853040099143982
  endloop
 endfacet

 facet normal 0.6438841819763184 0.2728862166404724 0.7148050665855408
  outer loop
  vertex -0.09813830256462097 0.6951090097427368 0.2838029861450195
  vertex -0.1009069979190826 0.700838029384613 0.2838029861450195
  vertex -0.09958790242671967 0.694661021232605 0.2853040099143982
  endloop
 endfacet

 facet normal 0.6125656962394714 0.3372131884098053 0.7148779630661011
  outer loop
  vertex -0.1009069979190826 0.700838029384613 0.2838029861450195
  vertex -0.1021559983491898 0.6999750137329102 0.2853040099143982
  vertex -0.09958790242671967 0.694661021232605 0.2853040099143982
  endloop
 endfacet

 facet normal 0.6961302757263184 0.06950845569372177 0.7145426273345947
  outer loop
  vertex -0.09718470275402069 0.6887580156326294 0.2838029861450195
  vertex -0.09813830256462097 0.6951090097427368 0.2838029861450195
  vertex -0.09870149940252304 0.6887580156326294 0.2853040099143982
  endloop
 endfacet

 facet normal 0.6856045126914978 0.1390169113874435 0.714577317237854
  outer loop
  vertex -0.09813830256462097 0.6951090097427368 0.2838029861450195
  vertex -0.09958790242671967 0.694661021232605 0.2853040099143982
  vertex -0.09870149940252304 0.6887580156326294 0.2853040099143982
  endloop
 endfacet

 facet normal 0.6856098771095276 -0.1390154957771301 0.7145724892616272
  outer loop
  vertex -0.09813830256462097 0.682407021522522 0.2838029861450195
  vertex -0.09718470275402069 0.6887580156326294 0.2838029861450195
  vertex -0.09958790242671967 0.6828550100326538 0.2853040099143982
  endloop
 endfacet

 facet normal 0.6961302757263184 -0.06950845569372177 0.7145426273345947
  outer loop
  vertex -0.09718470275402069 0.6887580156326294 0.2838029861450195
  vertex -0.09870149940252304 0.6887580156326294 0.2853040099143982
  vertex -0.09958790242671967 0.6828550100326538 0.2853040099143982
  endloop
 endfacet

 facet normal 0.6125932931900024 -0.3372129499912262 0.7148544192314148
  outer loop
  vertex -0.1009069979190826 0.6766780018806458 0.2838029861450195
  vertex -0.09813830256462097 0.682407021522522 0.2838029861450195
  vertex -0.1021559983491898 0.6775410175323486 0.2853040099143982
  endloop
 endfacet

 facet normal 0.6438942551612854 -0.2728878855705261 0.7147953510284424
  outer loop
  vertex -0.09813830256462097 0.682407021522522 0.2838029861450195
  vertex -0.09958790242671967 0.6828550100326538 0.2853040099143982
  vertex -0.1021559983491898 0.6775410175323486 0.2853040099143982
  endloop
 endfacet

 facet normal 0.4797473251819611 -0.5081093907356262 0.7153092622756958
  outer loop
  vertex -0.1052189990878105 0.6721320152282715 0.2838029861450195
  vertex -0.1009069979190826 0.6766780018806458 0.2838029861450195
  vertex -0.1061410009860992 0.6733390092849731 0.2853040099143982
  endloop
 endfacet

 facet normal 0.5306040644645691 -0.4548838138580322 0.7152202129364014
  outer loop
  vertex -0.1009069979190826 0.6766780018806458 0.2838029861450195
  vertex -0.1021559983491898 0.6775410175323486 0.2853040099143982
  vertex -0.1061410009860992 0.6733390092849731 0.2853040099143982
  endloop
 endfacet

 facet normal 0.2952673137187958 -0.6328114867210388 0.7157979607582092
  outer loop
  vertex -0.1106519997119904 0.6692119836807251 0.2838029861450195
  vertex -0.1052189990878105 0.6721320152282715 0.2838029861450195
  vertex -0.1111439988017082 0.6706510186195374 0.2853040099143982
  endloop
 endfacet

 facet normal 0.3621481359004974 -0.5971629619598389 0.7157129645347595
  outer loop
  vertex -0.1052189990878105 0.6721320152282715 0.2838029861450195
  vertex -0.1061410009860992 0.6733390092849731 0.2853040099143982
  vertex -0.1111439988017082 0.6706510186195374 0.2853040099143982
  endloop
 endfacet

 facet normal 0.07614793628454208 -0.6938366293907166 0.7160950899124146
  outer loop
  vertex -0.1166749969124794 0.6682069897651672 0.2838029861450195
  vertex -0.1106519997119904 0.6692119836807251 0.2838029861450195
  vertex -0.1166749969124794 0.6697270274162292 0.2853040099143982
  endloop
 endfacet

 facet normal 0.1522958725690842 -0.6812183856964111 0.716063916683197
  outer loop
  vertex -0.1106519997119904 0.6692119836807251 0.2838029861450195
  vertex -0.1111439988017082 0.6706510186195374 0.2853040099143982
  vertex -0.1166749969124794 0.6697270274162292 0.2853040099143982
  endloop
 endfacet

 facet normal -0.1522958874702454 -0.6812184453010559 0.7160638570785522
  outer loop
  vertex -0.122698001563549 0.6692119836807251 0.2838029861450195
  vertex -0.1166749969124794 0.6682069897651672 0.2838029861450195
  vertex -0.1222070008516312 0.6706510186195374 0.2853040099143982
  endloop
 endfacet

 facet normal -0.07614793628454208 -0.6938366293907166 0.7160950899124146
  outer loop
  vertex -0.1166749969124794 0.6682069897651672 0.2838029861450195
  vertex -0.1166749969124794 0.6697270274162292 0.2853040099143982
  vertex -0.1222070008516312 0.6706510186195374 0.2853040099143982
  endloop
 endfacet

 facet normal -0.3621630072593689 -0.5971689224243164 0.7157005071640015
  outer loop
  vertex -0.1281310021877289 0.6721320152282715 0.2838029861450195
  vertex -0.122698001563549 0.6692119836807251 0.2838029861450195
  vertex -0.1272089928388596 0.6733390092849731 0.2853040099143982
  endloop
 endfacet

 facet normal -0.2952792942523956 -0.6328139305114746 0.715790867805481
  outer loop
  vertex -0.122698001563549 0.6692119836807251 0.2838029861450195
  vertex -0.1222070008516312 0.6706510186195374 0.2853040099143982
  vertex -0.1272089928388596 0.6733390092849731 0.2853040099143982
  endloop
 endfacet

 facet normal -0.5306242704391479 -0.4549063146114349 0.7151910066604614
  outer loop
  vertex -0.1324429959058762 0.6766780018806458 0.2838029861450195
  vertex -0.1281310021877289 0.6721320152282715 0.2838029861450195
  vertex -0.131194993853569 0.6775410175323486 0.2853040099143982
  endloop
 endfacet

 facet normal -0.4797629117965698 -0.5081257224082947 0.7152871489524841
  outer loop
  vertex -0.1281310021877289 0.6721320152282715 0.2838029861450195
  vertex -0.1272089928388596 0.6733390092849731 0.2853040099143982
  vertex -0.131194993853569 0.6775410175323486 0.2853040099143982
  endloop
 endfacet

 facet normal -0.6439211368560791 -0.2729158997535706 0.714760422706604
  outer loop
  vertex -0.1352120041847229 0.682407021522522 0.2838029861450195
  vertex -0.1324429959058762 0.6766780018806458 0.2838029861450195
  vertex -0.133762001991272 0.6828550100326538 0.2853040099143982
  endloop
 endfacet

 facet normal -0.6126133799552917 -0.3372426629066467 0.7148231863975525
  outer loop
  vertex -0.1324429959058762 0.6766780018806458 0.2838029861450195
  vertex -0.131194993853569 0.6775410175323486 0.2853040099143982
  vertex -0.133762001991272 0.6828550100326538 0.2853040099143982
  endloop
 endfacet

 facet normal -0.6961400508880615 -0.0695185586810112 0.7145321369171143
  outer loop
  vertex -0.1361660063266754 0.6887580156326294 0.2838029861450195
  vertex -0.1352120041847229 0.682407021522522 0.2838029861450195
  vertex -0.1346489936113358 0.6887580156326294 0.2853040099143982
  endloop
 endfacet

 facet normal -0.6856230497360229 -0.1390371173620224 0.7145556211471558
  outer loop
  vertex -0.1352120041847229 0.682407021522522 0.2838029861450195
  vertex -0.133762001991272 0.6828550100326538 0.2853040099143982
  vertex -0.1346489936113358 0.6887580156326294 0.2853040099143982
  endloop
 endfacet

 facet normal -0.6856230497360229 0.1390371173620224 0.7145555019378662
  outer loop
  vertex -0.1352120041847229 0.6951090097427368 0.2838029861450195
  vertex -0.1361660063266754 0.6887580156326294 0.2838029861450195
  vertex -0.133762001991272 0.694661021232605 0.2853040099143982
  endloop
 endfacet

 facet normal -0.6961400508880615 0.0695185586810112 0.7145321369171143
  outer loop
  vertex -0.1361660063266754 0.6887580156326294 0.2838029861450195
  vertex -0.1346489936113358 0.6887580156326294 0.2853040099143982
  vertex -0.133762001991272 0.694661021232605 0.2853040099143982
  endloop
 endfacet

 facet normal -0.612600564956665 0.337230384349823 0.7148399949073792
  outer loop
  vertex -0.1324429959058762 0.700838029384613 0.2838029861450195
  vertex -0.1352120041847229 0.6951090097427368 0.2838029861450195
  vertex -0.131194993853569 0.6999750137329102 0.2853040099143982
  endloop
 endfacet

 facet normal -0.6439123153686523 0.272906482219696 0.7147720456123352
  outer loop
  vertex -0.1352120041847229 0.6951090097427368 0.2838029861450195
  vertex -0.133762001991272 0.694661021232605 0.2853040099143982
  vertex -0.131194993853569 0.6999750137329102 0.2853040099143982
  endloop
 endfacet

 facet normal -0.4797342121601105 0.508097231388092 0.7153267860412598
  outer loop
  vertex -0.1281310021877289 0.7053850293159485 0.2838029861450195
  vertex -0.1324429959058762 0.700838029384613 0.2838029861450195
  vertex -0.1272089928388596 0.7041770219802856 0.2853040099143982
  endloop
 endfacet

 facet normal -0.5305992960929871 0.4548813104629517 0.7152252793312073
  outer loop
  vertex -0.1324429959058762 0.700838029384613 0.2838029861450195
  vertex -0.131194993853569 0.6999750137329102 0.2853040099143982
  vertex -0.1272089928388596 0.7041770219802856 0.2853040099143982
  endloop
 endfacet

 facet normal -0.2952663004398346 0.6327791213989258 0.7158270478248596
  outer loop
  vertex -0.122698001563549 0.7083039879798889 0.2838029861450195
  vertex -0.1281310021877289 0.7053850293159485 0.2838029861450195
  vertex -0.1222070008516312 0.7068650126457214 0.2853040099143982
  endloop
 endfacet

 facet normal -0.3621378540992737 0.5971319675445557 0.7157440781593323
  outer loop
  vertex -0.1281310021877289 0.7053850293159485 0.2838029861450195
  vertex -0.1272089928388596 0.7041770219802856 0.2853040099143982
  vertex -0.1222070008516312 0.7068650126457214 0.2853040099143982
  endloop
 endfacet

 facet normal -0.1522955447435379 0.6811872124671936 0.7160936594009399
  outer loop
  vertex -0.1222070008516312 0.7068650126457214 0.2853040099143982
  vertex -0.1166749969124794 0.7077890038490295 0.2853040099143982
  vertex -0.122698001563549 0.7083039879798889 0.2838029861450195
  endloop
 endfacet

 facet normal -0.07614777237176895 0.6938058733940125 0.716124951839447
  outer loop
  vertex -0.1166749969124794 0.7077890038490295 0.2853040099143982
  vertex -0.1166749969124794 0.709309995174408 0.2838029861450195
  vertex -0.122698001563549 0.7083039879798889 0.2838029861450195
  endloop
 endfacet

 facet normal 0.2181439995765686 0.9759166240692139 0
  outer loop
  vertex -0.1106519997119904 0.7083039879798889 0.2716090083122253
  vertex -0.1166749969124794 0.709309995174408 0.2716090083122253
  vertex -0.1106519997119904 0.7083039879798889 0.2838029861450195
  endloop
 endfacet

 facet normal 0.1090719997882843 0.9940338730812073 0
  outer loop
  vertex -0.1166749969124794 0.709309995174408 0.2716090083122253
  vertex -0.1166749969124794 0.709309995174408 0.2838029861450195
  vertex -0.1106519997119904 0.7083039879798889 0.2838029861450195
  endloop
 endfacet

 facet normal 0.1522955447435379 0.6811872124671936 0.7160936594009399
  outer loop
  vertex -0.1094269976019859 0.7122780084609985 0.2738960087299347
  vertex -0.1166749969124794 0.7134889960289001 0.2738960087299347
  vertex -0.1099189966917038 0.7108399868011475 0.2753959894180298
  endloop
 endfacet

 facet normal 0.07614777237176895 0.6938058733940125 0.716124951839447
  outer loop
  vertex -0.1166749969124794 0.7134889960289001 0.2738960087299347
  vertex -0.1166749969124794 0.7119680047035217 0.2753959894180298
  vertex -0.1099189966917038 0.7108399868011475 0.2753959894180298
  endloop
 endfacet

 facet normal 0.3621378540992737 0.5971319079399109 0.7157440781593323
  outer loop
  vertex -0.1028899997472763 0.708765983581543 0.2738960087299347
  vertex -0.1094269976019859 0.7122780084609985 0.2738960087299347
  vertex -0.103812001645565 0.7075579762458801 0.2753959894180298
  endloop
 endfacet

 facet normal 0.2952663004398346 0.6327791213989258 0.7158270478248596
  outer loop
  vertex -0.1094269976019859 0.7122780084609985 0.2738960087299347
  vertex -0.1099189966917038 0.7108399868011475 0.2753959894180298
  vertex -0.103812001645565 0.7075579762458801 0.2753959894180298
  endloop
 endfacet

 facet normal 0.5305817127227783 0.4548631012439728 0.7152500152587891
  outer loop
  vertex -0.09770060330629349 0.7032939791679382 0.2738960087299347
  vertex -0.1028899997472763 0.708765983581543 0.2738960087299347
  vertex -0.09894990175962448 0.7024319767951965 0.2753959894180298
  endloop
 endfacet

 facet normal 0.4797254800796509 0.5080879330635071 0.715339183807373
  outer loop
  vertex -0.1028899997472763 0.708765983581543 0.2738960087299347
  vertex -0.103812001645565 0.7075579762458801 0.2753959894180298
  vertex -0.09894990175962448 0.7024319767951965 0.2753959894180298
  endloop
 endfacet

 facet normal 0.6438838243484497 0.2728872001171112 0.7148049473762512
  outer loop
  vertex -0.09436939656734467 0.696399986743927 0.2738960087299347
  vertex -0.09770060330629349 0.7032939791679382 0.2738960087299347
  vertex -0.09581899642944336 0.6959530115127563 0.2753959894180298
  endloop
 endfacet

 facet normal 0.6125718355178833 0.3372116088867188 0.7148734927177429
  outer loop
  vertex -0.09770060330629349 0.7032939791679382 0.2738960087299347
  vertex -0.09894990175962448 0.7024319767951965 0.2753959894180298
  vertex -0.09581899642944336 0.6959530115127563 0.2753959894180298
  endloop
 endfacet

 facet normal 0.6961302757263184 0.06950845569372177 0.7145426273345947
  outer loop
  vertex -0.09322120249271393 0.6887580156326294 0.2738960087299347
  vertex -0.09436939656734467 0.696399986743927 0.2738960087299347
  vertex -0.09473799914121628 0.6887580156326294 0.2753959894180298
  endloop
 endfacet

 facet normal 0.6856034994125366 0.1390269547700882 0.7145763635635376
  outer loop
  vertex -0.09436939656734467 0.696399986743927 0.2738960087299347
  vertex -0.09581899642944336 0.6959530115127563 0.2753959894180298
  vertex -0.09473799914121628 0.6887580156326294 0.2753959894180298
  endloop
 endfacet

 facet normal 0.6856025457382202 -0.1390369832515717 0.7145753502845764
  outer loop
  vertex -0.09436939656734467 0.681115984916687 0.2738960087299347
  vertex -0.09322120249271393 0.6887580156326294 0.2738960087299347
  vertex -0.09581899642944336 0.6815639734268188 0.2753959894180298
  endloop
 endfacet

 facet normal 0.6961298584938049 -0.06951849162578583 0.7145420908927917
  outer loop
  vertex -0.09322120249271393 0.6887580156326294 0.2738960087299347
  vertex -0.09473799914121628 0.6887580156326294 0.2753959894180298
  vertex -0.09581899642944336 0.6815639734268188 0.2753959894180298
  endloop
 endfacet

 facet normal 0.6125718355178833 -0.3372116088867188 0.7148734927177429
  outer loop
  vertex -0.09770060330629349 0.6742219924926758 0.2738960087299347
  vertex -0.09436939656734467 0.681115984916687 0.2738960087299347
  vertex -0.09894990175962448 0.6750850081443787 0.2753959894180298
  endloop
 endfacet

 facet normal 0.6438804268836975 -0.2729057371616364 0.7148009538650513
  outer loop
  vertex -0.09436939656734467 0.681115984916687 0.2738960087299347
  vertex -0.09581899642944336 0.6815639734268188 0.2753959894180298
  vertex -0.09894990175962448 0.6750850081443787 0.2753959894180298
  endloop
 endfacet

 facet normal 0.4797282814979553 -0.5080800652503967 0.7153428196907043
  outer loop
  vertex -0.1028899997472763 0.6687510013580322 0.2738960087299347
  vertex -0.09770060330629349 0.6742219924926758 0.2738960087299347
  vertex -0.103812001645565 0.6699579954147339 0.2753959894180298
  endloop
 endfacet

 facet normal 0.5305817127227783 -0.4548631012439728 0.7152500152587891
  outer loop
  vertex -0.09770060330629349 0.6742219924926758 0.2738960087299347
  vertex -0.09894990175962448 0.6750850081443787 0.2753959894180298
  vertex -0.103812001645565 0.6699579954147339 0.2753959894180298
  endloop
 endfacet

 facet normal 0.2952663004398346 -0.6327791213989258 0.7158270478248596
  outer loop
  vertex -0.1094269976019859 0.6652380228042603 0.2738960087299347
  vertex -0.1028899997472763 0.6687510013580322 0.2738960087299347
  vertex -0.1099189966917038 0.6666769981384277 0.2753959894180298
  endloop
 endfacet

 facet normal 0.3621378540992737 -0.5971319675445557 0.7157440781593323
  outer loop
  vertex -0.1028899997472763 0.6687510013580322 0.2738960087299347
  vertex -0.103812001645565 0.6699579954147339 0.2753959894180298
  vertex -0.1099189966917038 0.6666769981384277 0.2753959894180298
  endloop
 endfacet

 facet normal 0.07614777237176895 -0.6938058733940125 0.716124951839447
  outer loop
  vertex -0.1166749969124794 0.664027988910675 0.2738960087299347
  vertex -0.1094269976019859 0.6652380228042603 0.2738960087299347
  vertex -0.1166749969124794 0.6655480265617371 0.2753959894180298
  endloop
 endfacet

 facet normal 0.1522955447435379 -0.6811872124671936 0.7160936594009399
  outer loop
  vertex -0.1094269976019859 0.6652380228042603 0.2738960087299347
  vertex -0.1099189966917038 0.6666769981384277 0.2753959894180298
  vertex -0.1166749969124794 0.6655480265617371 0.2753959894180298
  endloop
 endfacet

 facet normal -0.1522762328386307 -0.6811891794204712 0.7160957455635071
  outer loop
  vertex -0.1239230036735535 0.6652380228042603 0.2738960087299347
  vertex -0.1166749969124794 0.664027988910675 0.2738960087299347
  vertex -0.123430997133255 0.6666769981384277 0.2753959894180298
  endloop
 endfacet

 facet normal -0.07613811641931534 -0.6938063502311707 0.71612548828125
  outer loop
  vertex -0.1166749969124794 0.664027988910675 0.2738960087299347
  vertex -0.1166749969124794 0.6655480265617371 0.2753959894180298
  vertex -0.123430997133255 0.6666769981384277 0.2753959894180298
  endloop
 endfacet

 facet normal -0.3621313869953156 -0.5971276164054871 0.7157509922981262
  outer loop
  vertex -0.1304610073566437 0.6687510013580322 0.2738960087299347
  vertex -0.1239230036735535 0.6652380228042603 0.2738960087299347
  vertex -0.1295389980077744 0.6699579954147339 0.2753959894180298
  endloop
 endfacet

 facet normal -0.2952476441860199 -0.632783055305481 0.7158312797546387
  outer loop
  vertex -0.1239230036735535 0.6652380228042603 0.2738960087299347
  vertex -0.123430997133255 0.6666769981384277 0.2753959894180298
  vertex -0.1295389980077744 0.6699579954147339 0.2753959894180298
  endloop
 endfacet

 facet normal -0.530580997467041 -0.4548638463020325 0.7152500748634338
  outer loop
  vertex -0.1356499940156937 0.6742219924926758 0.2738960087299347
  vertex -0.1304610073566437 0.6687510013580322 0.2738960087299347
  vertex -0.1344009935855865 0.6750850081443787 0.2753959894180298
  endloop
 endfacet

 facet normal -0.4797275960445404 -0.508080780506134 0.7153428196907043
  outer loop
  vertex -0.1304610073566437 0.6687510013580322 0.2738960087299347
  vertex -0.1295389980077744 0.6699579954147339 0.2753959894180298
  vertex -0.1344009935855865 0.6750850081443787 0.2753959894180298
  endloop
 endfacet

 facet normal -0.643903374671936 -0.2728963196277618 0.7147839069366455
  outer loop
  vertex -0.1389809995889664 0.681115984916687 0.2738960087299347
  vertex -0.1356499940156937 0.6742219924926758 0.2738960087299347
  vertex -0.1375319957733154 0.6815639734268188 0.2753959894180298
  endloop
 endfacet

 facet normal -0.6125805974006653 -0.3372205197811127 0.7148617506027222
  outer loop
  vertex -0.1356499940156937 0.6742219924926758 0.2738960087299347
  vertex -0.1344009935855865 0.6750850081443787 0.2753959894180298
  vertex -0.1375319957733154 0.6815639734268188 0.2753959894180298
  endloop
 endfacet

 facet normal -0.6961405277252197 -0.06950852274894714 0.7145326137542725
  outer loop
  vertex -0.1401289999485016 0.6887580156326294 0.2738960087299347
  vertex -0.1389809995889664 0.681115984916687 0.2738960087299347
  vertex -0.1386120021343231 0.6887580156326294 0.2753959894180298
  endloop
 endfacet

 facet normal -0.6856240630149841 -0.1390270888805389 0.7145565748214722
  outer loop
  vertex -0.1389809995889664 0.681115984916687 0.2738960087299347
  vertex -0.1375319957733154 0.6815639734268188 0.2753959894180298
  vertex -0.1386120021343231 0.6887580156326294 0.2753959894180298
  endloop
 endfacet

 facet normal -0.6856230497360229 0.1390371173620224 0.7145555019378662
  outer loop
  vertex -0.1389809995889664 0.696399986743927 0.2738960087299347
  vertex -0.1401289999485016 0.6887580156326294 0.2738960087299347
  vertex -0.1375319957733154 0.6959530115127563 0.2753959894180298
  endloop
 endfacet

 facet normal -0.6961400508880615 0.0695185586810112 0.7145321369171143
  outer loop
  vertex -0.1401289999485016 0.6887580156326294 0.2738960087299347
  vertex -0.1386120021343231 0.6887580156326294 0.2753959894180298
  vertex -0.1375319957733154 0.6959530115127563 0.2753959894180298
  endloop
 endfacet

 facet normal -0.6125805974006653 0.3372205197811127 0.7148617506027222
  outer loop
  vertex -0.1356499940156937 0.7032939791679382 0.2738960087299347
  vertex -0.1389809995889664 0.696399986743927 0.2738960087299347
  vertex -0.1344009935855865 0.7024319767951965 0.2753959894180298
  endloop
 endfacet

 facet normal -0.643901526927948 0.2729060649871826 0.7147818803787231
  outer loop
  vertex -0.1389809995889664 0.696399986743927 0.2738960087299347
  vertex -0.1375319957733154 0.6959530115127563 0.2753959894180298
  vertex -0.1344009935855865 0.7024319767951965 0.2753959894180298
  endloop
 endfacet

 facet normal -0.4797275960445404 0.508080780506134 0.7153428196907043
  outer loop
  vertex -0.1304610073566437 0.708765983581543 0.2738960087299347
  vertex -0.1356499940156937 0.7032939791679382 0.2738960087299347
  vertex -0.1295389980077744 0.7075579762458801 0.2753959894180298
  endloop
 endfacet

 facet normal -0.5305790901184082 0.4548712372779846 0.7152467966079712
  outer loop
  vertex -0.1356499940156937 0.7032939791679382 0.2738960087299347
  vertex -0.1344009935855865 0.7024319767951965 0.2753959894180298
  vertex -0.1295389980077744 0.7075579762458801 0.2753959894180298
  endloop
 endfacet

 facet normal -0.29525026679039 0.63277667760849 0.7158358097076416
  outer loop
  vertex -0.1239230036735535 0.7122780084609985 0.2738960087299347
  vertex -0.1304610073566437 0.708765983581543 0.2738960087299347
  vertex -0.123430997133255 0.7108399868011475 0.2753959894180298
  endloop
 endfacet

 facet normal -0.3621313869953156 0.5971276164054871 0.7157509922981262
  outer loop
  vertex -0.1304610073566437 0.708765983581543 0.2738960087299347
  vertex -0.1295389980077744 0.7075579762458801 0.2753959894180298
  vertex -0.123430997133255 0.7108399868011475 0.2753959894180298
  endloop
 endfacet

 facet normal -0.1522762328386307 0.6811891794204712 0.7160957455635071
  outer loop
  vertex -0.123430997133255 0.7108399868011475 0.2753959894180298
  vertex -0.1166749969124794 0.7119680047035217 0.2753959894180298
  vertex -0.1239230036735535 0.7122780084609985 0.2738960087299347
  endloop
 endfacet

 facet normal -0.07613811641931534 0.6938063502311707 0.71612548828125
  outer loop
  vertex -0.1166749969124794 0.7119680047035217 0.2753959894180298
  vertex -0.1166749969124794 0.7134889960289001 0.2738960087299347
  vertex -0.1239230036735535 0.7122780084609985 0.2738960087299347
  endloop
 endfacet

 facet normal 0.2181689441204071 0.9759110808372498 0
  outer loop
  vertex -0.1094269976019859 0.7122780084609985 0.2738960087299347
  vertex -0.1094269976019859 0.7122780084609985 0.2700940072536469
  vertex -0.1166749969124794 0.7134889960289001 0.2738960087299347
  endloop
 endfacet

 facet normal 0.109084464609623 0.9940325021743774 0
  outer loop
  vertex -0.1094269976019859 0.7122780084609985 0.2700940072536469
  vertex -0.1166749969124794 0.7134889960289001 0.2700940072536469
  vertex -0.1166749969124794 0.7134889960289001 0.2738960087299347
  endloop
 endfacet

endsolid AssimpScene
