# SSTK version 0.7.3
# 2
mtllib 2.mtl
o Part2
v -3.661299929902384e-9 0.8468729853630066 -0.10358499735593796
v -0.01559509988874197 0.8468729853630066 -0.10776299983263016
v -3.661299929902384e-9 0.8435890078544617 -0.10358499735593796
v -0.01559509988874197 0.8468729853630066 -0.10776299983263016
v -0.01559509988874197 0.8435890078544617 -0.10776299983263016
v -3.661299929902384e-9 0.8435890078544617 -0.10358499735593796
v 0.027011500671505928 0.8468729853630066 -0.11918000131845474
v 0.01559509988874197 0.8468729853630066 -0.10776299983263016
v 0.027011500671505928 0.8435890078544617 -0.11918000131845474
v 0.01559509988874197 0.8468729853630066 -0.10776299983263016
v 0.01559509988874197 0.8435890078544617 -0.10776299983263016
v 0.027011500671505928 0.8435890078544617 -0.11918000131845474
v -0.027011500671505928 0.8468729853630066 -0.11918000131845474
v -0.03119019977748394 0.8468729853630066 -0.13477499783039093
v -0.027011500671505928 0.8435890078544617 -0.11918000131845474
v -0.03119019977748394 0.8468729853630066 -0.13477499783039093
v -0.03119019977748394 0.8435890078544617 -0.13477499783039093
v -0.027011500671505928 0.8435890078544617 -0.11918000131845474
v 0.03119019977748394 0.8468729853630066 -0.13477499783039093
v 0.027011500671505928 0.8468729853630066 -0.11918000131845474
v 0.03119019977748394 0.8435890078544617 -0.13477499783039093
v 0.027011500671505928 0.8468729853630066 -0.11918000131845474
v 0.027011500671505928 0.8435890078544617 -0.11918000131845474
v 0.03119019977748394 0.8435890078544617 -0.13477499783039093
v -0.01559509988874197 0.8468729853630066 -0.10776299983263016
v -0.027011500671505928 0.8468729853630066 -0.11918000131845474
v -0.01559509988874197 0.8435890078544617 -0.10776299983263016
v -0.027011500671505928 0.8468729853630066 -0.11918000131845474
v -0.027011500671505928 0.8435890078544617 -0.11918000131845474
v -0.01559509988874197 0.8435890078544617 -0.10776299983263016
v -0.027011500671505928 0.8468729853630066 -0.15037000179290771
v -0.01559509988874197 0.8468729853630066 -0.1617860049009323
v -0.027011500671505928 0.8435890078544617 -0.15037000179290771
v -0.01559509988874197 0.8468729853630066 -0.1617860049009323
v -0.01559509988874197 0.8435890078544617 -0.1617860049009323
v -0.027011500671505928 0.8435890078544617 -0.15037000179290771
v -0.01559509988874197 0.8468729853630066 -0.1617860049009323
v 1.0482900103525594e-9 0.8468729853630066 -0.1659650057554245
v -0.01559509988874197 0.8435890078544617 -0.1617860049009323
v 1.0482900103525594e-9 0.8468729853630066 -0.1659650057554245
v 1.0482900103525594e-9 0.8435890078544617 -0.1659650057554245
v -0.01559509988874197 0.8435890078544617 -0.1617860049009323
v -0.023020999506115913 0.9845470190048218 -0.12148399651050568
v -0.023020999506115913 0.8483729958534241 -0.12148399651050568
v -0.013291199691593647 0.9845470190048218 -0.11175400018692017
v -0.023020999506115913 0.8483729958534241 -0.12148399651050568
v -0.013291199691593647 0.8483729958534241 -0.11175400018692017
v -0.013291199691593647 0.9845470190048218 -0.11175400018692017
v -0.013291199691593647 0.9845470190048218 -0.1577959954738617
v 1.1944599753732632e-9 0.9845470190048218 -0.16135700047016144
v -0.013291199691593647 0.8483729958534241 -0.1577959954738617
v 1.1944599753732632e-9 0.9845470190048218 -0.16135700047016144
v 1.1944599753732632e-9 0.8483729958534241 -0.16135700047016144
v -0.013291199691593647 0.8483729958534241 -0.1577959954738617
v 0.023020999506115913 0.9845470190048218 -0.12148399651050568
v 0.013291199691593647 0.9845470190048218 -0.11175400018692017
v 0.023020999506115913 0.8483729958534241 -0.12148399651050568
v 0.013291199691593647 0.9845470190048218 -0.11175400018692017
v 0.013291199691593647 0.8483729958534241 -0.11175400018692017
v 0.023020999506115913 0.8483729958534241 -0.12148399651050568
v 0.013291199691593647 0.9845470190048218 -0.11175400018692017
v -2.8193800627462906e-9 0.9845470190048218 -0.10819199681282043
v 0.013291199691593647 0.8483729958534241 -0.11175400018692017
v -2.8193800627462906e-9 0.9845470190048218 -0.10819199681282043
v -2.8193800627462906e-9 0.8483729958534241 -0.10819199681282043
v 0.013291199691593647 0.8483729958534241 -0.11175400018692017
v -0.023020999506115913 0.9845470190048218 -0.14806599915027618
v -0.023020999506115913 0.8483729958534241 -0.14806599915027618
v -0.026582399383187294 0.9845470190048218 -0.13477499783039093
v -0.023020999506115913 0.8483729958534241 -0.14806599915027618
v -0.026582399383187294 0.8483729958534241 -0.13477499783039093
v -0.026582399383187294 0.9845470190048218 -0.13477499783039093
v 0.013291199691593647 0.9845470190048218 -0.1577959954738617
v 0.013291199691593647 0.8483729958534241 -0.1577959954738617
v 1.1944599753732632e-9 0.9845470190048218 -0.16135700047016144
v 0.013291199691593647 0.8483729958534241 -0.1577959954738617
v 1.1944599753732632e-9 0.8483729958534241 -0.16135700047016144
v 1.1944599753732632e-9 0.9845470190048218 -0.16135700047016144
v -0.023020999506115913 0.9845470190048218 -0.12148399651050568
v -0.026582399383187294 0.9845470190048218 -0.13477499783039093
v -0.023020999506115913 0.8483729958534241 -0.12148399651050568
v -0.026582399383187294 0.9845470190048218 -0.13477499783039093
v -0.026582399383187294 0.8483729958534241 -0.13477499783039093
v -0.023020999506115913 0.8483729958534241 -0.12148399651050568
v 0.023021100088953972 0.9845470190048218 -0.14806599915027618
v 0.026582399383187294 0.9845470190048218 -0.13477499783039093
v 0.023021100088953972 0.8483729958534241 -0.14806599915027618
v 0.026582399383187294 0.9845470190048218 -0.13477499783039093
v 0.026582399383187294 0.8483729958534241 -0.13477499783039093
v 0.023021100088953972 0.8483729958534241 -0.14806599915027618
v -0.023020999506115913 0.9845470190048218 -0.14806599915027618
v -0.013291199691593647 0.9845470190048218 -0.1577959954738617
v -0.023020999506115913 0.8483729958534241 -0.14806599915027618
v -0.013291199691593647 0.9845470190048218 -0.1577959954738617
v -0.013291199691593647 0.8483729958534241 -0.1577959954738617
v -0.023020999506115913 0.8483729958534241 -0.14806599915027618
v 0.023020999506115913 0.9845470190048218 -0.12148399651050568
v 0.023020999506115913 0.8483729958534241 -0.12148399651050568
v 0.026582399383187294 0.9845470190048218 -0.13477499783039093
v 0.023020999506115913 0.8483729958534241 -0.12148399651050568
v 0.026582399383187294 0.8483729958534241 -0.13477499783039093
v 0.026582399383187294 0.9845470190048218 -0.13477499783039093
v 0.023021100088953972 0.9845470190048218 -0.14806599915027618
v 0.023021100088953972 0.8483729958534241 -0.14806599915027618
v 0.013291199691593647 0.9845470190048218 -0.1577959954738617
v 0.023021100088953972 0.8483729958534241 -0.14806599915027618
v 0.013291199691593647 0.8483729958534241 -0.1577959954738617
v 0.013291199691593647 0.9845470190048218 -0.1577959954738617
v 0.01559509988874197 0.8468729853630066 -0.1617860049009323
v 0.01559509988874197 0.8435890078544617 -0.1617860049009323
v 1.0482900103525594e-9 0.8468729853630066 -0.1659650057554245
v 0.01559509988874197 0.8435890078544617 -0.1617860049009323
v 1.0482900103525594e-9 0.8435890078544617 -0.1659650057554245
v 1.0482900103525594e-9 0.8468729853630066 -0.1659650057554245
v -0.03119019977748394 0.8468729853630066 -0.13477499783039093
v -0.027011500671505928 0.8468729853630066 -0.15037000179290771
v -0.03119019977748394 0.8435890078544617 -0.13477499783039093
v -0.027011500671505928 0.8468729853630066 -0.15037000179290771
v -0.027011500671505928 0.8435890078544617 -0.15037000179290771
v -0.03119019977748394 0.8435890078544617 -0.13477499783039093
v -0.025666700676083565 0.8483729958534241 -0.14959299564361572
v -0.029637299478054047 0.8483729958534241 -0.13477499783039093
v -0.023020999506115913 0.8483729958534241 -0.14806599915027618
v -0.029637299478054047 0.8483729958534241 -0.13477499783039093
v -0.026582399383187294 0.8483729958534241 -0.13477499783039093
v -0.023020999506115913 0.8483729958534241 -0.14806599915027618
v -0.014818700030446053 0.8483729958534241 -0.10910800099372864
v -3.6379799173147376e-9 0.8483729958534241 -0.10513699799776077
v -0.013291199691593647 0.8483729958534241 -0.11175400018692017
v -3.6379799173147376e-9 0.8483729958534241 -0.10513699799776077
v -2.8193800627462906e-9 0.8483729958534241 -0.10819199681282043
v -0.013291199691593647 0.8483729958534241 -0.11175400018692017
v 0 0.8483729958534241 -0.1644120067358017
v -0.014818600378930569 0.8483729958534241 -0.16044099628925323
v 1.1944599753732632e-9 0.8483729958534241 -0.16135700047016144
v -0.014818600378930569 0.8483729958534241 -0.16044099628925323
v -0.013291199691593647 0.8483729958534241 -0.1577959954738617
v 1.1944599753732632e-9 0.8483729958534241 -0.16135700047016144
v 0.014818700030446053 0.8483729958534241 -0.10910800099372864
v 0.025666700676083565 0.8483729958534241 -0.11995600163936615
v 0.013291199691593647 0.8483729958534241 -0.11175400018692017
v 0.025666700676083565 0.8483729958534241 -0.11995600163936615
v 0.023020999506115913 0.8483729958534241 -0.12148399651050568
v 0.013291199691593647 0.8483729958534241 -0.11175400018692017
v 0.025666700676083565 0.8483729958534241 -0.14959299564361572
v 0.014818700030446053 0.8483729958534241 -0.16044099628925323
v 0.023021100088953972 0.8483729958534241 -0.14806599915027618
v 0.014818700030446053 0.8483729958534241 -0.16044099628925323
v 0.013291199691593647 0.8483729958534241 -0.1577959954738617
v 0.023021100088953972 0.8483729958534241 -0.14806599915027618
v 0.027011500671505928 0.8468729853630066 -0.15037000179290771
v 0.03119019977748394 0.8468729853630066 -0.13477499783039093
v 0.027011500671505928 0.8435890078544617 -0.15037000179290771
v 0.03119019977748394 0.8468729853630066 -0.13477499783039093
v 0.03119019977748394 0.8435890078544617 -0.13477499783039093
v 0.027011500671505928 0.8435890078544617 -0.15037000179290771
v 0.01559509988874197 0.8468729853630066 -0.10776299983263016
v -3.661299929902384e-9 0.8468729853630066 -0.10358499735593796
v 0.01559509988874197 0.8435890078544617 -0.10776299983263016
v -3.661299929902384e-9 0.8468729853630066 -0.10358499735593796
v -3.661299929902384e-9 0.8435890078544617 -0.10358499735593796
v 0.01559509988874197 0.8435890078544617 -0.10776299983263016
v -0.025666700676083565 0.8483729958534241 -0.11995600163936615
v -0.014818700030446053 0.8483729958534241 -0.10910800099372864
v -0.023020999506115913 0.8483729958534241 -0.12148399651050568
v -0.014818700030446053 0.8483729958534241 -0.10910800099372864
v -0.013291199691593647 0.8483729958534241 -0.11175400018692017
v -0.023020999506115913 0.8483729958534241 -0.12148399651050568
v 0.025666700676083565 0.8483729958534241 -0.11995600163936615
v 0.029637299478054047 0.8483729958534241 -0.13477499783039093
v 0.023020999506115913 0.8483729958534241 -0.12148399651050568
v 0.029637299478054047 0.8483729958534241 -0.13477499783039093
v 0.026582399383187294 0.8483729958534241 -0.13477499783039093
v 0.023020999506115913 0.8483729958534241 -0.12148399651050568
v 0.01559509988874197 0.8468729853630066 -0.1617860049009323
v 0.027011500671505928 0.8468729853630066 -0.15037000179290771
v 0.01559509988874197 0.8435890078544617 -0.1617860049009323
v 0.027011500671505928 0.8468729853630066 -0.15037000179290771
v 0.027011500671505928 0.8435890078544617 -0.15037000179290771
v 0.01559509988874197 0.8435890078544617 -0.1617860049009323
v 0.014818700030446053 0.8483729958534241 -0.16044099628925323
v 0 0.8483729958534241 -0.1644120067358017
v 0.013291199691593647 0.8483729958534241 -0.1577959954738617
v 0 0.8483729958534241 -0.1644120067358017
v 1.1944599753732632e-9 0.8483729958534241 -0.16135700047016144
v 0.013291199691593647 0.8483729958534241 -0.1577959954738617
v 0.029637299478054047 0.8483729958534241 -0.13477499783039093
v 0.025666700676083565 0.8483729958534241 -0.14959299564361572
v 0.026582399383187294 0.8483729958534241 -0.13477499783039093
v 0.025666700676083565 0.8483729958534241 -0.14959299564361572
v 0.023021100088953972 0.8483729958534241 -0.14806599915027618
v 0.026582399383187294 0.8483729958534241 -0.13477499783039093
v -0.014818600378930569 0.8483729958534241 -0.16044099628925323
v -0.025666700676083565 0.8483729958534241 -0.14959299564361572
v -0.013291199691593647 0.8483729958534241 -0.1577959954738617
v -0.025666700676083565 0.8483729958534241 -0.14959299564361572
v -0.023020999506115913 0.8483729958534241 -0.14806599915027618
v -0.013291199691593647 0.8483729958534241 -0.1577959954738617
v -0.029637299478054047 0.8483729958534241 -0.13477499783039093
v -0.025666700676083565 0.8483729958534241 -0.11995600163936615
v -0.026582399383187294 0.8483729958534241 -0.13477499783039093
v -0.025666700676083565 0.8483729958534241 -0.11995600163936615
v -0.023020999506115913 0.8483729958534241 -0.12148399651050568
v -0.026582399383187294 0.8483729958534241 -0.13477499783039093
v -0.013291199691593647 0.9845470190048218 -0.11175400018692017
v -0.013291199691593647 0.8483729958534241 -0.11175400018692017
v -2.8193800627462906e-9 0.9845470190048218 -0.10819199681282043
v -0.013291199691593647 0.8483729958534241 -0.11175400018692017
v -2.8193800627462906e-9 0.8483729958534241 -0.10819199681282043
v -2.8193800627462906e-9 0.9845470190048218 -0.10819199681282043
v 0.01559509988874197 0.8468729853630066 -0.10776299983263016
v 0.027011500671505928 0.8468729853630066 -0.11918000131845474
v 0.014818700030446053 0.8483729958534241 -0.10910800099372864
v 0.027011500671505928 0.8468729853630066 -0.11918000131845474
v 0.025666700676083565 0.8483729958534241 -0.11995600163936615
v 0.014818700030446053 0.8483729958534241 -0.10910800099372864
v -3.661299929902384e-9 0.8468729853630066 -0.10358499735593796
v 0.01559509988874197 0.8468729853630066 -0.10776299983263016
v -3.6379799173147376e-9 0.8483729958534241 -0.10513699799776077
v 0.01559509988874197 0.8468729853630066 -0.10776299983263016
v 0.014818700030446053 0.8483729958534241 -0.10910800099372864
v -3.6379799173147376e-9 0.8483729958534241 -0.10513699799776077
v 0.01559509988874197 0.8468729853630066 -0.1617860049009323
v 1.0482900103525594e-9 0.8468729853630066 -0.1659650057554245
v 0.014818700030446053 0.8483729958534241 -0.16044099628925323
v 1.0482900103525594e-9 0.8468729853630066 -0.1659650057554245
v 0 0.8483729958534241 -0.1644120067358017
v 0.014818700030446053 0.8483729958534241 -0.16044099628925323
v -0.01559509988874197 0.8468729853630066 -0.1617860049009323
v -0.027011500671505928 0.8468729853630066 -0.15037000179290771
v -0.014818600378930569 0.8483729958534241 -0.16044099628925323
v -0.027011500671505928 0.8468729853630066 -0.15037000179290771
v -0.025666700676083565 0.8483729958534241 -0.14959299564361572
v -0.014818600378930569 0.8483729958534241 -0.16044099628925323
v 1.0482900103525594e-9 0.8468729853630066 -0.1659650057554245
v -0.01559509988874197 0.8468729853630066 -0.1617860049009323
v 0 0.8483729958534241 -0.1644120067358017
v -0.01559509988874197 0.8468729853630066 -0.1617860049009323
v -0.014818600378930569 0.8483729958534241 -0.16044099628925323
v 0 0.8483729958534241 -0.1644120067358017
v 0.027011500671505928 0.8468729853630066 -0.15037000179290771
v 0.01559509988874197 0.8468729853630066 -0.1617860049009323
v 0.025666700676083565 0.8483729958534241 -0.14959299564361572
v 0.01559509988874197 0.8468729853630066 -0.1617860049009323
v 0.014818700030446053 0.8483729958534241 -0.16044099628925323
v 0.025666700676083565 0.8483729958534241 -0.14959299564361572
v -0.027011500671505928 0.8468729853630066 -0.11918000131845474
v -0.01559509988874197 0.8468729853630066 -0.10776299983263016
v -0.025666700676083565 0.8483729958534241 -0.11995600163936615
v -0.01559509988874197 0.8468729853630066 -0.10776299983263016
v -0.014818700030446053 0.8483729958534241 -0.10910800099372864
v -0.025666700676083565 0.8483729958534241 -0.11995600163936615
v -0.01559509988874197 0.8468729853630066 -0.10776299983263016
v -3.661299929902384e-9 0.8468729853630066 -0.10358499735593796
v -0.014818700030446053 0.8483729958534241 -0.10910800099372864
v -3.661299929902384e-9 0.8468729853630066 -0.10358499735593796
v -3.6379799173147376e-9 0.8483729958534241 -0.10513699799776077
v -0.014818700030446053 0.8483729958534241 -0.10910800099372864
v 0.03119019977748394 0.8468729853630066 -0.13477499783039093
v 0.027011500671505928 0.8468729853630066 -0.15037000179290771
v 0.029637299478054047 0.8483729958534241 -0.13477499783039093
v 0.027011500671505928 0.8468729853630066 -0.15037000179290771
v 0.025666700676083565 0.8483729958534241 -0.14959299564361572
v 0.029637299478054047 0.8483729958534241 -0.13477499783039093
v 0.027011500671505928 0.8468729853630066 -0.11918000131845474
v 0.03119019977748394 0.8468729853630066 -0.13477499783039093
v 0.025666700676083565 0.8483729958534241 -0.11995600163936615
v 0.03119019977748394 0.8468729853630066 -0.13477499783039093
v 0.029637299478054047 0.8483729958534241 -0.13477499783039093
v 0.025666700676083565 0.8483729958534241 -0.11995600163936615
v -0.027011500671505928 0.8468729853630066 -0.15037000179290771
v -0.03119019977748394 0.8468729853630066 -0.13477499783039093
v -0.025666700676083565 0.8483729958534241 -0.14959299564361572
v -0.03119019977748394 0.8468729853630066 -0.13477499783039093
v -0.029637299478054047 0.8483729958534241 -0.13477499783039093
v -0.025666700676083565 0.8483729958534241 -0.14959299564361572
v -0.03119019977748394 0.8468729853630066 -0.13477499783039093
v -0.027011500671505928 0.8468729853630066 -0.11918000131845474
v -0.029637299478054047 0.8483729958534241 -0.13477499783039093
v -0.027011500671505928 0.8468729853630066 -0.11918000131845474
v -0.025666700676083565 0.8483729958534241 -0.11995600163936615
v -0.029637299478054047 0.8483729958534241 -0.13477499783039093
v -3.6379799173147376e-9 0.8483729958534241 -0.10513699799776077
v 0.014818700030446053 0.8483729958534241 -0.10910800099372864
v -2.8193800627462906e-9 0.8483729958534241 -0.10819199681282043
v 0.014818700030446053 0.8483729958534241 -0.10910800099372864
v 0.013291199691593647 0.8483729958534241 -0.11175400018692017
v -2.8193800627462906e-9 0.8483729958534241 -0.10819199681282043
vn 0 0.36924775217635114 0.9293309945938055
vn -0.46465703177904516 0.3692533402735342 0.8048265735642212
vn 0 0 1
vn -0.49998935729423327 0 0.8660315482662854
vn 0.8048265735642212 0.3692533402735342 0.46465703177904516
vn 0.46465703177904516 0.3692533402735342 0.8048265735642212
vn 0.8660315482662854 0 0.49998935729423327
vn 0.49998935729423327 0 0.8660315482662854
vn -0.8048265735642212 0.3692533402735342 0.46465703177904516
vn -0.9293309945938055 0.36924775217635114 0
vn -0.8660315482662854 0 0.49998935729423327
vn -1 0 0
vn 0.9293309945938055 0.36924775217635114 0
vn 1 0 0
vn -0.8048265735642212 0.3692533402735342 -0.46465703177904516
vn -0.46465703177904516 0.3692533402735342 -0.8048265735642212
vn -0.8660315482662854 0 -0.49998935729423327
vn -0.49998935729423327 0 -0.8660315482662854
vn 0 0.36924775217635114 -0.9293309945938055
vn 0 0 -1
vn 0.49998935729423327 0 -0.8660315482662854
vn 0.8660315482662854 0 -0.49998935729423327
vn 0.46465703177904516 0.3692533402735342 -0.8048265735642212
vn -0.36867264020107926 0.9048641878190408 -0.21284098752297057
vn -0.4257106859617071 0.9048593326357488 0
vn 0 1 0
vn -0.2128386324931863 0.9048541757337848 0.36869857224508384
vn 0 0.9048593326357488 0.4257106859617071
vn 0 0.9048593326357488 -0.4257106859617071
vn -0.2128386324931863 0.9048541757337848 -0.36869857224508384
vn 0.2128386324931863 0.9048541757337848 0.36869857224508384
vn 0.36869857224508384 0.9048541757337848 0.2128386324931863
vn 0.36869857224508384 0.9048541757337848 -0.2128386324931863
vn 0.2128386324931863 0.9048541757337848 -0.36869857224508384
vn 0.8048265735642212 0.3692533402735342 -0.46465703177904516
vn -0.36869857224508384 0.9048541757337848 0.2128386324931863
vn 0.4257106859617071 0.9048593326357488 0
usemtl material_0_2
f 1//1 2//2 3//3
f 4//2 5//4 6//3
f 7//5 8//6 9//7
f 10//6 11//8 12//7
f 13//9 14//10 15//11
f 16//10 17//12 18//11
f 19//13 20//5 21//14
f 22//5 23//7 24//14
f 25//2 26//9 27//4
f 28//9 29//11 30//4
f 31//15 32//16 33//17
f 34//16 35//18 36//17
f 37//16 38//19 39//18
f 40//19 41//20 42//18
f 43//11 44//11 45//4
f 46//11 47//4 48//4
f 49//18 50//20 51//18
f 52//20 53//20 54//18
f 55//7 56//8 57//7
f 58//8 59//8 60//7
f 61//8 62//3 63//8
f 64//3 65//3 66//8
f 67//17 68//17 69//12
f 70//17 71//12 72//12
f 73//21 74//21 75//20
f 76//21 77//20 78//20
f 79//11 80//12 81//11
f 82//12 83//12 84//11
f 85//22 86//14 87//22
f 88//14 89//14 90//22
f 91//17 92//18 93//17
f 94//18 95//18 96//17
f 97//7 98//7 99//14
f 100//7 101//14 102//14
f 103//22 104//22 105//21
f 106//22 107//21 108//21
f 109//23 110//21 111//19
f 112//21 113//20 114//19
f 115//10 116//15 117//12
f 118//15 119//17 120//12
f 121//24 122//25 123//26
f 124//25 125//26 126//26
f 127//27 128//28 129//26
f 130//28 131//26 132//26
f 133//29 134//30 135//26
f 136//30 137//26 138//26
f 139//31 140//32 141//26
f 142//32 143//26 144//26
f 145//33 146//34 147//26
f 148//34 149//26 150//26
f 151//35 152//13 153//22
f 154//13 155//14 156//22
f 157//6 158//1 159//8
f 160//1 161//3 162//8
f 163//36 164//27 165//26
f 166//27 167//26 168//26
f 169//32 170//37 171//26
f 172//37 173//26 174//26
f 175//23 176//35 177//21
f 178//35 179//22 180//21
f 181//34 182//29 183//26
f 184//29 185//26 186//26
f 187//37 188//33 189//26
f 190//33 191//26 192//26
f 193//30 194//24 195//26
f 196//24 197//26 198//26
f 199//25 200//36 201//26
f 202//36 203//26 204//26
f 205//4 206//4 207//3
f 208//4 209//3 210//3
f 211//6 212//5 213//31
f 214//5 215//32 216//31
f 217//1 218//6 219//28
f 220//6 221//31 222//28
f 223//23 224//19 225//34
f 226//19 227//29 228//34
f 229//16 230//15 231//30
f 232//15 233//24 234//30
f 235//19 236//16 237//29
f 238//16 239//30 240//29
f 241//35 242//23 243//33
f 244//23 245//34 246//33
f 247//9 248//2 249//36
f 250//2 251//27 252//36
f 253//2 254//1 255//27
f 256//1 257//28 258//27
f 259//13 260//35 261//37
f 262//35 263//33 264//37
f 265//5 266//13 267//32
f 268//13 269//37 270//32
f 271//15 272//10 273//24
f 274//10 275//25 276//24
f 277//10 278//9 279//25
f 280//9 281//36 282//25
f 283//28 284//31 285//26
f 286//31 287//26 288//26
