# SSTK version 0.7.3
# 6
mtllib 6.mtl
o part14:faucet handle 1
v -0.024731900542974472 0.9805409908294678 -0.14905400574207306
v -0.024731900542974472 1.007290005683899 -0.14905400574207306
v -0.014278899878263474 0.9805409908294678 -0.15950700640678406
v -0.024731900542974472 1.007290005683899 -0.14905400574207306
v -0.014278899878263474 1.007290005683899 -0.15950700640678406
v -0.014278899878263474 0.9805409908294678 -0.15950700640678406
v -0.028557900339365005 0.9805409908294678 -0.13477499783039093
v -0.028557900339365005 1.007290005683899 -0.13477499783039093
v -0.024731900542974472 0.9805409908294678 -0.14905400574207306
v -0.028557900339365005 1.007290005683899 -0.13477499783039093
v -0.024731900542974472 1.007290005683899 -0.14905400574207306
v -0.024731900542974472 0.9805409908294678 -0.14905400574207306
v -0.024731900542974472 0.9805409908294678 -0.1204959973692894
v -0.024731900542974472 1.007290005683899 -0.1204959973692894
v -0.028557900339365005 0.9805409908294678 -0.13477499783039093
v -0.024731900542974472 1.007290005683899 -0.1204959973692894
v -0.028557900339365005 1.007290005683899 -0.13477499783039093
v -0.028557900339365005 0.9805409908294678 -0.13477499783039093
v -0.014278899878263474 0.9805409908294678 -0.1100429967045784
v -0.014278899878263474 1.007290005683899 -0.1100429967045784
v -0.024731900542974472 0.9805409908294678 -0.1204959973692894
v -0.014278899878263474 1.007290005683899 -0.1100429967045784
v -0.024731900542974472 1.007290005683899 -0.1204959973692894
v -0.024731900542974472 0.9805409908294678 -0.1204959973692894
v 0.014279000461101532 0.9805409908294678 -0.15950700640678406
v 0.014279000461101532 1.007290005683899 -0.15950700640678406
v 0.024731900542974472 0.9805409908294678 -0.14905400574207306
v 0.014279000461101532 1.007290005683899 -0.15950700640678406
v 0.024731900542974472 1.007290005683899 -0.14905400574207306
v 0.024731900542974472 0.9805409908294678 -0.14905400574207306
v -0.014278899878263474 0.9805409908294678 -0.15950700640678406
v -0.014278899878263474 1.007290005683899 -0.15950700640678406
v 1.129169979741107e-9 0.9805409908294678 -0.163332998752594
v -0.014278899878263474 1.007290005683899 -0.15950700640678406
v 1.129169979741107e-9 1.007290005683899 -0.163332998752594
v 1.129169979741107e-9 0.9805409908294678 -0.163332998752594
v 0.014279000461101532 0.9805409908294678 -0.15950700640678406
v 1.129169979741107e-9 0.9805409908294678 -0.163332998752594
v 0.014279000461101532 1.007290005683899 -0.15950700640678406
v 1.129169979741107e-9 0.9805409908294678 -0.163332998752594
v 1.129169979741107e-9 1.007290005683899 -0.163332998752594
v 0.014279000461101532 1.007290005683899 -0.15950700640678406
v -0.024079199880361557 1.008239984512329 -0.1486770063638687
v -0.013902099803090096 1.008239984512329 -0.15885399281978607
v -0.024731900542974472 1.007290005683899 -0.14905400574207306
v -0.013902099803090096 1.008239984512329 -0.15885399281978607
v -0.014278899878263474 1.007290005683899 -0.15950700640678406
v -0.024731900542974472 1.007290005683899 -0.14905400574207306
v -0.02780430018901825 1.008239984512329 -0.13477499783039093
v -0.024079199880361557 1.008239984512329 -0.1486770063638687
v -0.028557900339365005 1.007290005683899 -0.13477499783039093
v -0.024079199880361557 1.008239984512329 -0.1486770063638687
v -0.024731900542974472 1.007290005683899 -0.14905400574207306
v -0.028557900339365005 1.007290005683899 -0.13477499783039093
v -0.024079199880361557 1.008239984512329 -0.12087299674749374
v -0.02780430018901825 1.008239984512329 -0.13477499783039093
v -0.024731900542974472 1.007290005683899 -0.1204959973692894
v -0.02780430018901825 1.008239984512329 -0.13477499783039093
v -0.028557900339365005 1.007290005683899 -0.13477499783039093
v -0.024731900542974472 1.007290005683899 -0.1204959973692894
v -0.013902099803090096 1.008239984512329 -0.11069600284099579
v -0.024079199880361557 1.008239984512329 -0.12087299674749374
v -0.014278899878263474 1.007290005683899 -0.1100429967045784
v -0.024079199880361557 1.008239984512329 -0.12087299674749374
v -0.024731900542974472 1.007290005683899 -0.1204959973692894
v -0.014278899878263474 1.007290005683899 -0.1100429967045784
v 0.013902200385928154 1.008239984512329 -0.15885399281978607
v 0.024079199880361557 1.008239984512329 -0.1486770063638687
v 0.014279000461101532 1.007290005683899 -0.15950700640678406
v 0.024079199880361557 1.008239984512329 -0.1486770063638687
v 0.024731900542974472 1.007290005683899 -0.14905400574207306
v 0.014279000461101532 1.007290005683899 -0.15950700640678406
v -0.013902099803090096 1.008239984512329 -0.15885399281978607
v 1.152209994081943e-9 1.008239984512329 -0.1625789999961853
v -0.014278899878263474 1.007290005683899 -0.15950700640678406
v 1.152209994081943e-9 1.008239984512329 -0.1625789999961853
v 1.129169979741107e-9 1.007290005683899 -0.163332998752594
v -0.014278899878263474 1.007290005683899 -0.15950700640678406
v 0.014279000461101532 1.007290005683899 -0.15950700640678406
v 1.129169979741107e-9 1.007290005683899 -0.163332998752594
v 0.013902200385928154 1.008239984512329 -0.15885399281978607
v 1.129169979741107e-9 1.007290005683899 -0.163332998752594
v 1.152209994081943e-9 1.008239984512329 -0.1625789999961853
v 0.013902200385928154 1.008239984512329 -0.15885399281978607
v 0.014278899878263474 0.9805409908294678 -0.1100429967045784
v -3.182949903646204e-9 0.9805409908294678 -0.10621699690818787
v -0.014278899878263474 0.9805409908294678 -0.1100429967045784
v 0.014278899878263474 0.9805409908294678 -0.1100429967045784
v -0.014278899878263474 0.9805409908294678 -0.1100429967045784
v -0.024731900542974472 0.9805409908294678 -0.1204959973692894
v 0.024731900542974472 0.9805409908294678 -0.1204959973692894
v 0.014278899878263474 0.9805409908294678 -0.1100429967045784
v -0.024731900542974472 0.9805409908294678 -0.1204959973692894
v 0.028557900339365005 0.9805409908294678 -0.13477499783039093
v 0.024731900542974472 0.9805409908294678 -0.1204959973692894
v -0.024731900542974472 0.9805409908294678 -0.1204959973692894
v 0.028557900339365005 0.9805409908294678 -0.13477499783039093
v -0.024731900542974472 0.9805409908294678 -0.1204959973692894
v -0.028557900339365005 0.9805409908294678 -0.13477499783039093
v 0.028557900339365005 0.9805409908294678 -0.13477499783039093
v -0.028557900339365005 0.9805409908294678 -0.13477499783039093
v -0.024731900542974472 0.9805409908294678 -0.14905400574207306
v 0.024731900542974472 0.9805409908294678 -0.14905400574207306
v 0.028557900339365005 0.9805409908294678 -0.13477499783039093
v -0.024731900542974472 0.9805409908294678 -0.14905400574207306
v -0.014278899878263474 0.9805409908294678 -0.15950700640678406
v 0.024731900542974472 0.9805409908294678 -0.14905400574207306
v -0.024731900542974472 0.9805409908294678 -0.14905400574207306
v -0.014278899878263474 0.9805409908294678 -0.15950700640678406
v 0.014279000461101532 0.9805409908294678 -0.15950700640678406
v 0.024731900542974472 0.9805409908294678 -0.14905400574207306
v -0.014278899878263474 0.9805409908294678 -0.15950700640678406
v 1.129169979741107e-9 0.9805409908294678 -0.163332998752594
v 0.014279000461101532 0.9805409908294678 -0.15950700640678406
v 0.0028389599174261093 1.007290005683899 -0.10979200154542923
v -0.0028389599174261093 1.007290005683899 -0.10979200154542923
v 0.0028389599174261093 1.007290005683899 -0.07243599742650986
v -0.0028389599174261093 1.007290005683899 -0.10979200154542923
v -0.0028389599174261093 1.007290005683899 -0.07243599742650986
v 0.0028389599174261093 1.007290005683899 -0.07243599742650986
v 0.003698640037328005 0.999871015548706 -0.11021000146865845
v 0.004210050217807293 1.0058000087738037 -0.10987599939107895
v 0.003698640037328005 0.999871015548706 -0.07243599742650986
v 0.004210050217807293 1.0058000087738037 -0.10987599939107895
v 0.004210059996694326 1.0058000087738037 -0.07243599742650986
v 0.003698640037328005 0.999871015548706 -0.07243599742650986
v 0.0020697300788015127 0.9983770251274109 -0.07243599742650986
v -0.00206974009051919 0.9983770251274109 -0.07243599742650986
v 0.0020697300788015127 0.9983770251274109 -0.11029399931430817
v -0.00206974009051919 0.9983770251274109 -0.07243599742650986
v -0.00206974009051919 0.9983770251274109 -0.11029399931430817
v 0.0020697300788015127 0.9983770251274109 -0.11029399931430817
v 0.024731900542974472 0.9805409908294678 -0.1204959973692894
v 0.024731900542974472 1.007290005683899 -0.1204959973692894
v 0.014278899878263474 0.9805409908294678 -0.1100429967045784
v 0.024731900542974472 1.007290005683899 -0.1204959973692894
v 0.014278899878263474 1.007290005683899 -0.1100429967045784
v 0.014278899878263474 0.9805409908294678 -0.1100429967045784
v 0.028557900339365005 0.9805409908294678 -0.13477499783039093
v 0.028557900339365005 1.007290005683899 -0.13477499783039093
v 0.024731900542974472 0.9805409908294678 -0.1204959973692894
v 0.028557900339365005 1.007290005683899 -0.13477499783039093
v 0.024731900542974472 1.007290005683899 -0.1204959973692894
v 0.024731900542974472 0.9805409908294678 -0.1204959973692894
v 0.024731900542974472 0.9805409908294678 -0.14905400574207306
v 0.024731900542974472 1.007290005683899 -0.14905400574207306
v 0.028557900339365005 0.9805409908294678 -0.13477499783039093
v 0.024731900542974472 1.007290005683899 -0.14905400574207306
v 0.028557900339365005 1.007290005683899 -0.13477499783039093
v 0.028557900339365005 0.9805409908294678 -0.13477499783039093
v -0.014278899878263474 0.9805409908294678 -0.1100429967045784
v -3.182949903646204e-9 0.9805409908294678 -0.10621699690818787
v -0.014278899878263474 1.007290005683899 -0.1100429967045784
v -3.182949903646204e-9 0.9805409908294678 -0.10621699690818787
v 0 1.007290005683899 -0.10621699690818787
v -0.014278899878263474 1.007290005683899 -0.1100429967045784
v 0.013902099803090096 1.008239984512329 -0.11069600284099579
v -3.0461200228870666e-9 1.008239984512329 -0.10696999728679657
v 0.014278899878263474 1.007290005683899 -0.1100429967045784
v -3.0461200228870666e-9 1.008239984512329 -0.10696999728679657
v 0 1.007290005683899 -0.10621699690818787
v 0.014278899878263474 1.007290005683899 -0.1100429967045784
v 0.024079199880361557 1.008239984512329 -0.12087299674749374
v 0.013902099803090096 1.008239984512329 -0.11069600284099579
v 0.024731900542974472 1.007290005683899 -0.1204959973692894
v 0.013902099803090096 1.008239984512329 -0.11069600284099579
v 0.014278899878263474 1.007290005683899 -0.1100429967045784
v 0.024731900542974472 1.007290005683899 -0.1204959973692894
v 0.02780430018901825 1.008239984512329 -0.13477499783039093
v 0.024079199880361557 1.008239984512329 -0.12087299674749374
v 0.028557900339365005 1.007290005683899 -0.13477499783039093
v 0.024079199880361557 1.008239984512329 -0.12087299674749374
v 0.024731900542974472 1.007290005683899 -0.1204959973692894
v 0.028557900339365005 1.007290005683899 -0.13477499783039093
v 0.024079199880361557 1.008239984512329 -0.1486770063638687
v 0.02780430018901825 1.008239984512329 -0.13477499783039093
v 0.024731900542974472 1.007290005683899 -0.14905400574207306
v 0.02780430018901825 1.008239984512329 -0.13477499783039093
v 0.028557900339365005 1.007290005683899 -0.13477499783039093
v 0.024731900542974472 1.007290005683899 -0.14905400574207306
v -3.0461200228870666e-9 1.008239984512329 -0.10696999728679657
v -0.013902099803090096 1.008239984512329 -0.11069600284099579
v 0 1.007290005683899 -0.10621699690818787
v -0.013902099803090096 1.008239984512329 -0.11069600284099579
v -0.014278899878263474 1.007290005683899 -0.1100429967045784
v 0 1.007290005683899 -0.10621699690818787
v 0.014278899878263474 0.9805409908294678 -0.1100429967045784
v 0.014278899878263474 1.007290005683899 -0.1100429967045784
v -3.182949903646204e-9 0.9805409908294678 -0.10621699690818787
v 0.014278899878263474 1.007290005683899 -0.1100429967045784
v 0 1.007290005683899 -0.10621699690818787
v -3.182949903646204e-9 0.9805409908294678 -0.10621699690818787
v -0.003698640037328005 0.999871015548706 -0.07243599742650986
v -0.004210059996694326 1.0058000087738037 -0.07243599742650986
v -0.003698640037328005 0.999871015548706 -0.11021000146865845
v -0.004210059996694326 1.0058000087738037 -0.07243599742650986
v -0.004210059996694326 1.0058000087738037 -0.10987599939107895
v -0.003698640037328005 0.999871015548706 -0.11021000146865845
v -0.013902099803090096 1.008239984512329 -0.11069600284099579
v -3.0461200228870666e-9 1.008239984512329 -0.10696999728679657
v 1.8626500342122654e-9 1.008239984512329 -0.13477499783039093
v 0.02780430018901825 1.008239984512329 -0.13477499783039093
v 0.024079199880361557 1.008239984512329 -0.1486770063638687
v 1.8626500342122654e-9 1.008239984512329 -0.13477499783039093
v -0.013902099803090096 1.008239984512329 -0.15885399281978607
v -0.024079199880361557 1.008239984512329 -0.1486770063638687
v 1.8626500342122654e-9 1.008239984512329 -0.13477499783039093
v -3.0461200228870666e-9 1.008239984512329 -0.10696999728679657
v 0.013902099803090096 1.008239984512329 -0.11069600284099579
v 1.8626500342122654e-9 1.008239984512329 -0.13477499783039093
v 0.013902099803090096 1.008239984512329 -0.11069600284099579
v 0.024079199880361557 1.008239984512329 -0.12087299674749374
v 1.8626500342122654e-9 1.008239984512329 -0.13477499783039093
v 0.024079199880361557 1.008239984512329 -0.12087299674749374
v 0.02780430018901825 1.008239984512329 -0.13477499783039093
v 1.8626500342122654e-9 1.008239984512329 -0.13477499783039093
v 1.152209994081943e-9 1.008239984512329 -0.1625789999961853
v -0.013902099803090096 1.008239984512329 -0.15885399281978607
v 1.8626500342122654e-9 1.008239984512329 -0.13477499783039093
v -0.024079199880361557 1.008239984512329 -0.12087299674749374
v -0.013902099803090096 1.008239984512329 -0.11069600284099579
v 1.8626500342122654e-9 1.008239984512329 -0.13477499783039093
v 0.013902200385928154 1.008239984512329 -0.15885399281978607
v 1.152209994081943e-9 1.008239984512329 -0.1625789999961853
v 1.8626500342122654e-9 1.008239984512329 -0.13477499783039093
v -0.02780430018901825 1.008239984512329 -0.13477499783039093
v -0.024079199880361557 1.008239984512329 -0.12087299674749374
v 1.8626500342122654e-9 1.008239984512329 -0.13477499783039093
v 0.024079199880361557 1.008239984512329 -0.1486770063638687
v 0.013902200385928154 1.008239984512329 -0.15885399281978607
v 1.8626500342122654e-9 1.008239984512329 -0.13477499783039093
v -0.024079199880361557 1.008239984512329 -0.1486770063638687
v -0.02780430018901825 1.008239984512329 -0.13477499783039093
v 1.8626500342122654e-9 1.008239984512329 -0.13477499783039093
v 0.0020697300788015127 0.9983770251274109 -0.07243599742650986
v 0.003698640037328005 0.999871015548706 -0.07243599742650986
v 0.0021935401018708944 0.9998769760131836 -0.07093600183725357
v -0.0021935501135885715 0.9998769760131836 -0.07093600183725357
v -0.003698640037328005 0.999871015548706 -0.07243599742650986
v -0.00206974009051919 0.9983770251274109 -0.07243599742650986
v -0.0028389599174261093 1.007290005683899 -0.07243599742650986
v -0.004210059996694326 1.0058000087738037 -0.07243599742650986
v -0.002704010112211108 1.0057899951934814 -0.07093600183725357
v 0.002704010112211108 1.0057899951934814 -0.07093600183725357
v 0.004210059996694326 1.0058000087738037 -0.07243599742650986
v 0.0028389599174261093 1.007290005683899 -0.07243599742650986
v -0.0021935501135885715 0.9998769760131836 -0.07093600183725357
v -0.002704010112211108 1.0057899951934814 -0.07093600183725357
v -0.003698640037328005 0.999871015548706 -0.07243599742650986
v -0.002704010112211108 1.0057899951934814 -0.07093600183725357
v -0.004210059996694326 1.0058000087738037 -0.07243599742650986
v -0.003698640037328005 0.999871015548706 -0.07243599742650986
v 0.003698640037328005 0.999871015548706 -0.07243599742650986
v 0.004210059996694326 1.0058000087738037 -0.07243599742650986
v 0.0021935401018708944 0.9998769760131836 -0.07093600183725357
v 0.004210059996694326 1.0058000087738037 -0.07243599742650986
v 0.002704010112211108 1.0057899951934814 -0.07093600183725357
v 0.0021935401018708944 0.9998769760131836 -0.07093600183725357
v -0.00206974009051919 0.9983770251274109 -0.07243599742650986
v 0.0020697300788015127 0.9983770251274109 -0.07243599742650986
v -0.0021935501135885715 0.9998769760131836 -0.07093600183725357
v 0.0020697300788015127 0.9983770251274109 -0.07243599742650986
v 0.0021935401018708944 0.9998769760131836 -0.07093600183725357
v -0.0021935501135885715 0.9998769760131836 -0.07093600183725357
v 0.0028389599174261093 1.007290005683899 -0.07243599742650986
v -0.0028389599174261093 1.007290005683899 -0.07243599742650986
v 0.002704010112211108 1.0057899951934814 -0.07093600183725357
v -0.0028389599174261093 1.007290005683899 -0.07243599742650986
v -0.002704010112211108 1.0057899951934814 -0.07093600183725357
v 0.002704010112211108 1.0057899951934814 -0.07093600183725357
v -0.004210059996694326 1.0058000087738037 -0.10987599939107895
v -0.004210059996694326 1.0058000087738037 -0.07243599742650986
v -0.0028389599174261093 1.007290005683899 -0.10979200154542923
v -0.004210059996694326 1.0058000087738037 -0.07243599742650986
v -0.0028389599174261093 1.007290005683899 -0.07243599742650986
v -0.0028389599174261093 1.007290005683899 -0.10979200154542923
v -0.00206974009051919 0.9983770251274109 -0.11029399931430817
v -0.00206974009051919 0.9983770251274109 -0.07243599742650986
v -0.003698640037328005 0.999871015548706 -0.11021000146865845
v -0.00206974009051919 0.9983770251274109 -0.07243599742650986
v -0.003698640037328005 0.999871015548706 -0.07243599742650986
v -0.003698640037328005 0.999871015548706 -0.11021000146865845
v 0.0020697300788015127 0.9983770251274109 -0.07243599742650986
v 0.0020697300788015127 0.9983770251274109 -0.11029399931430817
v 0.003698640037328005 0.999871015548706 -0.07243599742650986
v 0.0020697300788015127 0.9983770251274109 -0.11029399931430817
v 0.003698640037328005 0.999871015548706 -0.11021000146865845
v 0.003698640037328005 0.999871015548706 -0.07243599742650986
v 0.0028389599174261093 1.007290005683899 -0.10979200154542923
v 0.0028389599174261093 1.007290005683899 -0.07243599742650986
v 0.004210050217807293 1.0058000087738037 -0.10987599939107895
v 0.0028389599174261093 1.007290005683899 -0.07243599742650986
v 0.004210059996694326 1.0058000087738037 -0.07243599742650986
v 0.004210050217807293 1.0058000087738037 -0.10987599939107895
v -0.002704010112211108 1.0057899951934814 -0.07093600183725357
v -0.0021935501135885715 0.9998769760131836 -0.07093600183725357
v 0.002704010112211108 1.0057899951934814 -0.07093600183725357
v -0.0021935501135885715 0.9998769760131836 -0.07093600183725357
v 0.0021935401018708944 0.9998769760131836 -0.07093600183725357
v 0.002704010112211108 1.0057899951934814 -0.07093600183725357
vn -0.8660315482662854 0 -0.49998935729423327
vn -0.49998935729423327 0 -0.8660315482662854
vn -1 0 0
vn -0.8660315482662854 0 0.49998935729423327
vn -0.49998935729423327 0 0.8660315482662854
vn 0.49998935729423327 0 -0.8660315482662854
vn 0.8660315482662854 0 -0.49998935729423327
vn 0 0 -1
vn -0.423790469162314 0.872087576526947 -0.24467304125003655
vn -0.24467304125003655 0.872087576526947 -0.423790469162314
vn -0.6777120487692563 0.6225945849369305 -0.3912574111249378
vn -0.3912574111249378 0.6225945849369305 -0.6777120487692563
vn -0.48936980516121714 0.8720763692455338 0
vn -0.7825450452497746 0.6225939705418196 0
vn -0.423790469162314 0.872087576526947 0.24467304125003655
vn -0.6777120487692563 0.6225945849369305 0.3912574111249378
vn -0.24467304125003655 0.872087576526947 0.423790469162314
vn -0.3912574111249378 0.6225945849369305 0.6777120487692563
vn 0.24467304125003655 0.872087576526947 -0.423790469162314
vn 0.423790469162314 0.872087576526947 -0.24467304125003655
vn 0.3912574111249378 0.6225945849369305 -0.6777120487692563
vn 0.6777120487692563 0.6225945849369305 -0.3912574111249378
vn 0 0.8720763692455338 -0.48936980516121714
vn 0 0.6225939705418196 -0.7825450452497746
vn 0 -1 0
vn 0 1 0
vn 0.9963027103275767 -0.08591221911884793 0
vn 0.8660315482662854 0 0.49998935729423327
vn 0.49998935729423327 0 0.8660315482662854
vn 1 0 0
vn 0 0 1
vn 0.24467304125003655 0.872087576526947 0.423790469162314
vn 0 0.8720763692455338 0.48936980516121714
vn 0.3912574111249378 0.6225945849369305 0.6777120487692563
vn 0 0.6225939705418196 0.7825450452497746
vn 0.423790469162314 0.872087576526947 0.24467304125003655
vn 0.6777120487692563 0.6225945849369305 0.3912574111249378
vn 0.48936980516121714 0.8720763692455338 0
vn 0.7825450452497746 0.6225939705418196 0
vn -0.9963027103275767 -0.08591221911884793 0
vn 0.43270675080288584 -0.7767242854911045 0.45767264735610136
vn 0.7366693722639244 -0.4978570345065907 0.45766429745019327
vn 0.45236133271511086 -0.4930447883861743 0.7431527846341163
vn -0.45236133271511086 -0.4930447883861743 0.7431527846341163
vn -0.7366693722639244 -0.4978570345065907 0.45766429745019327
vn -0.43270675080288584 -0.7767242854911045 0.45767264735610136
vn -0.48843289619348196 0.7385394908563947 0.46475017629004156
vn -0.7777759663977614 0.42317649889579617 0.46474315151094453
vn -0.4648356414228589 0.4264739154224997 0.7759174092177606
vn 0.4648356414228589 0.4264739154224997 0.7759174092177606
vn 0.7777759663977614 0.42317649889579617 0.46474315151094453
vn 0.48843289619348196 0.7385394908563947 0.46475017629004156
vn -0.7368500789217901 0.6760561819796869 0
vn -0.6760393528406285 -0.736865519216922 0
vn 0.6760393528406285 -0.736865519216922 0
vn 0.7368500789217901 0.6760561819796869 0
usemtl material_0_2
f 1//1 2//1 3//2
f 4//1 5//2 6//2
f 7//3 8//3 9//1
f 10//3 11//1 12//1
f 13//4 14//4 15//3
f 16//4 17//3 18//3
f 19//5 20//5 21//4
f 22//5 23//4 24//4
f 25//6 26//6 27//7
f 28//6 29//7 30//7
f 31//2 32//2 33//8
f 34//2 35//8 36//8
f 37//6 38//8 39//6
f 40//8 41//8 42//6
f 43//9 44//10 45//11
f 46//10 47//12 48//11
f 49//13 50//9 51//14
f 52//9 53//11 54//14
f 55//15 56//13 57//16
f 58//13 59//14 60//16
f 61//17 62//15 63//18
f 64//15 65//16 66//18
f 67//19 68//20 69//21
f 70//20 71//22 72//21
f 73//10 74//23 75//12
f 76//23 77//24 78//12
f 79//21 80//24 81//19
f 82//24 83//23 84//19
f 85//25 86//25 87//25
f 88//25 89//25 90//25
f 91//25 92//25 93//25
f 94//25 95//25 96//25
f 97//25 98//25 99//25
f 100//25 101//25 102//25
f 103//25 104//25 105//25
f 106//25 107//25 108//25
f 109//25 110//25 111//25
f 112//25 113//25 114//25
f 115//26 116//26 117//26
f 118//26 119//26 120//26
f 121//27 122//27 123//27
f 124//27 125//27 126//27
f 127//25 128//25 129//25
f 130//25 131//25 132//25
f 133//28 134//28 135//29
f 136//28 137//29 138//29
f 139//30 140//30 141//28
f 142//30 143//28 144//28
f 145//7 146//7 147//30
f 148//7 149//30 150//30
f 151//5 152//31 153//5
f 154//31 155//31 156//5
f 157//32 158//33 159//34
f 160//33 161//35 162//34
f 163//36 164//32 165//37
f 166//32 167//34 168//37
f 169//38 170//36 171//39
f 172//36 173//37 174//39
f 175//20 176//38 177//22
f 178//38 179//39 180//22
f 181//33 182//17 183//35
f 184//17 185//18 186//35
f 187//29 188//29 189//31
f 190//29 191//31 192//31
f 193//40 194//40 195//40
f 196//40 197//40 198//40
f 199//17 200//33 201//26
f 202//38 203//20 204//26
f 205//10 206//9 207//26
f 208//33 209//32 210//26
f 211//32 212//36 213//26
f 214//36 215//38 216//26
f 217//23 218//10 219//26
f 220//15 221//17 222//26
f 223//19 224//23 225//26
f 226//13 227//15 228//26
f 229//20 230//19 231//26
f 232//9 233//13 234//26
f 235//41 236//42 237//43
f 238//44 239//45 240//46
f 241//47 242//48 243//49
f 244//50 245//51 246//52
f 247//44 248//49 249//45
f 250//49 251//48 252//45
f 253//42 254//51 255//43
f 256//51 257//50 258//43
f 259//46 260//41 261//44
f 262//41 263//43 264//44
f 265//52 266//47 267//50
f 268//47 269//49 270//50
f 271//53 272//48 273//53
f 274//48 275//47 276//53
f 277//54 278//46 279//54
f 280//46 281//45 282//54
f 283//41 284//55 285//42
f 286//55 287//55 288//42
f 289//56 290//52 291//56
f 292//52 293//51 294//56
f 295//31 296//31 297//31
f 298//31 299//31 300//31
