# SSTK version 0.7.3
# 5
mtllib 5.mtl
o 8#8
v -0.2116370052099228 0.048575498163700104 0.1654690057039261
v -0.17429900169372559 0.048575498163700104 0.1654690057039261
v -0.2116370052099228 0.04250359907746315 0.14666299521923065
v -0.17429900169372559 0.048575498163700104 0.1654690057039261
v -0.17429900169372559 0.04250359907746315 0.14666299521923065
v -0.2116370052099228 0.04250359907746315 0.14666299521923065
v -0.2116370052099228 7.23288007264955e-9 0.1654690057039261
v -0.2116370052099228 0.00607194984331727 0.14666299521923065
v -0.17429900169372559 5.3702398083999014e-9 0.1654690057039261
v -0.2116370052099228 0.00607194984331727 0.14666299521923065
v -0.17429900169372559 0.00607194984331727 0.14666299521923065
v -0.17429900169372559 5.3702398083999014e-9 0.1654690057039261
v -0.21753500401973724 0.005168729927390814 0.1654690057039261
v -0.21726800501346588 0.010027900338172913 0.18039099872112274
v -0.2180439978837967 0.02428779937326908 0.1654690057039261
v -0.21726800501346588 0.010027900338172913 0.18039099872112274
v -0.21751299500465393 0.02428779937326908 0.18533800542354584
v -0.2180439978837967 0.02428779937326908 0.1654690057039261
v -0.16789300739765167 0.02428779937326908 0.1654690057039261
v -0.16842399537563324 0.02428779937326908 0.18533800542354584
v -0.16840200126171112 0.005168729927390814 0.1654690057039261
v -0.16842399537563324 0.02428779937326908 0.18533800542354584
v -0.1686529964208603 0.010027900338172913 0.18039099872112274
v -0.16840200126171112 0.005168729927390814 0.1654690057039261
v -0.16789300739765167 0.02428779937326908 0.1654690057039261
v -0.16842399537563324 0.02428779937326908 0.14560000598430634
v -0.16840200126171112 0.04340679943561554 0.1654690057039261
v -0.16842399537563324 0.02428779937326908 0.14560000598430634
v -0.1686529964208603 0.03854760155081749 0.15054699778556824
v -0.16840200126171112 0.04340679943561554 0.1654690057039261
v -0.21753500401973724 0.005168729927390814 0.1654690057039261
v -0.2180439978837967 0.02428779937326908 0.1654690057039261
v -0.21728399395942688 0.010027900338172913 0.15054699778556824
v -0.2180439978837967 0.02428779937326908 0.1654690057039261
v -0.21751299500465393 0.02428779937326908 0.14560000598430634
v -0.21728399395942688 0.010027900338172913 0.15054699778556824
v -0.21753500401973724 0.04340679943561554 0.1654690057039261
v -0.21726800501346588 0.03854760155081749 0.15054699778556824
v -0.2180439978837967 0.02428779937326908 0.1654690057039261
v -0.21726800501346588 0.03854760155081749 0.15054699778556824
v -0.21751299500465393 0.02428779937326908 0.14560000598430634
v -0.2180439978837967 0.02428779937326908 0.1654690057039261
v -0.21753500401973724 0.04340679943561554 0.1654690057039261
v -0.2180439978837967 0.02428779937326908 0.1654690057039261
v -0.21728399395942688 0.03854760155081749 0.18039099872112274
v -0.2180439978837967 0.02428779937326908 0.1654690057039261
v -0.21751299500465393 0.02428779937326908 0.18533800542354584
v -0.21728399395942688 0.03854760155081749 0.18039099872112274
v -0.2116370052099228 0.02428779937326908 0.14039400219917297
v -0.2116370052099228 0.04250359907746315 0.14666299521923065
v -0.17429900169372559 0.02428779937326908 0.14039400219917297
v -0.2116370052099228 0.04250359907746315 0.14666299521923065
v -0.17429900169372559 0.04250359907746315 0.14666299521923065
v -0.17429900169372559 0.02428779937326908 0.14039400219917297
v -0.16840200126171112 0.04340679943561554 0.1654690057039261
v -0.16866900026798248 0.03854760155081749 0.18039099872112274
v -0.16789300739765167 0.02428779937326908 0.1654690057039261
v -0.16866900026798248 0.03854760155081749 0.18039099872112274
v -0.16842399537563324 0.02428779937326908 0.18533800542354584
v -0.16789300739765167 0.02428779937326908 0.1654690057039261
v -0.2116370052099228 0.02428779937326908 0.190543994307518
v -0.17429900169372559 0.02428779937326908 0.190543994307518
v -0.2116370052099228 0.04250359907746315 0.18427599966526031
v -0.17429900169372559 0.02428779937326908 0.190543994307518
v -0.17429900169372559 0.04250359907746315 0.18427599966526031
v -0.2116370052099228 0.04250359907746315 0.18427599966526031
v -0.17429900169372559 0.02428779937326908 0.14039400219917297
v -0.17429900169372559 0.00607194984331727 0.14666299521923065
v -0.2116370052099228 0.02428779937326908 0.14039400219917297
v -0.17429900169372559 0.00607194984331727 0.14666299521923065
v -0.2116370052099228 0.00607194984331727 0.14666299521923065
v -0.2116370052099228 0.02428779937326908 0.14039400219917297
v -0.2116370052099228 7.23288007264955e-9 0.1654690057039261
v -0.17429900169372559 5.3702398083999014e-9 0.1654690057039261
v -0.2116370052099228 0.00607194984331727 0.18427599966526031
v -0.17429900169372559 5.3702398083999014e-9 0.1654690057039261
v -0.17429900169372559 0.00607194984331727 0.18427599966526031
v -0.2116370052099228 0.00607194984331727 0.18427599966526031
v -0.16840200126171112 0.005168729927390814 0.1654690057039261
v -0.16866900026798248 0.010027900338172913 0.15054699778556824
v -0.16789300739765167 0.02428779937326908 0.1654690057039261
v -0.16866900026798248 0.010027900338172913 0.15054699778556824
v -0.16842399537563324 0.02428779937326908 0.14560000598430634
v -0.16789300739765167 0.02428779937326908 0.1654690057039261
v -0.2116370052099228 0.048575498163700104 0.1654690057039261
v -0.2116370052099228 0.04250359907746315 0.18427599966526031
v -0.17429900169372559 0.048575498163700104 0.1654690057039261
v -0.2116370052099228 0.04250359907746315 0.18427599966526031
v -0.17429900169372559 0.04250359907746315 0.18427599966526031
v -0.17429900169372559 0.048575498163700104 0.1654690057039261
v -0.17429900169372559 5.3702398083999014e-9 0.1654690057039261
v -0.17429900169372559 0.00607194984331727 0.14666299521923065
v -0.1705009937286377 0.0016149400034919381 0.1654690057039261
v -0.17429900169372559 0.00607194984331727 0.14666299521923065
v -0.1705790013074875 0.007394180167466402 0.14796100556850433
v -0.1705009937286377 0.0016149400034919381 0.1654690057039261
v -0.1705009937286377 0.0016149400034919381 0.1654690057039261
v -0.1705790013074875 0.007394180167466402 0.14796100556850433
v -0.16840200126171112 0.005168729927390814 0.1654690057039261
v -0.1705790013074875 0.007394180167466402 0.14796100556850433
v -0.16866900026798248 0.010027900338172913 0.15054699778556824
v -0.16840200126171112 0.005168729927390814 0.1654690057039261
v -0.16840200126171112 0.005168729927390814 0.1654690057039261
v -0.1686529964208603 0.010027900338172913 0.18039099872112274
v -0.1705009937286377 0.0016149400034919381 0.1654690057039261
v -0.1686529964208603 0.010027900338172913 0.18039099872112274
v -0.17057499289512634 0.007394120097160339 0.18297700583934784
v -0.1705009937286377 0.0016149400034919381 0.1654690057039261
v -0.1705009937286377 0.0016149400034919381 0.1654690057039261
v -0.17057499289512634 0.007394120097160339 0.18297700583934784
v -0.17429900169372559 5.3702398083999014e-9 0.1654690057039261
v -0.17057499289512634 0.007394120097160339 0.18297700583934784
v -0.17429900169372559 0.00607194984331727 0.18427599966526031
v -0.17429900169372559 5.3702398083999014e-9 0.1654690057039261
v -0.17429900169372559 0.048575498163700104 0.1654690057039261
v -0.17429900169372559 0.04250359907746315 0.18427599966526031
v -0.1705009937286377 0.04696059972047806 0.1654690057039261
v -0.17429900169372559 0.04250359907746315 0.18427599966526031
v -0.1705790013074875 0.041181400418281555 0.18297700583934784
v -0.1705009937286377 0.04696059972047806 0.1654690057039261
v -0.1705009937286377 0.04696059972047806 0.1654690057039261
v -0.1705790013074875 0.041181400418281555 0.18297700583934784
v -0.16840200126171112 0.04340679943561554 0.1654690057039261
v -0.1705790013074875 0.041181400418281555 0.18297700583934784
v -0.16866900026798248 0.03854760155081749 0.18039099872112274
v -0.16840200126171112 0.04340679943561554 0.1654690057039261
v -0.16840200126171112 0.04340679943561554 0.1654690057039261
v -0.1686529964208603 0.03854760155081749 0.15054699778556824
v -0.1705009937286377 0.04696059972047806 0.1654690057039261
v -0.1686529964208603 0.03854760155081749 0.15054699778556824
v -0.17057499289512634 0.041181400418281555 0.14796100556850433
v -0.1705009937286377 0.04696059972047806 0.1654690057039261
v -0.1705009937286377 0.04696059972047806 0.1654690057039261
v -0.17057499289512634 0.041181400418281555 0.14796100556850433
v -0.17429900169372559 0.048575498163700104 0.1654690057039261
v -0.17057499289512634 0.041181400418281555 0.14796100556850433
v -0.17429900169372559 0.04250359907746315 0.14666299521923065
v -0.17429900169372559 0.048575498163700104 0.1654690057039261
v -0.17429900169372559 0.02428779937326908 0.14039400219917297
v -0.17429900169372559 0.04250359907746315 0.14666299521923065
v -0.17050699889659882 0.02428779937326908 0.14203299582004547
v -0.17429900169372559 0.04250359907746315 0.14666299521923065
v -0.17057499289512634 0.041181400418281555 0.14796100556850433
v -0.17050699889659882 0.02428779937326908 0.14203299582004547
v -0.17050699889659882 0.02428779937326908 0.14203299582004547
v -0.17057499289512634 0.041181400418281555 0.14796100556850433
v -0.16842399537563324 0.02428779937326908 0.14560000598430634
v -0.17057499289512634 0.041181400418281555 0.14796100556850433
v -0.1686529964208603 0.03854760155081749 0.15054699778556824
v -0.16842399537563324 0.02428779937326908 0.14560000598430634
v -0.16842399537563324 0.02428779937326908 0.14560000598430634
v -0.16866900026798248 0.010027900338172913 0.15054699778556824
v -0.17050699889659882 0.02428779937326908 0.14203299582004547
v -0.16866900026798248 0.010027900338172913 0.15054699778556824
v -0.1705790013074875 0.007394180167466402 0.14796100556850433
v -0.17050699889659882 0.02428779937326908 0.14203299582004547
v -0.17050699889659882 0.02428779937326908 0.14203299582004547
v -0.1705790013074875 0.007394180167466402 0.14796100556850433
v -0.17429900169372559 0.02428779937326908 0.14039400219917297
v -0.1705790013074875 0.007394180167466402 0.14796100556850433
v -0.17429900169372559 0.00607194984331727 0.14666299521923065
v -0.17429900169372559 0.02428779937326908 0.14039400219917297
v -0.17429900169372559 0.02428779937326908 0.190543994307518
v -0.17429900169372559 0.00607194984331727 0.18427599966526031
v -0.17050699889659882 0.02428779937326908 0.1889050006866455
v -0.17429900169372559 0.00607194984331727 0.18427599966526031
v -0.17057499289512634 0.007394120097160339 0.18297700583934784
v -0.17050699889659882 0.02428779937326908 0.1889050006866455
v -0.17050699889659882 0.02428779937326908 0.1889050006866455
v -0.17057499289512634 0.007394120097160339 0.18297700583934784
v -0.16842399537563324 0.02428779937326908 0.18533800542354584
v -0.17057499289512634 0.007394120097160339 0.18297700583934784
v -0.1686529964208603 0.010027900338172913 0.18039099872112274
v -0.16842399537563324 0.02428779937326908 0.18533800542354584
v -0.16842399537563324 0.02428779937326908 0.18533800542354584
v -0.16866900026798248 0.03854760155081749 0.18039099872112274
v -0.17050699889659882 0.02428779937326908 0.1889050006866455
v -0.16866900026798248 0.03854760155081749 0.18039099872112274
v -0.1705790013074875 0.041181400418281555 0.18297700583934784
v -0.17050699889659882 0.02428779937326908 0.1889050006866455
v -0.17050699889659882 0.02428779937326908 0.1889050006866455
v -0.1705790013074875 0.041181400418281555 0.18297700583934784
v -0.17429900169372559 0.02428779937326908 0.190543994307518
v -0.1705790013074875 0.041181400418281555 0.18297700583934784
v -0.17429900169372559 0.04250359907746315 0.18427599966526031
v -0.17429900169372559 0.02428779937326908 0.190543994307518
v -0.21753500401973724 0.005168729927390814 0.1654690057039261
v -0.21728399395942688 0.010027900338172913 0.15054699778556824
v -0.21543599665164948 0.0016149400034919381 0.1654690057039261
v -0.21728399395942688 0.010027900338172913 0.15054699778556824
v -0.21536199748516083 0.007394120097160339 0.14796100556850433
v -0.21543599665164948 0.0016149400034919381 0.1654690057039261
v -0.21543599665164948 0.0016149400034919381 0.1654690057039261
v -0.21536199748516083 0.007394120097160339 0.14796100556850433
v -0.2116370052099228 7.23288007264955e-9 0.1654690057039261
v -0.21536199748516083 0.007394120097160339 0.14796100556850433
v -0.2116370052099228 0.00607194984331727 0.14666299521923065
v -0.2116370052099228 7.23288007264955e-9 0.1654690057039261
v -0.2116370052099228 7.23288007264955e-9 0.1654690057039261
v -0.2116370052099228 0.00607194984331727 0.18427599966526031
v -0.21543599665164948 0.0016149400034919381 0.1654690057039261
v -0.2116370052099228 0.00607194984331727 0.18427599966526031
v -0.21535800397396088 0.007394180167466402 0.18297700583934784
v -0.21543599665164948 0.0016149400034919381 0.1654690057039261
v -0.21543599665164948 0.0016149400034919381 0.1654690057039261
v -0.21535800397396088 0.007394180167466402 0.18297700583934784
v -0.21753500401973724 0.005168729927390814 0.1654690057039261
v -0.21535800397396088 0.007394180167466402 0.18297700583934784
v -0.21726800501346588 0.010027900338172913 0.18039099872112274
v -0.21753500401973724 0.005168729927390814 0.1654690057039261
v -0.21753500401973724 0.04340679943561554 0.1654690057039261
v -0.21728399395942688 0.03854760155081749 0.18039099872112274
v -0.21543599665164948 0.04696059972047806 0.1654690057039261
v -0.21728399395942688 0.03854760155081749 0.18039099872112274
v -0.21536199748516083 0.041181400418281555 0.18297700583934784
v -0.21543599665164948 0.04696059972047806 0.1654690057039261
v -0.21543599665164948 0.04696059972047806 0.1654690057039261
v -0.21536199748516083 0.041181400418281555 0.18297700583934784
v -0.2116370052099228 0.048575498163700104 0.1654690057039261
v -0.21536199748516083 0.041181400418281555 0.18297700583934784
v -0.2116370052099228 0.04250359907746315 0.18427599966526031
v -0.2116370052099228 0.048575498163700104 0.1654690057039261
v -0.2116370052099228 0.048575498163700104 0.1654690057039261
v -0.2116370052099228 0.04250359907746315 0.14666299521923065
v -0.21543599665164948 0.04696059972047806 0.1654690057039261
v -0.2116370052099228 0.04250359907746315 0.14666299521923065
v -0.21535800397396088 0.041181400418281555 0.14796100556850433
v -0.21543599665164948 0.04696059972047806 0.1654690057039261
v -0.21543599665164948 0.04696059972047806 0.1654690057039261
v -0.21535800397396088 0.041181400418281555 0.14796100556850433
v -0.21753500401973724 0.04340679943561554 0.1654690057039261
v -0.21535800397396088 0.041181400418281555 0.14796100556850433
v -0.21726800501346588 0.03854760155081749 0.15054699778556824
v -0.21753500401973724 0.04340679943561554 0.1654690057039261
v -0.21751299500465393 0.02428779937326908 0.14560000598430634
v -0.21726800501346588 0.03854760155081749 0.15054699778556824
v -0.21543000638484955 0.02428779937326908 0.14203299582004547
v -0.21726800501346588 0.03854760155081749 0.15054699778556824
v -0.21535800397396088 0.041181400418281555 0.14796100556850433
v -0.21543000638484955 0.02428779937326908 0.14203299582004547
v -0.21543000638484955 0.02428779937326908 0.14203299582004547
v -0.21535800397396088 0.041181400418281555 0.14796100556850433
v -0.2116370052099228 0.02428779937326908 0.14039400219917297
v -0.21535800397396088 0.041181400418281555 0.14796100556850433
v -0.2116370052099228 0.04250359907746315 0.14666299521923065
v -0.2116370052099228 0.02428779937326908 0.14039400219917297
v -0.2116370052099228 0.02428779937326908 0.14039400219917297
v -0.2116370052099228 0.00607194984331727 0.14666299521923065
v -0.21543000638484955 0.02428779937326908 0.14203299582004547
v -0.2116370052099228 0.00607194984331727 0.14666299521923065
v -0.21536199748516083 0.007394120097160339 0.14796100556850433
v -0.21543000638484955 0.02428779937326908 0.14203299582004547
v -0.21543000638484955 0.02428779937326908 0.14203299582004547
v -0.21536199748516083 0.007394120097160339 0.14796100556850433
v -0.21751299500465393 0.02428779937326908 0.14560000598430634
v -0.21536199748516083 0.007394120097160339 0.14796100556850433
v -0.21728399395942688 0.010027900338172913 0.15054699778556824
v -0.21751299500465393 0.02428779937326908 0.14560000598430634
v -0.21751299500465393 0.02428779937326908 0.18533800542354584
v -0.21726800501346588 0.010027900338172913 0.18039099872112274
v -0.21543000638484955 0.02428779937326908 0.1889050006866455
v -0.21726800501346588 0.010027900338172913 0.18039099872112274
v -0.21535800397396088 0.007394180167466402 0.18297700583934784
v -0.21543000638484955 0.02428779937326908 0.1889050006866455
v -0.21543000638484955 0.02428779937326908 0.1889050006866455
v -0.21535800397396088 0.007394180167466402 0.18297700583934784
v -0.2116370052099228 0.02428779937326908 0.190543994307518
v -0.21535800397396088 0.007394180167466402 0.18297700583934784
v -0.2116370052099228 0.00607194984331727 0.18427599966526031
v -0.2116370052099228 0.02428779937326908 0.190543994307518
v -0.2116370052099228 0.02428779937326908 0.190543994307518
v -0.2116370052099228 0.04250359907746315 0.18427599966526031
v -0.21543000638484955 0.02428779937326908 0.1889050006866455
v -0.2116370052099228 0.04250359907746315 0.18427599966526031
v -0.21536199748516083 0.041181400418281555 0.18297700583934784
v -0.21543000638484955 0.02428779937326908 0.1889050006866455
v -0.21543000638484955 0.02428779937326908 0.1889050006866455
v -0.21536199748516083 0.041181400418281555 0.18297700583934784
v -0.21751299500465393 0.02428779937326908 0.18533800542354584
v -0.21536199748516083 0.041181400418281555 0.18297700583934784
v -0.21728399395942688 0.03854760155081749 0.18039099872112274
v -0.21751299500465393 0.02428779937326908 0.18533800542354584
v -0.2116370052099228 0.02428779937326908 0.190543994307518
v -0.2116370052099228 0.00607194984331727 0.18427599966526031
v -0.17429900169372559 0.02428779937326908 0.190543994307518
v -0.2116370052099228 0.00607194984331727 0.18427599966526031
v -0.17429900169372559 0.00607194984331727 0.18427599966526031
v -0.17429900169372559 0.02428779937326908 0.190543994307518
vn 0 1 0
vn 0 0.7138495474383655 -0.7002990958312318
vn 0 -1 0
vn 0 -0.7138495474383655 -0.7002990958312318
vn -0.9505526600120046 -0.310563400386126 0.00012200290699789609
vn -0.9460944839866361 -0.2310910019905441 0.22694090898087785
vn -1 0 0
vn -0.9503723841316366 -0.00012200338558316565 0.3111146357777516
vn 1 0 0
vn 0.9503723841316366 0.00012200338558316565 0.3111146357777516
vn 0.9505526600120046 -0.310563400386126 -0.00012200290699789609
vn 0.9460054897143595 -0.2312747496535934 0.22712464331939508
vn 0.9503723841316366 -0.00012200338558316565 -0.3111146357777516
vn 0.9505526600120046 0.310563400386126 0.00012200290699789609
vn 0.9460054897143595 0.2312747496535934 -0.22712464331939508
vn -0.9460054897143595 -0.2312747496535934 -0.22712464331939508
vn -0.9503723841316366 0.00012200338558316565 -0.3111146357777516
vn -0.9505526600120046 0.310563400386126 -0.00012200290699789609
vn -0.9460944839866361 0.2310910019905441 -0.22694090898087785
vn -0.9460054897143595 0.2312747496535934 0.22712464331939508
vn 0 0 -1
vn 0.9460944839866361 0.2310910019905441 0.22694090898087785
vn 0 0 1
vn 0 0.7138495474383655 0.7002990958312318
vn 0 -0.7138495474383655 0.7002990958312318
vn 0.9460944839866361 -0.2310910019905441 -0.22694090898087785
vn 0.40809730261169613 -0.912938438012694 0
vn 0.4293798492381897 -0.6446642762302244 -0.6324878781611157
vn 0.6438096038062248 -0.7651857245700597 -0.0000310010408171279
vn 0.6461268421197327 -0.5448637287900915 -0.5344563788947978
vn 0.6457932687257801 -0.5450479652178833 0.5346716466022088
vn 0.4291632427059802 -0.6447524199177024 0.63254504038871
vn 0.40809730261169613 0.912938438012694 0
vn 0.4293798492381897 0.6446642762302244 0.6324878781611157
vn 0.6438096038062248 0.7651857245700597 0.0000310010408171279
vn 0.6461268421197327 0.5448637287900915 0.5344563788947978
vn 0.6457932687257801 0.5450479652178833 -0.5346716466022088
vn 0.4291632427059802 0.6447524199177024 -0.63254504038871
vn 0.41203349141450846 0 -0.9111687011485688
vn 0.6451183256128321 -0.00003100088032917371 -0.7640826820426184
vn 0.41203349141450846 0 0.9111687011485688
vn 0.6451183256128321 0.00003100088032917371 0.7640826820426184
vn -0.6438096038062248 -0.7651857245700597 0.0000310010408171279
vn -0.6457932687257801 -0.5450479652178833 -0.5346716466022088
vn -0.40809730261169613 -0.912938438012694 0
vn -0.4291632427059802 -0.6447524199177024 -0.63254504038871
vn -0.4293798492381897 -0.6446642762302244 0.6324878781611157
vn -0.6461268421197327 -0.5448637287900915 0.5344563788947978
vn -0.6438096038062248 0.7651857245700597 -0.0000310010408171279
vn -0.6457932687257801 0.5450479652178833 0.5346716466022088
vn -0.40809730261169613 0.912938438012694 0
vn -0.4291632427059802 0.6447524199177024 0.63254504038871
vn -0.4293798492381897 0.6446642762302244 -0.6324878781611157
vn -0.6461268421197327 0.5448637287900915 -0.5344563788947978
vn -0.6451183256128321 0.00003100088032917371 -0.7640826820426184
vn -0.41203349141450846 0 -0.9111687011485688
vn -0.6451183256128321 -0.00003100088032917371 0.7640826820426184
vn -0.41203349141450846 0 0.9111687011485688
vt 0 0
usemtl material_0_2
f 1/1/1 2/1/1 3/1/2
f 4/1/1 5/1/2 6/1/2
f 7/1/3 8/1/4 9/1/3
f 10/1/4 11/1/4 12/1/3
f 13/1/5 14/1/6 15/1/7
f 16/1/6 17/1/8 18/1/7
f 19/1/9 20/1/10 21/1/11
f 22/1/10 23/1/12 24/1/11
f 25/1/9 26/1/13 27/1/14
f 28/1/13 29/1/15 30/1/14
f 31/1/5 32/1/7 33/1/16
f 34/1/7 35/1/17 36/1/16
f 37/1/18 38/1/19 39/1/7
f 40/1/19 41/1/17 42/1/7
f 43/1/18 44/1/7 45/1/20
f 46/1/7 47/1/8 48/1/20
f 49/1/21 50/1/2 51/1/21
f 52/1/2 53/1/2 54/1/21
f 55/1/14 56/1/22 57/1/9
f 58/1/22 59/1/10 60/1/9
f 61/1/23 62/1/23 63/1/24
f 64/1/23 65/1/24 66/1/24
f 67/1/21 68/1/4 69/1/21
f 70/1/4 71/1/4 72/1/21
f 73/1/3 74/1/3 75/1/25
f 76/1/3 77/1/25 78/1/25
f 79/1/11 80/1/26 81/1/9
f 82/1/26 83/1/13 84/1/9
f 85/1/1 86/1/24 87/1/1
f 88/1/24 89/1/24 90/1/1
f 91/1/27 92/1/28 93/1/29
f 94/1/28 95/1/30 96/1/29
f 97/1/29 98/1/30 99/1/11
f 100/1/30 101/1/26 102/1/11
f 103/1/11 104/1/12 105/1/29
f 106/1/12 107/1/31 108/1/29
f 109/1/29 110/1/31 111/1/27
f 112/1/31 113/1/32 114/1/27
f 115/1/33 116/1/34 117/1/35
f 118/1/34 119/1/36 120/1/35
f 121/1/35 122/1/36 123/1/14
f 124/1/36 125/1/22 126/1/14
f 127/1/14 128/1/15 129/1/35
f 130/1/15 131/1/37 132/1/35
f 133/1/35 134/1/37 135/1/33
f 136/1/37 137/1/38 138/1/33
f 139/1/39 140/1/38 141/1/40
f 142/1/38 143/1/37 144/1/40
f 145/1/40 146/1/37 147/1/13
f 148/1/37 149/1/15 150/1/13
f 151/1/13 152/1/26 153/1/40
f 154/1/26 155/1/30 156/1/40
f 157/1/40 158/1/30 159/1/39
f 160/1/30 161/1/28 162/1/39
f 163/1/41 164/1/32 165/1/42
f 166/1/32 167/1/31 168/1/42
f 169/1/42 170/1/31 171/1/10
f 172/1/31 173/1/12 174/1/10
f 175/1/10 176/1/22 177/1/42
f 178/1/22 179/1/36 180/1/42
f 181/1/42 182/1/36 183/1/41
f 184/1/36 185/1/34 186/1/41
f 187/1/5 188/1/16 189/1/43
f 190/1/16 191/1/44 192/1/43
f 193/1/43 194/1/44 195/1/45
f 196/1/44 197/1/46 198/1/45
f 199/1/45 200/1/47 201/1/43
f 202/1/47 203/1/48 204/1/43
f 205/1/43 206/1/48 207/1/5
f 208/1/48 209/1/6 210/1/5
f 211/1/18 212/1/20 213/1/49
f 214/1/20 215/1/50 216/1/49
f 217/1/49 218/1/50 219/1/51
f 220/1/50 221/1/52 222/1/51
f 223/1/51 224/1/53 225/1/49
f 226/1/53 227/1/54 228/1/49
f 229/1/49 230/1/54 231/1/18
f 232/1/54 233/1/19 234/1/18
f 235/1/17 236/1/19 237/1/55
f 238/1/19 239/1/54 240/1/55
f 241/1/55 242/1/54 243/1/56
f 244/1/54 245/1/53 246/1/56
f 247/1/56 248/1/46 249/1/55
f 250/1/46 251/1/44 252/1/55
f 253/1/55 254/1/44 255/1/17
f 256/1/44 257/1/16 258/1/17
f 259/1/8 260/1/6 261/1/57
f 262/1/6 263/1/48 264/1/57
f 265/1/57 266/1/48 267/1/58
f 268/1/48 269/1/47 270/1/58
f 271/1/58 272/1/52 273/1/57
f 274/1/52 275/1/50 276/1/57
f 277/1/57 278/1/50 279/1/8
f 280/1/50 281/1/20 282/1/8
f 283/1/23 284/1/25 285/1/23
f 286/1/25 287/1/25 288/1/23
