# SSTK version 0.7.3
# 8
mtllib 8.mtl
o 14#14
v -0.2055169939994812 0.05357550084590912 -0.10894899815320969
v -0.18041999638080597 0.05357540026307106 -0.10894899815320969
v -0.2055169939994812 0.04607269912958145 -0.13125699758529663
v -0.18041999638080597 0.05357540026307106 -0.10894899815320969
v -0.18041999638080597 0.04607269912958145 -0.13125699758529663
v -0.2055169939994812 0.04607269912958145 -0.13125699758529663
v -0.2055169939994812 0.024286799132823944 -0.13902400434017181
v -0.2055169939994812 0.04607269912958145 -0.13125699758529663
v -0.18041999638080597 0.024286799132823944 -0.13902400434017181
v -0.2055169939994812 0.04607269912958145 -0.13125699758529663
v -0.18041999638080597 0.04607269912958145 -0.13125699758529663
v -0.18041999638080597 0.024286799132823944 -0.13902400434017181
v -0.18041999638080597 0.04607269912958145 -0.08664079755544662
v -0.2055169939994812 0.04607269912958145 -0.08664079755544662
v -0.18041999638080597 0.024286799132823944 -0.0788734033703804
v -0.2055169939994812 0.04607269912958145 -0.08664079755544662
v -0.2055169939994812 0.024286799132823944 -0.0788734033703804
v -0.18041999638080597 0.024286799132823944 -0.0788734033703804
v -0.2055169939994812 0.04607269912958145 -0.08664079755544662
v -0.2055169939994812 0.05357550084590912 -0.10894899815320969
v -0.20869900286197662 0.044886499643325806 -0.08780580013990402
v -0.2055169939994812 0.05357550084590912 -0.10894899815320969
v -0.20869900286197662 0.05208500102162361 -0.10894899815320969
v -0.20869900286197662 0.044886499643325806 -0.08780580013990402
v -0.2055169939994812 0.05357550084590912 -0.10894899815320969
v -0.2055169939994812 0.04607269912958145 -0.13125699758529663
v -0.20869900286197662 0.05208500102162361 -0.10894899815320969
v -0.2055169939994812 0.04607269912958145 -0.13125699758529663
v -0.20869900286197662 0.044886499643325806 -0.13009199500083923
v -0.20869900286197662 0.05208500102162361 -0.10894899815320969
v -0.17723800241947174 0.044886499643325806 -0.08780580013990402
v -0.17723800241947174 0.05208490043878555 -0.10894899815320969
v -0.18041999638080597 0.04607269912958145 -0.08664079755544662
v -0.17723800241947174 0.05208490043878555 -0.10894899815320969
v -0.18041999638080597 0.05357540026307106 -0.10894899815320969
v -0.18041999638080597 0.04607269912958145 -0.08664079755544662
v -0.17723800241947174 0.05208490043878555 -0.10894899815320969
v -0.17723800241947174 0.044886499643325806 -0.13009199500083923
v -0.18041999638080597 0.05357540026307106 -0.10894899815320969
v -0.17723800241947174 0.044886499643325806 -0.13009199500083923
v -0.18041999638080597 0.04607269912958145 -0.13125699758529663
v -0.18041999638080597 0.05357540026307106 -0.10894899815320969
v -0.2055169939994812 0.04607269912958145 -0.13125699758529663
v -0.2055169939994812 0.024286799132823944 -0.13902400434017181
v -0.20869900286197662 0.044886499643325806 -0.13009199500083923
v -0.2055169939994812 0.024286799132823944 -0.13902400434017181
v -0.20869900286197662 0.02428710088133812 -0.13762499392032623
v -0.20869900286197662 0.044886499643325806 -0.13009199500083923
v -0.17591999471187592 0.04250359907746315 -0.09014210104942322
v -0.17591999471187592 0.048575498163700104 -0.10894899815320969
v -0.17723800241947174 0.044886499643325806 -0.08780580013990402
v -0.17591999471187592 0.048575498163700104 -0.10894899815320969
v -0.17723800241947174 0.05208490043878555 -0.10894899815320969
v -0.17723800241947174 0.044886499643325806 -0.08780580013990402
v -0.20869900286197662 0.044886499643325806 -0.08780580013990402
v -0.20869900286197662 0.05208500102162361 -0.10894899815320969
v -0.21001699566841125 0.04250359907746315 -0.09014210104942322
v -0.20869900286197662 0.05208500102162361 -0.10894899815320969
v -0.21001699566841125 0.048575498163700104 -0.10894899815320969
v -0.21001699566841125 0.04250359907746315 -0.09014210104942322
v -0.17723800241947174 0.044886499643325806 -0.13009199500083923
v -0.17723800241947174 0.02428710088133812 -0.13762499392032623
v -0.18041999638080597 0.04607269912958145 -0.13125699758529663
v -0.17723800241947174 0.02428710088133812 -0.13762499392032623
v -0.18041999638080597 0.024286799132823944 -0.13902400434017181
v -0.18041999638080597 0.04607269912958145 -0.13125699758529663
v -0.2055169939994812 0.024286799132823944 -0.0788734033703804
v -0.2055169939994812 0.04607269912958145 -0.08664079755544662
v -0.20869900286197662 0.02428710088133812 -0.08027280122041702
v -0.2055169939994812 0.04607269912958145 -0.08664079755544662
v -0.20869900286197662 0.044886499643325806 -0.08780580013990402
v -0.20869900286197662 0.02428710088133812 -0.08027280122041702
v -0.17591999471187592 0.048575498163700104 -0.10894899815320969
v -0.17591999471187592 0.042503900825977325 -0.12775200605392456
v -0.17723800241947174 0.05208490043878555 -0.10894899815320969
v -0.17591999471187592 0.042503900825977325 -0.12775200605392456
v -0.17723800241947174 0.044886499643325806 -0.13009199500083923
v -0.17723800241947174 0.05208490043878555 -0.10894899815320969
v -0.20869900286197662 0.05208500102162361 -0.10894899815320969
v -0.20869900286197662 0.044886499643325806 -0.13009199500083923
v -0.21001699566841125 0.048575498163700104 -0.10894899815320969
v -0.20869900286197662 0.044886499643325806 -0.13009199500083923
v -0.21001699566841125 0.042503900825977325 -0.12775200605392456
v -0.21001699566841125 0.048575498163700104 -0.10894899815320969
v -0.17723800241947174 0.02428710088133812 -0.08027280122041702
v -0.17723800241947174 0.044886499643325806 -0.08780580013990402
v -0.18041999638080597 0.024286799132823944 -0.0788734033703804
v -0.17723800241947174 0.044886499643325806 -0.08780580013990402
v -0.18041999638080597 0.04607269912958145 -0.08664079755544662
v -0.18041999638080597 0.024286799132823944 -0.0788734033703804
v -0.2055169939994812 0.04607269912958145 -0.08664079755544662
v -0.18041999638080597 0.04607269912958145 -0.08664079755544662
v -0.2055169939994812 0.05357550084590912 -0.10894899815320969
v -0.18041999638080597 0.04607269912958145 -0.08664079755544662
v -0.18041999638080597 0.05357540026307106 -0.10894899815320969
v -0.2055169939994812 0.05357550084590912 -0.10894899815320969
v -0.20869900286197662 0.044886499643325806 -0.13009199500083923
v -0.20869900286197662 0.02428710088133812 -0.13762499392032623
v -0.21001699566841125 0.042503900825977325 -0.12775200605392456
v -0.20869900286197662 0.02428710088133812 -0.13762499392032623
v -0.21001699566841125 0.02428779937326908 -0.1340239942073822
v -0.21001699566841125 0.042503900825977325 -0.12775200605392456
v -0.17591999471187592 0.042503900825977325 -0.12775200605392456
v -0.17591999471187592 0.02428779937326908 -0.1340239942073822
v -0.17723800241947174 0.044886499643325806 -0.13009199500083923
v -0.17591999471187592 0.02428779937326908 -0.1340239942073822
v -0.17723800241947174 0.02428710088133812 -0.13762499392032623
v -0.17723800241947174 0.044886499643325806 -0.13009199500083923
v -0.20869900286197662 0.02428710088133812 -0.08027280122041702
v -0.20869900286197662 0.044886499643325806 -0.08780580013990402
v -0.21001699566841125 0.02428779937326908 -0.08387330174446106
v -0.20869900286197662 0.044886499643325806 -0.08780580013990402
v -0.21001699566841125 0.04250359907746315 -0.09014210104942322
v -0.21001699566841125 0.02428779937326908 -0.08387330174446106
v -0.17591999471187592 0.02428779937326908 -0.08387330174446106
v -0.17591999471187592 0.04250359907746315 -0.09014210104942322
v -0.17723800241947174 0.02428710088133812 -0.08027280122041702
v -0.17591999471187592 0.04250359907746315 -0.09014210104942322
v -0.17723800241947174 0.044886499643325806 -0.08780580013990402
v -0.17723800241947174 0.02428710088133812 -0.08027280122041702
vn 0 1 0
vn 0 0.7134567414770389 -0.7006992778938521
vn 0 0.33582633047016547 -0.9419239224921211
vn 0 0.7134567414770389 0.7006992778938521
vn 0 0.3357988046863854 0.9419337358706263
vn -0.44661463527293505 0.6381824555475784 0.6271032777711232
vn -0.43459584334568613 0.9006255897689406 0
vn -0.6958187750839178 0.5127314507998908 0.5029340827597145
vn -0.6967158930748517 0.7173471714148677 0
vn -0.44661463527293505 0.6381824555475784 -0.6271032777711232
vn -0.6958458212157435 0.5126975451503575 -0.5029312281946559
vn 0.6958187750839178 0.5127314507998908 0.5029340827597145
vn 0.6967158930748517 0.7173471714148677 0
vn 0.44661463527293505 0.6381824555475784 0.6271032777711232
vn 0.43459584334568613 0.9006255897689406 0
vn 0.6958458212157435 0.5126975451503575 -0.5029312281946559
vn 0.44661463527293505 0.6381824555475784 -0.6271032777711232
vn -0.40450082632715695 0.310501771455311 -0.860213770770825
vn -0.670349528025805 0.25117094843195137 -0.6982439866832899
vn 0.9371147674696098 0.2498586658233206 0.2436935774766533
vn 0.9299824721044064 0.367603865021271 0
vn -0.9371147674696098 0.2498586658233206 0.2436935774766533
vn -0.9299824721044064 0.367603865021271 0
vn 0.670349528025805 0.25117094843195137 -0.6982439866832899
vn 0.40450082632715695 0.310501771455311 -0.860213770770825
vn -0.40450082632715695 0.310501771455311 0.860213770770825
vn -0.670287408927862 0.25117052028079806 0.6983037728486409
vn 0.9371532429125689 0.2498606602685268 -0.24354352742093544
vn -0.9371532429125689 0.2498606602685268 -0.24354352742093544
vn 0.670287408927862 0.25117052028079806 0.6983037728486409
vn 0.40450082632715695 0.310501771455311 0.860213770770825
vn -0.924550254066694 0.12769207713403247 -0.3590286355465368
vn 0.9245402917401268 0.12769070121080184 -0.3590547782349858
vn -0.924476972161532 0.12772137231034492 0.35920687493171455
vn 0.924476972161532 0.12772137231034492 0.35920687493171455
vt 0 0
usemtl material_0_2
f 1/1/1 2/1/1 3/1/2
f 4/1/1 5/1/2 6/1/2
f 7/1/3 8/1/2 9/1/3
f 10/1/2 11/1/2 12/1/3
f 13/1/4 14/1/4 15/1/5
f 16/1/4 17/1/5 18/1/5
f 19/1/6 20/1/7 21/1/8
f 22/1/7 23/1/9 24/1/8
f 25/1/7 26/1/10 27/1/9
f 28/1/10 29/1/11 30/1/9
f 31/1/12 32/1/13 33/1/14
f 34/1/13 35/1/15 36/1/14
f 37/1/13 38/1/16 39/1/15
f 40/1/16 41/1/17 42/1/15
f 43/1/10 44/1/18 45/1/11
f 46/1/18 47/1/19 48/1/11
f 49/1/20 50/1/21 51/1/12
f 52/1/21 53/1/13 54/1/12
f 55/1/8 56/1/9 57/1/22
f 58/1/9 59/1/23 60/1/22
f 61/1/16 62/1/24 63/1/17
f 64/1/24 65/1/25 66/1/17
f 67/1/26 68/1/6 69/1/27
f 70/1/6 71/1/8 72/1/27
f 73/1/21 74/1/28 75/1/13
f 76/1/28 77/1/16 78/1/13
f 79/1/9 80/1/11 81/1/23
f 82/1/11 83/1/29 84/1/23
f 85/1/30 86/1/12 87/1/31
f 88/1/12 89/1/14 90/1/31
f 91/1/4 92/1/4 93/1/1
f 94/1/4 95/1/1 96/1/1
f 97/1/11 98/1/19 99/1/29
f 100/1/19 101/1/32 102/1/29
f 103/1/28 104/1/33 105/1/16
f 106/1/33 107/1/24 108/1/16
f 109/1/27 110/1/8 111/1/34
f 112/1/8 113/1/22 114/1/34
f 115/1/35 116/1/20 117/1/30
f 118/1/20 119/1/12 120/1/30
