# SSTK version 0.7.3
# 3
mtllib 3.mtl
o part5:door 2
v -0.21236400306224823 2.127500057220459 -0.030012700706720352
v -0.6426029801368713 2.127500057220459 -0.030012700706720352
v -0.21236400306224823 0.032499998807907104 -0.030012600123882294
v -0.6426029801368713 2.127500057220459 -0.030012700706720352
v -0.6426029801368713 0.032499998807907104 -0.030012600123882294
v -0.21236400306224823 0.032499998807907104 -0.030012600123882294
v -0.6443700194358826 2.127500057220459 -0.030744900926947594
v -0.6443700194358826 0.032499998807907104 -0.030744900926947594
v -0.6426029801368713 2.127500057220459 -0.030012700706720352
v -0.6443700194358826 0.032499998807907104 -0.030744900926947594
v -0.6426029801368713 0.032499998807907104 -0.030012600123882294
v -0.6426029801368713 2.127500057220459 -0.030012700706720352
v -0.21236400306224823 2.127500057220459 -0.030012700706720352
v -0.21236400306224823 0.032499998807907104 -0.030012600123882294
v -0.2105959951877594 2.127500057220459 -0.030744900926947594
v -0.21236400306224823 0.032499998807907104 -0.030012600123882294
v -0.2105959951877594 0.032499998807907104 -0.030744900926947594
v -0.2105959951877594 2.127500057220459 -0.030744900926947594
vn 0 0 1
vn -0.7070912836272389 0 0.7071222784062056
vn -0.3826819972471027 0 0.9238801269553146
vn 0.3826819972471027 0 0.9238801269553146
vn 0.7071067811865476 0 0.7071067811865476
vt 13.285900115966797 13.982799530029297
vt 12.425399780273438 13.982799530029297
vt 13.285900115966797 9.792799949645996
vt 12.425399780273438 9.792799949645996
vt 12.421600341796875 13.982799530029297
vt 12.421600341796875 9.792799949645996
vt 13.28969955444336 13.982799530029297
vt 13.28969955444336 9.792799949645996
usemtl material_0_2
f 1/1/1 2/2/1 3/3/1
f 4/2/1 5/4/1 6/3/1
f 7/5/2 8/6/2 9/2/3
f 10/6/2 11/4/3 12/2/3
f 13/1/4 14/3/4 15/7/5
f 16/3/4 17/8/5 18/7/5
